<?xml version="1.0" encoding="UTF-8" standalone="no"?>
<svg
   width="659"
   height="498"
   viewBox="0 0 659 498"
   fill="none"
   version="1.1"
   id="svg113"
   sodipodi:docname="Volynskiy_second_floor_2.svg"
   inkscape:version="1.1 (c68e22c387, 2021-05-23)"
   xmlns:inkscape="http://www.inkscape.org/namespaces/inkscape"
   xmlns:sodipodi="http://sodipodi.sourceforge.net/DTD/sodipodi-0.dtd"
   xmlns="http://www.w3.org/2000/svg"
   xmlns:svg="http://www.w3.org/2000/svg">
  <sodipodi:namedview
     id="namedview115"
     pagecolor="#ffffff"
     bordercolor="#666666"
     borderopacity="1.0"
     inkscape:pageshadow="2"
     inkscape:pageopacity="0.0"
     inkscape:pagecheckerboard="0"
     showgrid="false"
     inkscape:zoom="1.6054628"
     inkscape:cx="329.81144"
     inkscape:cy="248.8379"
     inkscape:window-width="1920"
     inkscape:window-height="1017"
     inkscape:window-x="-8"
     inkscape:window-y="264"
     inkscape:window-maximized="1"
     inkscape:current-layer="svg113" />
  <g>
  <rect
     x="137"
     y="45"
     width="385"
     height="335"
     rx="24"
     fill="#F8F9FD"
     id="rect2" />
  <rect
     x="156.5"
     y="59.895"
     width="83"
     height="106"
     rx="20"
     fill="#F0F1F8"
     id="rect4" />
  <path
     d="M172.5 91.395C172.224 91.395 172 91.1712 172 90.895L172 84.895C172 79.6483 176.253 75.395 181.5 75.395L214.5 75.395C219.747 75.395 224 79.6483 224 84.895L224 90.895C224 91.1712 223.776 91.395 223.5 91.395L172.5 91.395Z"
     fill="#0015CE"
     fill-opacity="0.15"
     stroke="#0015CE"
     id="path6" />
  <path
     d="M171.5 102.895C171.5 100.134 173.739 97.895 176.5 97.895H219.5C222.261 97.895 224.5 100.134 224.5 102.895V122.895C224.5 125.656 222.261 127.895 219.5 127.895H176.5C173.739 127.895 171.5 125.656 171.5 122.895V102.895Z"
     fill="#0015CE"
     fill-opacity="0.1"
     id="path8" />
  <path
     d="M195.472 111.599C196.181 111.767 196.755 112.098 197.194 112.593C197.642 113.078 197.866 113.69 197.866 114.427C197.866 115.407 197.535 116.177 196.872 116.737C196.209 117.297 195.397 117.577 194.436 117.577C193.689 117.577 193.017 117.404 192.42 117.059C191.832 116.714 191.407 116.21 191.146 115.547L192.518 114.749C192.807 115.589 193.447 116.009 194.436 116.009C194.996 116.009 195.439 115.869 195.766 115.589C196.093 115.3 196.256 114.912 196.256 114.427C196.256 113.942 196.093 113.559 195.766 113.279C195.439 112.999 194.996 112.859 194.436 112.859H194.072L193.428 111.893L195.542 109.107H191.44V107.595H197.46V108.967L195.472 111.599ZM204.278 112.299C205.24 112.831 205.72 113.624 205.72 114.679C205.72 115.575 205.408 116.284 204.782 116.807C204.157 117.32 203.326 117.577 202.29 117.577C201.254 117.577 200.419 117.32 199.784 116.807C199.159 116.284 198.846 115.575 198.846 114.679C198.846 114.175 198.972 113.718 199.224 113.307C199.476 112.887 199.831 112.551 200.288 112.299C199.551 111.814 199.182 111.123 199.182 110.227C199.182 109.331 199.481 108.64 200.078 108.155C200.676 107.66 201.413 107.413 202.29 107.413C203.158 107.413 203.891 107.66 204.488 108.155C205.095 108.64 205.398 109.331 205.398 110.227C205.398 111.123 205.025 111.814 204.278 112.299ZM202.29 108.939C201.852 108.939 201.492 109.056 201.212 109.289C200.932 109.522 200.792 109.858 200.792 110.297C200.792 110.717 200.932 111.048 201.212 111.291C201.502 111.534 201.861 111.655 202.29 111.655C202.71 111.655 203.065 111.534 203.354 111.291C203.644 111.048 203.788 110.717 203.788 110.297C203.788 109.858 203.644 109.522 203.354 109.289C203.074 109.056 202.72 108.939 202.29 108.939ZM202.29 116.051C202.832 116.051 203.27 115.92 203.606 115.659C203.942 115.388 204.11 115.01 204.11 114.525C204.11 114.04 203.942 113.666 203.606 113.405C203.27 113.134 202.832 112.999 202.29 112.999C201.74 112.999 201.296 113.134 200.96 113.405C200.624 113.666 200.456 114.04 200.456 114.525C200.456 115.01 200.624 115.388 200.96 115.659C201.296 115.92 201.74 116.051 202.29 116.051Z"
     fill="#0015CE"
     id="path10" />
  <path
     d="M176.5 98.895H219.5V96.895H176.5V98.895ZM223.5 102.895V122.895H225.5V102.895H223.5ZM219.5 126.895H176.5V128.895H219.5V126.895ZM172.5 122.895V102.895H170.5V122.895H172.5ZM176.5 126.895C174.291 126.895 172.5 125.104 172.5 122.895H170.5C170.5 126.209 173.186 128.895 176.5 128.895V126.895ZM223.5 122.895C223.5 125.104 221.709 126.895 219.5 126.895V128.895C222.814 128.895 225.5 126.209 225.5 122.895H223.5ZM219.5 98.895C221.709 98.895 223.5 100.686 223.5 102.895H225.5C225.5 99.5813 222.814 96.895 219.5 96.895V98.895ZM176.5 96.895C173.186 96.895 170.5 99.5813 170.5 102.895H172.5C172.5 100.686 174.291 98.895 176.5 98.895V96.895Z"
     fill="#0015CE"
     id="path12" />
  <path
     d="M193 134.395C193.276 134.395 193.5 134.619 193.5 134.895L193.5 142.395C193.5 146.813 189.918 150.395 185.5 150.395C181.082 150.395 177.5 146.813 177.5 142.395L177.5 134.895C177.5 134.619 177.724 134.395 178 134.395L193 134.395Z"
     fill="#0015CE"
     fill-opacity="0.15"
     stroke="#0015CE"
     id="path14" />
  <path
     d="M218 134.395C218.276 134.395 218.5 134.619 218.5 134.895L218.5 142.395C218.5 146.813 214.918 150.395 210.5 150.395C206.082 150.395 202.5 146.813 202.5 142.395L202.5 134.895C202.5 134.619 202.724 134.395 203 134.395L218 134.395Z"
     fill="#0015CE"
     fill-opacity="0.15"
     stroke="#0015CE"
     id="path16" />
  <rect
     x="154.5"
     y="260.301"
     width="117"
     height="106"
     rx="20"
     fill="#F0F1F8"
     id="rect18" />
  <path
     d="M195.5 291.801C195.776 291.801 196 291.577 196 291.301L196 283.801C196 279.383 192.418 275.801 188 275.801C183.582 275.801 180 279.383 180 283.801L180 291.301C180 291.577 180.224 291.801 180.5 291.801L195.5 291.801Z"
     fill="#0015CE"
     fill-opacity="0.15"
     stroke="#0015CE"
     id="path20" />
  <path
     d="M220.5 291.801C220.776 291.801 221 291.577 221 291.301L221 283.801C221 279.383 217.418 275.801 213 275.801C208.582 275.801 205 279.383 205 283.801L205 291.301C205 291.577 205.224 291.801 205.5 291.801L220.5 291.801Z"
     fill="#0015CE"
     fill-opacity="0.15"
     stroke="#0015CE"
     id="path22" />
  <path
     d="M245.5 291.801C245.776 291.801 246 291.577 246 291.301L246 283.801C246 279.383 242.418 275.801 238 275.801C233.582 275.801 230 279.383 230 283.801L230 291.301C230 291.577 230.224 291.801 230.5 291.801L245.5 291.801Z"
     fill="#0015CE"
     fill-opacity="0.15"
     stroke="#0015CE"
     id="path24" />
  <path
     d="M169.5 303.301C169.5 300.539 171.739 298.301 174.5 298.301H251.5C254.261 298.301 256.5 300.539 256.5 303.301V323.301C256.5 326.062 254.261 328.301 251.5 328.301H174.5C171.739 328.301 169.5 326.062 169.5 323.301V303.301Z"
     fill="#0015CE"
     fill-opacity="0.1"
     id="path26" />
  <path
     d="M213.404 314.539V316.037H212.284V317.801H210.66V316.037H205.844V314.539L209.218 308.001H210.968L207.594 314.539H210.66V311.991H212.284V314.539H213.404ZM217.671 311.291C218.688 311.291 219.519 311.603 220.163 312.229C220.807 312.845 221.129 313.647 221.129 314.637C221.129 315.626 220.807 316.433 220.163 317.059C219.519 317.675 218.688 317.983 217.671 317.983C216.644 317.983 215.809 317.675 215.165 317.059C214.521 316.433 214.199 315.626 214.199 314.637C214.199 313.89 214.395 313.232 214.787 312.663L217.895 308.001H219.729L217.489 311.291H217.671ZM217.671 316.457C218.212 316.457 218.655 316.293 219.001 315.967C219.346 315.631 219.519 315.187 219.519 314.637C219.519 314.086 219.346 313.647 219.001 313.321C218.655 312.985 218.212 312.817 217.671 312.817C217.12 312.817 216.672 312.985 216.327 313.321C215.981 313.647 215.809 314.086 215.809 314.637C215.809 315.187 215.981 315.631 216.327 315.967C216.672 316.293 217.12 316.457 217.671 316.457Z"
     fill="#0015CE"
     id="path28" />
  <path
     d="M174.5 299.301H251.5V297.301H174.5V299.301ZM255.5 303.301V323.301H257.5V303.301H255.5ZM251.5 327.301H174.5V329.301H251.5V327.301ZM170.5 323.301V303.301H168.5V323.301H170.5ZM174.5 327.301C172.291 327.301 170.5 325.51 170.5 323.301H168.5C168.5 326.614 171.186 329.301 174.5 329.301V327.301ZM255.5 323.301C255.5 325.51 253.709 327.301 251.5 327.301V329.301C254.814 329.301 257.5 326.614 257.5 323.301H255.5ZM251.5 299.301C253.709 299.301 255.5 301.092 255.5 303.301H257.5C257.5 299.987 254.814 297.301 251.5 297.301V299.301ZM174.5 297.301C171.186 297.301 168.5 299.987 168.5 303.301H170.5C170.5 301.092 172.291 299.301 174.5 299.301V297.301Z"
     fill="#0015CE"
     id="path30" />
  <path
     d="M180.5 334.801C180.224 334.801 180 335.025 180 335.301L180 341.301C180 346.547 184.253 350.801 189.5 350.801L236.5 350.801C241.747 350.801 246 346.547 246 341.301L246 335.301C246 335.025 245.776 334.801 245.5 334.801L180.5 334.801Z"
     fill="#0015CE"
     fill-opacity="0.15"
     stroke="#0015CE"
     id="path32" />
  <rect
     x="256.5"
     y="59.895"
     width="202"
     height="106"
     rx="20"
     fill="#F0F1F8"
     id="rect34" />
  <path
     d="M272.5 91.395C272.224 91.395 272 91.1712 272 90.895L272 84.895C272 79.6483 276.253 75.395 281.5 75.395L292.5 75.395C297.747 75.395 302 79.6483 302 84.895L302 90.895C302 91.1712 301.776 91.395 301.5 91.395L272.5 91.395Z"
     fill="#0015CE"
     fill-opacity="0.15"
     stroke="#0015CE"
     id="path36" />
  <path
     d="M272 102.895C272 100.134 274.239 97.895 277 97.895H297C299.761 97.895 302 100.134 302 102.895V122.895C302 125.656 299.761 127.895 297 127.895H277C274.239 127.895 272 125.656 272 122.895V102.895Z"
     fill="#0015CE"
     fill-opacity="0.1"
     id="path38" />
  <path
     d="M286.412 114.133V115.631H285.292V117.395H283.668V115.631H278.852V114.133L282.226 107.595H283.976L280.602 114.133H283.668V111.585H285.292V114.133H286.412ZM293.889 116.191C293.217 117.115 292.275 117.577 291.061 117.577C289.848 117.577 288.901 117.115 288.219 116.191C287.547 115.267 287.211 114.035 287.211 112.495C287.211 110.955 287.547 109.723 288.219 108.799C288.901 107.875 289.848 107.413 291.061 107.413C292.275 107.413 293.217 107.875 293.889 108.799C294.571 109.723 294.911 110.955 294.911 112.495C294.911 114.035 294.571 115.267 293.889 116.191ZM291.061 116.009C291.789 116.009 292.345 115.706 292.727 115.099C293.11 114.492 293.301 113.624 293.301 112.495C293.301 111.366 293.11 110.498 292.727 109.891C292.345 109.284 291.789 108.981 291.061 108.981C290.343 108.981 289.787 109.284 289.395 109.891C289.013 110.498 288.821 111.366 288.821 112.495C288.821 113.624 289.013 114.492 289.395 115.099C289.787 115.706 290.343 116.009 291.061 116.009Z"
     fill="#0015CE"
     id="path40" />
  <path
     d="M277 98.895H297V96.895H277V98.895ZM301 102.895V122.895H303V102.895H301ZM297 126.895H277V128.895H297V126.895ZM273 122.895V102.895H271V122.895H273ZM277 126.895C274.791 126.895 273 125.104 273 122.895H271C271 126.209 273.686 128.895 277 128.895V126.895ZM301 122.895C301 125.104 299.209 126.895 297 126.895V128.895C300.314 128.895 303 126.209 303 122.895H301ZM297 98.895C299.209 98.895 301 100.686 301 102.895H303C303 99.5813 300.314 96.895 297 96.895V98.895ZM277 96.895C273.686 96.895 271 99.5813 271 102.895H273C273 100.686 274.791 98.895 277 98.895V96.895Z"
     fill="#0015CE"
     id="path42" />
  <path
     d="M294.5 134.395C294.776 134.395 295 134.619 295 134.895L295 142.395C295 146.813 291.418 150.395 287 150.395C282.582 150.395 279 146.813 279 142.395L279 134.895C279 134.619 279.224 134.395 279.5 134.395L294.5 134.395Z"
     fill="#0015CE"
     fill-opacity="0.15"
     stroke="#0015CE"
     id="path44" />
  <path
     d="M319.5 91.395C319.224 91.395 319 91.1712 319 90.895L319 84.895C319 79.6483 323.253 75.395 328.5 75.395L339.5 75.395C344.747 75.395 349 79.6483 349 84.895L349 90.895C349 91.1712 348.776 91.395 348.5 91.395L319.5 91.395Z"
     fill="#0015CE"
     fill-opacity="0.15"
     stroke="#0015CE"
     id="path46" />
  <path
     d="M319 102.895C319 100.134 321.239 97.895 324 97.895H344C346.761 97.895 349 100.134 349 102.895V122.895C349 125.656 346.761 127.895 344 127.895H324C321.239 127.895 319 125.656 319 122.895V102.895Z"
     fill="#0015CE"
     fill-opacity="0.1"
     id="path48" />
  <path
     d="M335.395 114.133V115.631H334.275V117.395H332.651V115.631H327.835V114.133L331.209 107.595H332.959L329.585 114.133H332.651V111.585H334.275V114.133H335.395ZM338.036 107.595H339.436V117.395H337.826V109.317L335.852 109.877L335.46 108.505L338.036 107.595Z"
     fill="#0015CE"
     id="path50" />
  <path
     d="M324 98.895H344V96.895H324V98.895ZM348 102.895V122.895H350V102.895H348ZM344 126.895H324V128.895H344V126.895ZM320 122.895V102.895H318V122.895H320ZM324 126.895C321.791 126.895 320 125.104 320 122.895H318C318 126.209 320.686 128.895 324 128.895V126.895ZM348 122.895C348 125.104 346.209 126.895 344 126.895V128.895C347.314 128.895 350 126.209 350 122.895H348ZM344 98.895C346.209 98.895 348 100.686 348 102.895H350C350 99.5813 347.314 96.895 344 96.895V98.895ZM324 96.895C320.686 96.895 318 99.5813 318 102.895H320C320 100.686 321.791 98.895 324 98.895V96.895Z"
     fill="#0015CE"
     id="path52" />
  <path
     d="M341.5 134.395C341.776 134.395 342 134.619 342 134.895L342 142.395C342 146.813 338.418 150.395 334 150.395C329.582 150.395 326 146.813 326 142.395L326 134.895C326 134.619 326.224 134.395 326.5 134.395L341.5 134.395Z"
     fill="#0015CE"
     fill-opacity="0.15"
     stroke="#0015CE"
     id="path54" />
  <path
     d="M366.5 91.395C366.224 91.395 366 91.1712 366 90.895L366 84.895C366 79.6483 370.253 75.395 375.5 75.395L386.5 75.395C391.747 75.395 396 79.6483 396 84.895L396 90.895C396 91.1712 395.776 91.395 395.5 91.395L366.5 91.395Z"
     fill="#0015CE"
     fill-opacity="0.15"
     stroke="#0015CE"
     id="path56" />
  <path
     d="M366 102.895C366 100.134 368.239 97.895 371 97.895H391C393.761 97.895 396 100.134 396 102.895V122.895C396 125.656 393.761 127.895 391 127.895H371C368.239 127.895 366 125.656 366 122.895V102.895Z"
     fill="#0015CE"
     fill-opacity="0.1"
     id="path58" />
  <path
     d="M381.116 114.133V115.631H379.996V117.395H378.372V115.631H373.556V114.133L376.93 107.595H378.68L375.306 114.133H378.372V111.585H379.996V114.133H381.116ZM381.789 117.395V116.135L385.205 112.649C386.036 111.818 386.451 111.1 386.451 110.493C386.451 110.017 386.307 109.648 386.017 109.387C385.737 109.116 385.378 108.981 384.939 108.981C384.118 108.981 383.511 109.387 383.119 110.199L381.761 109.401C382.069 108.748 382.503 108.253 383.063 107.917C383.623 107.581 384.244 107.413 384.925 107.413C385.784 107.413 386.521 107.684 387.137 108.225C387.753 108.766 388.061 109.504 388.061 110.437C388.061 111.436 387.506 112.5 386.395 113.629L384.183 115.841H388.243V117.395H381.789Z"
     fill="#0015CE"
     id="path60" />
  <path
     d="M371 98.895H391V96.895H371V98.895ZM395 102.895V122.895H397V102.895H395ZM391 126.895H371V128.895H391V126.895ZM367 122.895V102.895H365V122.895H367ZM371 126.895C368.791 126.895 367 125.104 367 122.895H365C365 126.209 367.686 128.895 371 128.895V126.895ZM395 122.895C395 125.104 393.209 126.895 391 126.895V128.895C394.314 128.895 397 126.209 397 122.895H395ZM391 98.895C393.209 98.895 395 100.686 395 102.895H397C397 99.5813 394.314 96.895 391 96.895V98.895ZM371 96.895C367.686 96.895 365 99.5813 365 102.895H367C367 100.686 368.791 98.895 371 98.895V96.895Z"
     fill="#0015CE"
     id="path62" />
  <path
     d="M388.5 134.395C388.776 134.395 389 134.619 389 134.895L389 142.395C389 146.813 385.418 150.395 381 150.395C376.582 150.395 373 146.813 373 142.395L373 134.895C373 134.619 373.224 134.395 373.5 134.395L388.5 134.395Z"
     fill="#0015CE"
     fill-opacity="0.15"
     stroke="#0015CE"
     id="path64" />
  <path
     d="M413.5 91.395C413.224 91.395 413 91.1712 413 90.895L413 84.895C413 79.6483 417.253 75.395 422.5 75.395L433.5 75.395C438.747 75.395 443 79.6483 443 84.895L443 90.895C443 91.1712 442.776 91.395 442.5 91.395L413.5 91.395Z"
     fill="#0015CE"
     fill-opacity="0.15"
     stroke="#0015CE"
     id="path66" />
  <path
     d="M413 102.895C413 100.134 415.239 97.895 418 97.895H438C440.761 97.895 443 100.134 443 102.895V122.895C443 125.656 440.761 127.895 438 127.895H418C415.239 127.895 413 125.656 413 122.895V102.895Z"
     fill="#0015CE"
     fill-opacity="0.1"
     id="path68" />
  <path
     d="M428.041 114.133V115.631H426.921V117.395H425.297V115.631H420.481V114.133L423.855 107.595H425.605L422.231 114.133H425.297V111.585H426.921V114.133H428.041ZM432.956 111.599C433.666 111.767 434.24 112.098 434.678 112.593C435.126 113.078 435.35 113.69 435.35 114.427C435.35 115.407 435.019 116.177 434.356 116.737C433.694 117.297 432.882 117.577 431.92 117.577C431.174 117.577 430.502 117.404 429.904 117.059C429.316 116.714 428.892 116.21 428.63 115.547L430.002 114.749C430.292 115.589 430.931 116.009 431.92 116.009C432.48 116.009 432.924 115.869 433.25 115.589C433.577 115.3 433.74 114.912 433.74 114.427C433.74 113.942 433.577 113.559 433.25 113.279C432.924 112.999 432.48 112.859 431.92 112.859H431.556L430.912 111.893L433.026 109.107H428.924V107.595H434.944V108.967L432.956 111.599Z"
     fill="#0015CE"
     id="path70" />
  <path
     d="M418 98.895H438V96.895H418V98.895ZM442 102.895V122.895H444V102.895H442ZM438 126.895H418V128.895H438V126.895ZM414 122.895V102.895H412V122.895H414ZM418 126.895C415.791 126.895 414 125.104 414 122.895H412C412 126.209 414.686 128.895 418 128.895V126.895ZM442 122.895C442 125.104 440.209 126.895 438 126.895V128.895C441.314 128.895 444 126.209 444 122.895H442ZM438 98.895C440.209 98.895 442 100.686 442 102.895H444C444 99.5813 441.314 96.895 438 96.895V98.895ZM418 96.895C414.686 96.895 412 99.5813 412 102.895H414C414 100.686 415.791 98.895 418 98.895V96.895Z"
     fill="#0015CE"
     id="path72" />
  <path
     d="M435.5 134.395C435.776 134.395 436 134.619 436 134.895L436 142.395C436 146.813 432.418 150.395 428 150.395C423.582 150.395 420 146.813 420 142.395L420 134.895C420 134.619 420.224 134.395 420.5 134.395L435.5 134.395Z"
     fill="#0015CE"
     fill-opacity="0.15"
     stroke="#0015CE"
     id="path74" />
  <rect
     x="154.5"
     y="183.098"
     width="117"
     height="60"
     rx="20"
     fill="#F0F1F8"
     id="rect76" />
  <path
     d="M190.5 205.598C190.5 205.322 190.276 205.098 190 205.098L182.5 205.098C178.082 205.098 174.5 208.68 174.5 213.098C174.5 217.516 178.082 221.098 182.5 221.098L190 221.098C190.276 221.098 190.5 220.874 190.5 220.598L190.5 205.598Z"
     fill="#0015CE"
     fill-opacity="0.15"
     stroke="#0015CE"
     id="path78" />
  <path
     d="M198 203.098C198 200.337 200.239 198.098 203 198.098H223C225.761 198.098 228 200.337 228 203.098V223.098C228 225.86 225.761 228.098 223 228.098H203C200.239 228.098 198 225.86 198 223.098V203.098Z"
     fill="#0015CE"
     fill-opacity="0.1"
     id="path80" />
  <path
     d="M212.693 214.336V215.834H211.573V217.598H209.949V215.834H205.133V214.336L208.507 207.798H210.257L206.883 214.336H209.949V211.788H211.573V214.336H212.693ZM220.95 214.336V215.834H219.83V217.598H218.206V215.834H213.39V214.336L216.764 207.798H218.514L215.14 214.336H218.206V211.788H219.83V214.336H220.95Z"
     fill="#0015CE"
     id="path82" />
  <path
     d="M203 199.098H223V197.098H203V199.098ZM227 203.098V223.098H229V203.098H227ZM223 227.098H203V229.098H223V227.098ZM199 223.098V203.098H197V223.098H199ZM203 227.098C200.791 227.098 199 225.307 199 223.098H197C197 226.412 199.686 229.098 203 229.098V227.098ZM227 223.098C227 225.307 225.209 227.098 223 227.098V229.098C226.314 229.098 229 226.412 229 223.098H227ZM223 199.098C225.209 199.098 227 200.889 227 203.098H229C229 199.784 226.314 197.098 223 197.098V199.098ZM203 197.098C199.686 197.098 197 199.784 197 203.098H199C199 200.889 200.791 199.098 203 199.098V197.098Z"
     fill="#0015CE"
     id="path84" />
  <path
     d="M235.5 205.598C235.5 205.322 235.724 205.098 236 205.098L243.5 205.098C247.918 205.098 251.5 208.68 251.5 213.098C251.5 217.516 247.918 221.098 243.5 221.098H236C235.724 221.098 235.5 220.874 235.5 220.598L235.5 205.598Z"
     fill="#0015CE"
     fill-opacity="0.15"
     stroke="#0015CE"
     id="path86" />
  <path
     d="M401.5 224.598C401.5 213.552 410.454 204.598 421.5 204.598H518V376H401.5V224.598Z"
     fill="#F0F1F8"
     id="path88" />
  <g
     clip-path="url(#clip0)"
     id="g96">
    <path
       d="M456.888 281.281L454.714 279.363C455.999 278.061 456.794 276.274 456.794 274.304C456.794 270.331 453.562 267.098 449.588 267.098C445.615 267.098 442.382 270.331 442.382 274.304C442.382 276.274 443.177 278.061 444.463 279.363L442.289 281.281C440.516 282.845 439.5 285.097 439.5 287.461V300.245H443.824V316.098H455.353V300.245H459.676V287.461C459.676 285.097 458.66 282.845 456.888 281.281ZM449.588 269.98C451.972 269.98 453.912 271.92 453.912 274.304C453.912 276.688 451.972 278.628 449.588 278.628C447.204 278.628 445.265 276.688 445.265 274.304C445.265 271.92 447.204 269.98 449.588 269.98ZM456.794 297.363H452.471V313.216H446.706V297.363H442.382V287.461C442.382 285.924 443.043 284.46 444.196 283.443L446.954 281.009C447.77 281.331 448.659 281.51 449.588 281.51C450.518 281.51 451.406 281.331 452.223 281.009L454.981 283.443C456.133 284.459 456.794 285.924 456.794 287.461V297.363Z"
       fill="#C4C6E4"
       id="path90" />
    <path
       d="M482.98 279.873C484.589 278.55 485.618 276.545 485.618 274.304C485.618 270.331 482.385 267.098 478.412 267.098C474.438 267.098 471.206 270.331 471.206 274.304C471.206 276.549 472.238 278.556 473.851 279.879L471.751 286.848L468.323 297.619V300.245H472.647V316.098H484.176V300.245H488.5V297.624L482.98 279.873ZM478.412 269.98C480.796 269.98 482.735 271.92 482.735 274.304C482.735 276.688 480.796 278.628 478.412 278.628C476.028 278.628 474.088 276.688 474.088 274.304C474.088 271.92 476.028 269.98 478.412 269.98ZM481.294 297.363V313.216H475.529V297.363H471.43L474.501 287.712L476.452 281.237C477.076 281.413 477.733 281.51 478.412 281.51C479.096 281.51 479.757 281.412 480.384 281.233L485.4 297.363H481.294Z"
       fill="#C4C6E4"
       id="path92" />
    <path
       d="M462.559 267.098H465.441V316.098H462.559V267.098Z"
       fill="#C4C6E4"
       id="path94" />
  </g>
  <path
     d="M297.5 321C297.5 309.954 306.454 301 317.5 301H342C353.046 301 362 309.954 362 321V376H297.5V321Z"
     fill="#F0F1F8"
     id="path98" />
  <path
     d="M342.5 316H320C319.602 316 319.221 316.158 318.939 316.439C318.658 316.721 318.5 317.102 318.5 317.5V328H312.5V331H326C326.305 331 326.604 330.907 326.855 330.733C327.106 330.559 327.298 330.313 327.405 330.026L331.379 334L327.405 337.973C327.298 337.687 327.106 337.441 326.855 337.267C326.604 337.093 326.305 337 326 337H312.5V340H318.5V350.5C318.5 350.898 318.658 351.279 318.939 351.561C319.221 351.842 319.602 352 320 352H342.5C342.898 352 343.279 351.842 343.561 351.561C343.842 351.279 344 350.898 344 350.5V317.5C344 317.102 343.842 316.721 343.561 316.439C343.279 316.158 342.898 316 342.5 316V316ZM341 349H321.5V340H324.5V341.5C324.5 341.797 324.588 342.087 324.753 342.333C324.918 342.58 325.152 342.772 325.426 342.886C325.7 342.999 326.002 343.029 326.293 342.971C326.584 342.913 326.851 342.77 327.061 342.561L334.561 335.061C334.7 334.921 334.81 334.756 334.886 334.574C334.961 334.392 335 334.197 335 334C335 333.803 334.961 333.608 334.886 333.426C334.81 333.244 334.7 333.079 334.561 332.939L327.061 325.439C326.851 325.23 326.584 325.087 326.293 325.029C326.002 324.971 325.7 325.001 325.426 325.114C325.152 325.228 324.918 325.42 324.753 325.667C324.588 325.913 324.5 326.203 324.5 326.5V328H321.5V319H341V349Z"
     fill="#C4C6E4"
     id="path100" />
  <path
     d="M345.5 319C346.328 319 347 318.328 347 317.5C347 316.672 346.328 316 345.5 316C344.672 316 344 316.672 344 317.5C344 318.328 344.672 319 345.5 319Z"
     fill="#C4C6E4"
     id="path102" />
  <rect
     x="137"
     y="45"
     width="385"
     height="335"
     rx="24"
     stroke="#4354C6"
     stroke-width="8"
     id="rect104" />
  <path
     d="M222.835 411.612C226.881 411.612 230.21 412.957 232.822 415.646C235.46 418.309 236.779 421.612 236.779 425.556C236.779 429.5 235.46 432.816 232.822 435.505C230.21 438.168 226.881 439.499 222.835 439.499C220.377 439.499 218.11 438.923 216.036 437.771C213.988 436.593 212.387 435.018 211.235 433.046L215.076 430.857C215.793 432.188 216.843 433.251 218.226 434.045C219.609 434.813 221.145 435.197 222.835 435.197C225.319 435.197 227.393 434.506 229.058 433.123C230.722 431.74 231.759 429.909 232.169 427.63H219.263V423.482H232.169C231.759 421.203 230.722 419.372 229.058 417.989C227.393 416.606 225.319 415.915 222.835 415.915C221.145 415.915 219.609 416.311 218.226 417.105C216.843 417.874 215.793 418.923 215.076 420.255L211.235 418.027C212.387 416.055 213.988 414.493 216.036 413.341C218.11 412.189 220.377 411.612 222.835 411.612ZM255.234 419.794V423.789H248.973V439H244.825V423.789H238.525V419.794H255.234ZM272.502 419.794H276.65V439H272.502V436.234C270.94 438.411 268.699 439.499 265.78 439.499C263.142 439.499 260.889 438.526 259.02 436.58C257.15 434.608 256.215 432.214 256.215 429.397C256.215 426.555 257.15 424.16 259.02 422.214C260.889 420.268 263.142 419.295 265.78 419.295C268.699 419.295 270.94 420.37 272.502 422.521V419.794ZM262.092 433.814C263.245 434.967 264.692 435.543 266.433 435.543C268.174 435.543 269.621 434.967 270.773 433.814C271.926 432.636 272.502 431.164 272.502 429.397C272.502 427.63 271.926 426.17 270.773 425.018C269.621 423.84 268.174 423.251 266.433 423.251C264.692 423.251 263.245 423.84 262.092 425.018C260.94 426.17 260.364 427.63 260.364 429.397C260.364 431.164 260.94 432.636 262.092 433.814ZM306.223 439H301.498L294.968 430.127V439H290.897V430.204L284.367 439H279.642L287.132 429.205L280.026 419.794H284.751L290.897 428.206V419.794H294.968V428.245L301.114 419.794H305.839L298.733 429.205L306.223 439ZM317.581 439V435.543L326.953 425.978C329.232 423.699 330.372 421.728 330.372 420.063C330.372 418.757 329.975 417.746 329.181 417.029C328.413 416.286 327.427 415.915 326.223 415.915C323.97 415.915 322.305 417.029 321.23 419.256L317.504 417.067C318.349 415.274 319.54 413.917 321.076 412.995C322.612 412.073 324.315 411.612 326.185 411.612C328.541 411.612 330.564 412.355 332.254 413.84C333.944 415.326 334.789 417.349 334.789 419.909C334.789 422.649 333.265 425.569 330.218 428.667L324.149 434.736H335.288V439H317.581ZM344.903 434.391L342.214 444.378H338.757L340.293 434.391H344.903ZM369.703 429.167C371.752 430.088 372.776 431.612 372.776 433.738C372.776 435.376 372.11 436.747 370.779 437.848C369.447 438.949 367.59 439.499 365.209 439.499C361.342 439.499 358.73 437.963 357.373 434.89L360.753 432.893C361.445 434.813 362.943 435.773 365.247 435.773C366.323 435.773 367.168 435.556 367.783 435.12C368.397 434.659 368.704 434.058 368.704 433.315C368.704 432.649 368.461 432.124 367.975 431.74C367.488 431.33 366.809 431.126 365.939 431.126H363.212V427.476H365.247C366.092 427.476 366.745 427.284 367.206 426.9C367.693 426.491 367.936 425.94 367.936 425.249C367.936 424.583 367.667 424.045 367.13 423.635C366.592 423.2 365.875 422.982 364.978 422.982C363.058 422.982 361.726 423.827 360.984 425.517L357.603 423.597C359.037 420.729 361.47 419.295 364.902 419.295C367.053 419.295 368.756 419.845 370.01 420.947C371.291 422.022 371.931 423.341 371.931 424.903C371.931 426.823 371.188 428.245 369.703 429.167ZM391.376 419.794H395.524V439H391.376V436.234C389.814 438.411 387.573 439.499 384.654 439.499C382.016 439.499 379.763 438.526 377.893 436.58C376.024 434.608 375.089 432.214 375.089 429.397C375.089 426.555 376.024 424.16 377.893 422.214C379.763 420.268 382.016 419.295 384.654 419.295C387.573 419.295 389.814 420.37 391.376 422.521V419.794ZM380.966 433.814C382.118 434.967 383.565 435.543 385.307 435.543C387.048 435.543 388.495 434.967 389.647 433.814C390.8 432.636 391.376 431.164 391.376 429.397C391.376 427.63 390.8 426.17 389.647 425.018C388.495 423.84 387.048 423.251 385.307 423.251C383.565 423.251 382.118 423.84 380.966 425.018C379.814 426.17 379.238 427.63 379.238 429.397C379.238 431.164 379.814 432.636 380.966 433.814ZM416.569 419.794V439H412.421V423.789H406.006V430.934C406.006 433.981 405.34 436.145 404.009 437.425C402.677 438.706 400.782 439.23 398.324 439V435.12C399.502 435.325 400.385 435.082 400.974 434.391C401.563 433.699 401.858 432.483 401.858 430.741V419.794H416.569ZM429.777 439V435.543L439.15 425.978C441.429 423.699 442.568 421.728 442.568 420.063C442.568 418.757 442.171 417.746 441.377 417.029C440.609 416.286 439.623 415.915 438.42 415.915C436.166 415.915 434.502 417.029 433.426 419.256L429.7 417.067C430.545 415.274 431.736 413.917 433.273 412.995C434.809 412.073 436.512 411.612 438.381 411.612C440.737 411.612 442.76 412.355 444.45 413.84C446.141 415.326 446.986 417.349 446.986 419.909C446.986 422.649 445.462 425.569 442.415 428.667L436.346 434.736H447.485V439H429.777Z"
     fill="#4354C6"
     id="path106" />
  </g>
  <defs
     id="defs111">
    <clipPath
       id="clip0">
      <rect
         width="49"
         height="49"
         fill="white"
         transform="translate(439.5 267.098)"
         id="rect108" />
    </clipPath>
  </defs>
</svg>
