<?xml version="1.0" encoding="UTF-8" standalone="no"?>
<svg
   width="743"
   height="568"
   viewBox="0 0 743 568"
   fill="none"
   version="1.1"
   id="svg215"
   sodipodi:docname="Volynskiy_second_floor_1.svg"
   inkscape:version="1.1 (c68e22c387, 2021-05-23)"
   xmlns:inkscape="http://www.inkscape.org/namespaces/inkscape"
   xmlns:sodipodi="http://sodipodi.sourceforge.net/DTD/sodipodi-0.dtd"
   xmlns="http://www.w3.org/2000/svg"
   xmlns:svg="http://www.w3.org/2000/svg">
  <sodipodi:namedview
     id="namedview217"
     pagecolor="#ffffff"
     bordercolor="#666666"
     borderopacity="1.0"
     inkscape:pageshadow="2"
     inkscape:pageopacity="0.0"
     inkscape:pagecheckerboard="0"
     showgrid="false"
     inkscape:zoom="1.4239569"
     inkscape:cx="371.14887"
     inkscape:cy="284.06758"
     inkscape:window-width="1920"
     inkscape:window-height="1017"
     inkscape:window-x="-8"
     inkscape:window-y="264"
     inkscape:window-maximized="1"
     inkscape:current-layer="g200" />
  <g
     id="g200">
    <rect
       x="101.5"
       y="71"
       width="540"
       height="345"
       rx="24"
       fill="#F8F9FD"
       id="rect2" />
    <path
       d="M562.743 340.804C562.743 329.758 571.697 320.804 582.743 320.804H637.5V411.804H562.743V340.804Z"
       fill="#F0F1F8"
       id="path4" />
    <g
       clip-path="url(#clip1)"
       id="g10">
      <path
         d="M615.838 371.302H610.199C609.379 371.302 608.714 371.966 608.714 372.786C608.714 373.606 609.379 374.271 610.199 374.271H612.256L605.135 381.391C604.555 381.971 604.555 382.91 605.135 383.49C605.715 384.07 606.655 384.07 607.234 383.49L614.355 376.37V378.427C614.355 379.246 615.019 379.911 615.839 379.911C616.659 379.911 617.324 379.246 617.324 378.427V372.786C617.324 372.786 617.324 372.786 617.324 372.785C617.323 371.979 616.668 371.301 615.838 371.302Z"
         fill="#C4C6E4"
         id="path6" />
      <path
         d="M618.879 354.683H610.121C609.302 354.683 608.637 355.347 608.637 356.167V363.44H601.364C600.544 363.44 599.879 364.105 599.879 364.925V372.198H592.606C591.786 372.198 591.121 372.863 591.121 373.683V380.956H583.848C583.028 380.956 582.364 381.621 582.364 382.44C582.364 383.26 583.028 383.925 583.848 383.925H592.606C592.999 383.925 593.377 383.768 593.655 383.49C593.934 383.212 594.09 382.834 594.09 382.44L594.09 375.167H601.364C601.757 375.167 602.135 375.011 602.413 374.732C602.692 374.454 602.848 374.076 602.848 373.683L602.848 366.409H610.121C610.515 366.409 610.893 366.253 611.171 365.974C611.449 365.696 611.606 365.318 611.606 364.925L611.606 357.651H618.879C619.699 357.651 620.364 356.987 620.364 356.167C620.364 355.347 619.699 354.683 618.879 354.683Z"
         fill="#C4C6E4"
         id="path8" />
    </g>
    <path
       d="M276.906 74.8037H365.094V132.702C365.094 143.748 356.139 152.702 345.094 152.702H296.906C285.861 152.702 276.906 143.747 276.906 132.702V74.8037Z"
       fill="#F0F1F8"
       id="path12" />
    <g
       clip-path="url(#clip2)"
       id="g18">
      <path
         d="M333.094 94.6929H310.594C310.196 94.6929 309.814 94.8509 309.533 95.1322C309.252 95.4135 309.094 95.795 309.094 96.1929V106.693H303.094V109.693H316.594C316.899 109.693 317.197 109.6 317.448 109.426C317.699 109.252 317.891 109.005 317.999 108.719L321.972 112.693L317.999 116.666C317.891 116.38 317.699 116.134 317.448 115.96C317.197 115.786 316.899 115.693 316.594 115.693H303.094V118.693H309.094V129.193C309.094 129.591 309.252 129.972 309.533 130.254C309.814 130.535 310.196 130.693 310.594 130.693H333.094C333.491 130.693 333.873 130.535 334.154 130.254C334.436 129.972 334.594 129.591 334.594 129.193V96.1929C334.594 95.795 334.436 95.4135 334.154 95.1322C333.873 94.8509 333.491 94.6929 333.094 94.6929V94.6929ZM331.594 127.693H312.094V118.693H315.094V120.193C315.094 120.49 315.182 120.78 315.346 121.026C315.511 121.273 315.745 121.465 316.02 121.579C316.294 121.692 316.595 121.722 316.886 121.664C317.177 121.606 317.445 121.463 317.654 121.254L325.154 113.754C325.294 113.614 325.404 113.449 325.479 113.267C325.555 113.085 325.594 112.89 325.594 112.693C325.594 112.496 325.555 112.301 325.479 112.119C325.404 111.937 325.294 111.771 325.154 111.632L317.654 104.132C317.445 103.922 317.177 103.78 316.886 103.722C316.595 103.664 316.294 103.693 316.02 103.807C315.745 103.921 315.511 104.113 315.346 104.359C315.182 104.606 315.094 104.896 315.094 105.193V106.693H312.094V97.6929H331.594V127.693Z"
         fill="#C4C6E4"
         id="path14" />
      <path
         d="M328.594 114.193C329.422 114.193 330.094 113.521 330.094 112.693C330.094 111.864 329.422 111.193 328.594 111.193C327.765 111.193 327.094 111.864 327.094 112.693C327.094 113.521 327.765 114.193 328.594 114.193Z"
         fill="#C4C6E4"
         id="path16" />
    </g>
    <path
       d="M387.743 74.8037H589.743V160.804C589.743 171.849 580.789 180.804 569.743 180.804H407.743C396.698 180.804 387.743 171.849 387.743 160.804V74.8037Z"
       fill="#F0F1F8"
       id="path20" />
    <path
       d="M403.743 106.304C403.467 106.304 403.243 106.08 403.243 105.804L403.243 99.8037C403.243 94.557 407.497 90.3037 412.743 90.3037L423.743 90.3037C428.99 90.3037 433.243 94.557 433.243 99.8037L433.243 105.804C433.243 106.08 433.019 106.304 432.743 106.304L403.743 106.304Z"
       fill="#0015CE"
       fill-opacity="0.15"
       stroke="#0015CE"
       id="path22" />
    <path
       d="M403.243 117.804C403.243 115.042 405.482 112.804 408.243 112.804H428.243C431.005 112.804 433.243 115.042 433.243 117.804V137.804C433.243 140.565 431.005 142.804 428.243 142.804H408.243C405.482 142.804 403.243 140.565 403.243 137.804V117.804Z"
       fill="#0015CE"
       fill-opacity="0.1"
       id="path24" />
    <path
       d="M414.582 122.504H415.982V132.304H414.372V124.226L412.398 124.786L412.006 123.414L414.582 122.504ZM424.313 125.668C424.313 126.414 424.117 127.072 423.725 127.642L420.631 132.304H418.783L421.023 129.014H420.855C419.838 129.014 419.003 128.706 418.349 128.09C417.705 127.464 417.383 126.657 417.383 125.668C417.383 124.678 417.705 123.876 418.349 123.26C419.003 122.634 419.838 122.322 420.855 122.322C421.873 122.322 422.703 122.634 423.347 123.26C423.991 123.876 424.313 124.678 424.313 125.668ZM418.993 125.668C418.993 126.209 419.166 126.648 419.511 126.984C419.866 127.32 420.314 127.488 420.855 127.488C421.397 127.488 421.84 127.324 422.185 126.998C422.531 126.662 422.703 126.218 422.703 125.668C422.703 125.117 422.531 124.678 422.185 124.352C421.84 124.016 421.397 123.848 420.855 123.848C420.314 123.848 419.866 124.016 419.511 124.352C419.166 124.678 418.993 125.117 418.993 125.668Z"
       fill="#0015CE"
       id="path26" />
    <path
       d="M408.243 113.804H428.243V111.804H408.243V113.804ZM432.243 117.804V137.804H434.243V117.804H432.243ZM428.243 141.804H408.243V143.804H428.243V141.804ZM404.243 137.804V117.804H402.243V137.804H404.243ZM408.243 141.804C406.034 141.804 404.243 140.013 404.243 137.804H402.243C402.243 141.117 404.93 143.804 408.243 143.804V141.804ZM432.243 137.804C432.243 140.013 430.452 141.804 428.243 141.804V143.804C431.557 143.804 434.243 141.117 434.243 137.804H432.243ZM428.243 113.804C430.452 113.804 432.243 115.595 432.243 117.804H434.243C434.243 114.49 431.557 111.804 428.243 111.804V113.804ZM408.243 111.804C404.93 111.804 402.243 114.49 402.243 117.804H404.243C404.243 115.595 406.034 113.804 408.243 113.804V111.804Z"
       fill="#0015CE"
       id="path28" />
    <path
       d="M425.743 149.304C426.019 149.304 426.243 149.528 426.243 149.804L426.243 157.304C426.243 161.722 422.662 165.304 418.243 165.304C413.825 165.304 410.243 161.722 410.243 157.304L410.243 149.804C410.243 149.528 410.467 149.304 410.743 149.304L425.743 149.304Z"
       fill="#0015CE"
       fill-opacity="0.15"
       stroke="#0015CE"
       id="path30" />
    <path
       d="M450.743 106.304C450.467 106.304 450.243 106.08 450.243 105.804L450.243 99.8037C450.243 94.557 454.497 90.3037 459.743 90.3037L470.743 90.3037C475.99 90.3037 480.243 94.557 480.243 99.8037L480.243 105.804C480.243 106.08 480.019 106.304 479.743 106.304L450.743 106.304Z"
       fill="#0015CE"
       fill-opacity="0.15"
       stroke="#0015CE"
       id="path32" />
    <path
       d="M450.243 117.804C450.243 115.042 452.482 112.804 455.243 112.804H475.243C478.005 112.804 480.243 115.042 480.243 117.804V137.804C480.243 140.565 478.005 142.804 475.243 142.804H455.243C452.482 142.804 450.243 140.565 450.243 137.804V117.804Z"
       fill="#0015CE"
       fill-opacity="0.1"
       id="path34" />
    <path
       d="M457.631 132.304V131.044L461.047 127.558C461.878 126.727 462.293 126.008 462.293 125.402C462.293 124.926 462.149 124.557 461.859 124.296C461.579 124.025 461.22 123.89 460.781 123.89C459.96 123.89 459.353 124.296 458.961 125.108L457.603 124.31C457.911 123.656 458.345 123.162 458.905 122.826C459.465 122.49 460.086 122.322 460.767 122.322C461.626 122.322 462.363 122.592 462.979 123.134C463.595 123.675 463.903 124.412 463.903 125.346C463.903 126.344 463.348 127.408 462.237 128.538L460.025 130.75H464.085V132.304H457.631ZM471.709 131.1C471.037 132.024 470.094 132.486 468.881 132.486C467.667 132.486 466.72 132.024 466.039 131.1C465.367 130.176 465.031 128.944 465.031 127.404C465.031 125.864 465.367 124.632 466.039 123.708C466.72 122.784 467.667 122.322 468.881 122.322C470.094 122.322 471.037 122.784 471.709 123.708C472.39 124.632 472.731 125.864 472.731 127.404C472.731 128.944 472.39 130.176 471.709 131.1ZM468.881 130.918C469.609 130.918 470.164 130.614 470.547 130.008C470.929 129.401 471.121 128.533 471.121 127.404C471.121 126.274 470.929 125.406 470.547 124.8C470.164 124.193 469.609 123.89 468.881 123.89C468.162 123.89 467.607 124.193 467.215 124.8C466.832 125.406 466.641 126.274 466.641 127.404C466.641 128.533 466.832 129.401 467.215 130.008C467.607 130.614 468.162 130.918 468.881 130.918Z"
       fill="#0015CE"
       id="path36" />
    <path
       d="M455.243 113.804H475.243V111.804H455.243V113.804ZM479.243 117.804V137.804H481.243V117.804H479.243ZM475.243 141.804H455.243V143.804H475.243V141.804ZM451.243 137.804V117.804H449.243V137.804H451.243ZM455.243 141.804C453.034 141.804 451.243 140.013 451.243 137.804H449.243C449.243 141.117 451.93 143.804 455.243 143.804V141.804ZM479.243 137.804C479.243 140.013 477.452 141.804 475.243 141.804V143.804C478.557 143.804 481.243 141.117 481.243 137.804H479.243ZM475.243 113.804C477.452 113.804 479.243 115.595 479.243 117.804H481.243C481.243 114.49 478.557 111.804 475.243 111.804V113.804ZM455.243 111.804C451.93 111.804 449.243 114.49 449.243 117.804H451.243C451.243 115.595 453.034 113.804 455.243 113.804V111.804Z"
       fill="#0015CE"
       id="path38" />
    <path
       d="M472.743 149.304C473.019 149.304 473.243 149.528 473.243 149.804L473.243 157.304C473.243 161.722 469.662 165.304 465.243 165.304C460.825 165.304 457.243 161.722 457.243 157.304L457.243 149.804C457.243 149.528 457.467 149.304 457.743 149.304L472.743 149.304Z"
       fill="#0015CE"
       fill-opacity="0.15"
       stroke="#0015CE"
       id="path40" />
    <path
       d="M497.743 106.304C497.467 106.304 497.243 106.08 497.243 105.804L497.243 99.8037C497.243 94.557 501.497 90.3037 506.743 90.3037L517.743 90.3037C522.99 90.3037 527.243 94.557 527.243 99.8037L527.243 105.804C527.243 106.08 527.019 106.304 526.743 106.304L497.743 106.304Z"
       fill="#0015CE"
       fill-opacity="0.15"
       stroke="#0015CE"
       id="path42" />
    <path
       d="M497.243 117.804C497.243 115.042 499.482 112.804 502.243 112.804H522.243C525.005 112.804 527.243 115.042 527.243 117.804V137.804C527.243 140.565 525.005 142.804 522.243 142.804H502.243C499.482 142.804 497.243 140.565 497.243 137.804V117.804Z"
       fill="#0015CE"
       fill-opacity="0.1"
       id="path44" />
    <path
       d="M506.436 132.304V131.044L509.852 127.558C510.683 126.727 511.098 126.008 511.098 125.402C511.098 124.926 510.953 124.557 510.664 124.296C510.384 124.025 510.025 123.89 509.586 123.89C508.765 123.89 508.158 124.296 507.766 125.108L506.408 124.31C506.716 123.656 507.15 123.162 507.71 122.826C508.27 122.49 508.891 122.322 509.572 122.322C510.431 122.322 511.168 122.592 511.784 123.134C512.4 123.675 512.708 124.412 512.708 125.346C512.708 126.344 512.153 127.408 511.042 128.538L508.83 130.75H512.89V132.304H506.436ZM516.034 122.504H517.434V132.304H515.824V124.226L513.85 124.786L513.458 123.414L516.034 122.504Z"
       fill="#0015CE"
       id="path46" />
    <path
       d="M502.243 113.804H522.243V111.804H502.243V113.804ZM526.243 117.804V137.804H528.243V117.804H526.243ZM522.243 141.804H502.243V143.804H522.243V141.804ZM498.243 137.804V117.804H496.243V137.804H498.243ZM502.243 141.804C500.034 141.804 498.243 140.013 498.243 137.804H496.243C496.243 141.117 498.93 143.804 502.243 143.804V141.804ZM526.243 137.804C526.243 140.013 524.452 141.804 522.243 141.804V143.804C525.557 143.804 528.243 141.117 528.243 137.804H526.243ZM522.243 113.804C524.452 113.804 526.243 115.595 526.243 117.804H528.243C528.243 114.49 525.557 111.804 522.243 111.804V113.804ZM502.243 111.804C498.93 111.804 496.243 114.49 496.243 117.804H498.243C498.243 115.595 500.034 113.804 502.243 113.804V111.804Z"
       fill="#0015CE"
       id="path48" />
    <path
       d="M519.743 149.304C520.019 149.304 520.243 149.528 520.243 149.804L520.243 157.304C520.243 161.722 516.662 165.304 512.243 165.304C507.825 165.304 504.243 161.722 504.243 157.304L504.243 149.804C504.243 149.528 504.467 149.304 504.743 149.304L519.743 149.304Z"
       fill="#0015CE"
       fill-opacity="0.15"
       stroke="#0015CE"
       id="path50" />
    <path
       d="M544.743 106.304C544.467 106.304 544.243 106.08 544.243 105.804L544.243 99.8037C544.243 94.557 548.497 90.3037 553.743 90.3037L564.743 90.3037C569.99 90.3037 574.243 94.557 574.243 99.8037L574.243 105.804C574.243 106.08 574.019 106.304 573.743 106.304L544.743 106.304Z"
       fill="#0015CE"
       fill-opacity="0.15"
       stroke="#0015CE"
       id="path52" />
    <path
       d="M544.243 117.804C544.243 115.042 546.482 112.804 549.243 112.804H569.243C572.005 112.804 574.243 115.042 574.243 117.804V137.804C574.243 140.565 572.005 142.804 569.243 142.804H549.243C546.482 142.804 544.243 140.565 544.243 137.804V117.804Z"
       fill="#0015CE"
       fill-opacity="0.1"
       id="path54" />
    <path
       d="M552.267 132.304V131.044L555.683 127.558C556.514 126.727 556.929 126.008 556.929 125.402C556.929 124.926 556.784 124.557 556.495 124.296C556.215 124.025 555.856 123.89 555.417 123.89C554.596 123.89 553.989 124.296 553.597 125.108L552.239 124.31C552.547 123.656 552.981 123.162 553.541 122.826C554.101 122.49 554.722 122.322 555.403 122.322C556.262 122.322 556.999 122.592 557.615 123.134C558.231 123.675 558.539 124.412 558.539 125.346C558.539 126.344 557.984 127.408 556.873 128.538L554.661 130.75H558.721V132.304H552.267ZM559.677 132.304V131.044L563.093 127.558C563.924 126.727 564.339 126.008 564.339 125.402C564.339 124.926 564.195 124.557 563.905 124.296C563.625 124.025 563.266 123.89 562.827 123.89C562.006 123.89 561.399 124.296 561.007 125.108L559.649 124.31C559.957 123.656 560.391 123.162 560.951 122.826C561.511 122.49 562.132 122.322 562.813 122.322C563.672 122.322 564.409 122.592 565.025 123.134C565.641 123.675 565.949 124.412 565.949 125.346C565.949 126.344 565.394 127.408 564.283 128.538L562.071 130.75H566.131V132.304H559.677Z"
       fill="#0015CE"
       id="path56" />
    <path
       d="M549.243 113.804H569.243V111.804H549.243V113.804ZM573.243 117.804V137.804H575.243V117.804H573.243ZM569.243 141.804H549.243V143.804H569.243V141.804ZM545.243 137.804V117.804H543.243V137.804H545.243ZM549.243 141.804C547.034 141.804 545.243 140.013 545.243 137.804H543.243C543.243 141.117 545.93 143.804 549.243 143.804V141.804ZM573.243 137.804C573.243 140.013 571.452 141.804 569.243 141.804V143.804C572.557 143.804 575.243 141.117 575.243 137.804H573.243ZM569.243 113.804C571.452 113.804 573.243 115.595 573.243 117.804H575.243C575.243 114.49 572.557 111.804 569.243 111.804V113.804ZM549.243 111.804C545.93 111.804 543.243 114.49 543.243 117.804H545.243C545.243 115.595 547.034 113.804 549.243 113.804V111.804Z"
       fill="#0015CE"
       id="path58" />
    <path
       d="M566.743 149.304C567.019 149.304 567.243 149.528 567.243 149.804L567.243 157.304C567.243 161.722 563.662 165.304 559.243 165.304C554.825 165.304 551.243 161.722 551.243 157.304L551.243 149.804C551.243 149.528 551.467 149.304 551.743 149.304L566.743 149.304Z"
       fill="#0015CE"
       fill-opacity="0.15"
       stroke="#0015CE"
       id="path60" />
    <rect
       x="135.434"
       y="98.3037"
       width="77.4709"
       height="97.1692"
       rx="20"
       fill="#F0F1F8"
       id="rect62" />
    <rect
       x="182.905"
       y="125.187"
       width="29"
       height="29"
       rx="4.5"
       transform="rotate(45 182.905 125.187)"
       fill="#0015CE"
       fill-opacity="0.1"
       id="rect64" />
    <path
       d="M179.135 140.393H180.535V150.193H178.925V142.115L176.951 142.675L176.559 141.303L179.135 140.393ZM187.508 145.097C188.469 145.629 188.95 146.422 188.95 147.477C188.95 148.373 188.637 149.082 188.012 149.605C187.386 150.118 186.556 150.375 185.52 150.375C184.484 150.375 183.648 150.118 183.014 149.605C182.388 149.082 182.076 148.373 182.076 147.477C182.076 146.973 182.202 146.516 182.454 146.105C182.706 145.685 183.06 145.349 183.518 145.097C182.78 144.612 182.412 143.921 182.412 143.025C182.412 142.129 182.71 141.438 183.308 140.953C183.905 140.458 184.642 140.211 185.52 140.211C186.388 140.211 187.12 140.458 187.718 140.953C188.324 141.438 188.628 142.129 188.628 143.025C188.628 143.921 188.254 144.612 187.508 145.097ZM185.52 141.737C185.081 141.737 184.722 141.854 184.442 142.087C184.162 142.32 184.022 142.656 184.022 143.095C184.022 143.515 184.162 143.846 184.442 144.089C184.731 144.332 185.09 144.453 185.52 144.453C185.94 144.453 186.294 144.332 186.584 144.089C186.873 143.846 187.018 143.515 187.018 143.095C187.018 142.656 186.873 142.32 186.584 142.087C186.304 141.854 185.949 141.737 185.52 141.737ZM185.52 148.849C186.061 148.849 186.5 148.718 186.836 148.457C187.172 148.186 187.34 147.808 187.34 147.323C187.34 146.838 187.172 146.464 186.836 146.203C186.5 145.932 186.061 145.797 185.52 145.797C184.969 145.797 184.526 145.932 184.19 146.203C183.854 146.464 183.686 146.838 183.686 147.323C183.686 147.808 183.854 148.186 184.19 148.457C184.526 148.718 184.969 148.849 185.52 148.849Z"
       fill="#0015CE"
       id="path66" />
    <rect
       x="182.905"
       y="125.187"
       width="29"
       height="29"
       rx="4.5"
       transform="rotate(45 182.905 125.187)"
       stroke="#0015CE"
       id="rect68" />
    <path
       d="M162.809 157.492C162.613 157.297 162.297 157.297 162.102 157.492L156.798 162.795C153.674 165.919 153.674 170.985 156.798 174.109C159.922 177.233 164.988 177.233 168.112 174.109L173.415 168.806C173.61 168.61 173.61 168.294 173.415 168.098L162.809 157.492Z"
       fill="#0015CE"
       fill-opacity="0.15"
       stroke="#0015CE"
       id="path70" />
    <path
       d="M162.815 136.285C162.62 136.48 162.303 136.48 162.108 136.285L156.805 130.981C153.68 127.857 153.68 122.792 156.805 119.668C159.929 116.543 164.994 116.543 168.118 119.668L173.422 124.971C173.617 125.166 173.617 125.483 173.422 125.678L162.815 136.285Z"
       fill="#0015CE"
       fill-opacity="0.15"
       stroke="#0015CE"
       id="path72" />
    <rect
       x="266.055"
       y="175.152"
       width="113.945"
       height="114.652"
       rx="56.9724"
       fill="#F0F1F8"
       id="rect74" />
    <path
       d="M331.778 206.652C332.054 206.652 332.278 206.428 332.278 206.152L332.278 198.652C332.278 194.234 328.696 190.652 324.278 190.652C319.859 190.652 316.278 194.234 316.278 198.652L316.278 206.152C316.278 206.428 316.501 206.652 316.778 206.652L331.778 206.652Z"
       fill="#0015CE"
       fill-opacity="0.15"
       stroke="#0015CE"
       id="path76" />
    <path
       d="M331.778 258.304C332.054 258.304 332.278 258.528 332.278 258.804L332.278 266.304C332.278 270.722 328.696 274.304 324.278 274.304C319.859 274.304 316.278 270.722 316.278 266.304L316.278 258.804C316.278 258.528 316.501 258.304 316.778 258.304L331.778 258.304Z"
       fill="#0015CE"
       fill-opacity="0.15"
       stroke="#0015CE"
       id="path78" />
    <path
       d="M303.345 214.094C303.483 213.855 303.401 213.549 303.162 213.411L296.666 209.661C292.84 207.452 287.947 208.763 285.738 212.589C283.529 216.416 284.84 221.308 288.666 223.517L295.162 227.267C295.401 227.406 295.707 227.324 295.845 227.084L303.345 214.094Z"
       fill="#0015CE"
       fill-opacity="0.15"
       stroke="#0015CE"
       id="path80" />
    <path
       d="M303.345 255.973C303.483 256.212 303.401 256.518 303.162 256.656L296.666 260.406C292.84 262.615 287.947 261.304 285.738 257.478C283.529 253.652 284.84 248.759 288.666 246.55L295.162 242.8C295.401 242.662 295.707 242.744 295.845 242.983L303.345 255.973Z"
       fill="#0015CE"
       fill-opacity="0.15"
       stroke="#0015CE"
       id="path82" />
    <path
       d="M350.211 227.084C350.349 227.323 350.654 227.405 350.894 227.267L357.389 223.517C361.215 221.308 362.526 216.415 360.317 212.589C358.108 208.763 353.215 207.452 349.389 209.661L342.894 213.411C342.654 213.549 342.573 213.855 342.711 214.094L350.211 227.084Z"
       fill="#0015CE"
       fill-opacity="0.15"
       stroke="#0015CE"
       id="path84" />
    <path
       d="M350.211 241.594C350.349 241.355 350.654 241.273 350.894 241.411L357.389 245.161C361.215 247.37 362.526 252.263 360.317 256.089C358.108 259.916 353.215 261.227 349.389 259.017L342.894 255.267C342.654 255.129 342.573 254.824 342.711 254.584L350.211 241.594Z"
       fill="#0015CE"
       fill-opacity="0.15"
       stroke="#0015CE"
       id="path86" />
    <path
       d="M303.778 232.478C303.778 221.432 312.732 212.478 323.778 212.478C334.823 212.478 343.778 221.432 343.778 232.478C343.778 243.524 334.823 252.478 323.778 252.478C312.732 252.478 303.778 243.524 303.778 232.478Z"
       fill="#0015CE"
       fill-opacity="0.1"
       id="path88" />
    <path
       d="M320.961 231.182C321.671 231.35 322.245 231.681 322.683 232.176C323.131 232.661 323.355 233.273 323.355 234.01C323.355 234.99 323.024 235.76 322.361 236.32C321.699 236.88 320.887 237.16 319.925 237.16C319.179 237.16 318.507 236.987 317.909 236.642C317.321 236.297 316.897 235.793 316.635 235.13L318.007 234.332C318.297 235.172 318.936 235.592 319.925 235.592C320.485 235.592 320.929 235.452 321.255 235.172C321.582 234.883 321.745 234.495 321.745 234.01C321.745 233.525 321.582 233.142 321.255 232.862C320.929 232.582 320.485 232.442 319.925 232.442H319.561L318.917 231.476L321.031 228.69H316.929V227.178H322.949V228.55L320.961 231.182ZM328.385 231.182C329.095 231.35 329.669 231.681 330.107 232.176C330.555 232.661 330.779 233.273 330.779 234.01C330.779 234.99 330.448 235.76 329.785 236.32C329.123 236.88 328.311 237.16 327.349 237.16C326.603 237.16 325.931 236.987 325.333 236.642C324.745 236.297 324.321 235.793 324.059 235.13L325.431 234.332C325.721 235.172 326.36 235.592 327.349 235.592C327.909 235.592 328.353 235.452 328.679 235.172C329.006 234.883 329.169 234.495 329.169 234.01C329.169 233.525 329.006 233.142 328.679 232.862C328.353 232.582 327.909 232.442 327.349 232.442H326.985L326.341 231.476L328.455 228.69H324.353V227.178H330.373V228.55L328.385 231.182Z"
       fill="#0015CE"
       id="path90" />
    <path
       d="M323.778 251.478C313.284 251.478 304.778 242.971 304.778 232.478H302.778C302.778 244.076 312.18 253.478 323.778 253.478V251.478ZM342.778 232.478C342.778 242.971 334.271 251.478 323.778 251.478V253.478C335.376 253.478 344.778 244.076 344.778 232.478H342.778ZM323.778 213.478C334.271 213.478 342.778 221.985 342.778 232.478H344.778C344.778 220.88 335.376 211.478 323.778 211.478V213.478ZM323.778 211.478C312.18 211.478 302.778 220.88 302.778 232.478H304.778C304.778 221.985 313.284 213.478 323.778 213.478V211.478Z"
       fill="#0015CE"
       id="path92" />
    <rect
       x="453.743"
       y="189.304"
       width="134"
       height="108"
       rx="20"
       fill="#F0F1F8"
       id="rect94" />
    <path
       d="M486.243 220.804C486.519 220.804 486.743 220.58 486.743 220.304L486.743 212.804C486.743 208.385 483.162 204.804 478.743 204.804C474.325 204.804 470.743 208.385 470.743 212.804L470.743 220.304C470.743 220.58 470.967 220.804 471.243 220.804L486.243 220.804Z"
       fill="#DEE0ED"
       stroke="#B6B5D3"
       id="path96" />
    <path
       d="M514.243 220.804C514.519 220.804 514.743 220.58 514.743 220.304L514.743 212.804C514.743 208.385 511.162 204.804 506.743 204.804C502.325 204.804 498.743 208.385 498.743 212.804L498.743 220.304C498.743 220.58 498.967 220.804 499.243 220.804L514.243 220.804Z"
       fill="#0015CE"
       fill-opacity="0.15"
       stroke="#0015CE"
       id="path98" />
    <path
       d="M542.243 220.804C542.519 220.804 542.743 220.58 542.743 220.304L542.743 212.804C542.743 208.385 539.162 204.804 534.743 204.804C530.325 204.804 526.743 208.385 526.743 212.804L526.743 220.304C526.743 220.58 526.967 220.804 527.243 220.804L542.243 220.804Z"
       fill="#0015CE"
       fill-opacity="0.15"
       stroke="#0015CE"
       id="path100" />
    <path
       d="M570.243 220.804C570.519 220.804 570.743 220.58 570.743 220.304L570.743 212.804C570.743 208.385 567.162 204.804 562.743 204.804C558.325 204.804 554.743 208.385 554.743 212.804L554.743 220.304C554.743 220.58 554.967 220.804 555.243 220.804L570.243 220.804Z"
       fill="#0015CE"
       fill-opacity="0.15"
       stroke="#0015CE"
       id="path102" />
    <path
       d="M468.743 233.304C468.743 230.542 470.982 228.304 473.743 228.304H567.743C570.505 228.304 572.743 230.542 572.743 233.304V253.304C572.743 256.065 570.505 258.304 567.743 258.304H473.743C470.982 258.304 468.743 256.065 468.743 253.304V233.304Z"
       fill="#0015CE"
       fill-opacity="0.1"
       id="path104" />
    <path
       d="M517.51 242.008C518.219 242.176 518.793 242.507 519.232 243.002C519.68 243.487 519.904 244.098 519.904 244.836C519.904 245.816 519.573 246.586 518.91 247.146C518.247 247.706 517.435 247.986 516.474 247.986C515.727 247.986 515.055 247.813 514.458 247.468C513.87 247.122 513.445 246.618 513.184 245.956L514.556 245.158C514.845 245.998 515.485 246.418 516.474 246.418C517.034 246.418 517.477 246.278 517.804 245.998C518.131 245.708 518.294 245.321 518.294 244.836C518.294 244.35 518.131 243.968 517.804 243.688C517.477 243.408 517.034 243.268 516.474 243.268H516.11L515.466 242.302L517.58 239.516H513.478V238.004H519.498V239.376L517.51 242.008ZM528.413 244.542V246.04H527.293V247.804H525.669V246.04H520.853V244.542L524.227 238.004H525.977L522.603 244.542H525.669V241.994H527.293V244.542H528.413Z"
       fill="#0015CE"
       id="path106" />
    <path
       d="M473.743 229.304H567.743V227.304H473.743V229.304ZM571.743 233.304V253.304H573.743V233.304H571.743ZM567.743 257.304H473.743V259.304H567.743V257.304ZM469.743 253.304V233.304H467.743V253.304H469.743ZM473.743 257.304C471.534 257.304 469.743 255.513 469.743 253.304H467.743C467.743 256.617 470.43 259.304 473.743 259.304V257.304ZM571.743 253.304C571.743 255.513 569.952 257.304 567.743 257.304V259.304C571.057 259.304 573.743 256.617 573.743 253.304H571.743ZM567.743 229.304C569.952 229.304 571.743 231.095 571.743 233.304H573.743C573.743 229.99 571.057 227.304 567.743 227.304V229.304ZM473.743 227.304C470.43 227.304 467.743 229.99 467.743 233.304H469.743C469.743 231.095 471.534 229.304 473.743 229.304V227.304Z"
       fill="#0015CE"
       id="path108" />
    <path
       d="M486.243 265.804C486.519 265.804 486.743 266.028 486.743 266.304L486.743 273.804C486.743 278.222 483.162 281.804 478.743 281.804C474.325 281.804 470.743 278.222 470.743 273.804L470.743 266.304C470.743 266.028 470.967 265.804 471.243 265.804L486.243 265.804Z"
       fill="#0015CE"
       fill-opacity="0.15"
       stroke="#0015CE"
       id="path110" />
    <path
       d="M514.243 265.804C514.519 265.804 514.743 266.028 514.743 266.304L514.743 273.804C514.743 278.222 511.162 281.804 506.743 281.804C502.325 281.804 498.743 278.222 498.743 273.804L498.743 266.304C498.743 266.028 498.967 265.804 499.243 265.804L514.243 265.804Z"
       fill="#DEE0ED"
       stroke="#B6B5D3"
       id="path112" />
    <path
       d="M542.243 265.804C542.519 265.804 542.743 266.028 542.743 266.304L542.743 273.804C542.743 278.222 539.162 281.804 534.743 281.804C530.325 281.804 526.743 278.222 526.743 273.804L526.743 266.304C526.743 266.028 526.967 265.804 527.243 265.804L542.243 265.804Z"
       fill="#0015CE"
       fill-opacity="0.15"
       stroke="#0015CE"
       id="path114" />
    <path
       d="M570.243 265.804C570.519 265.804 570.743 266.028 570.743 266.304L570.743 273.804C570.743 278.222 567.162 281.804 562.743 281.804C558.325 281.804 554.743 278.222 554.743 273.804L554.743 266.304C554.743 266.028 554.967 265.804 555.243 265.804L570.243 265.804Z"
       fill="#0015CE"
       fill-opacity="0.15"
       stroke="#0015CE"
       id="path116" />
    <path
       d="M243 325.804C243 314.758 251.954 305.804 263 305.804H522C533.046 305.804 542 314.758 542 325.804V411.804H243V325.804Z"
       fill="#F0F1F8"
       id="path118" />
    <path
       d="M281 337.304C281.276 337.304 281.5 337.08 281.5 336.804L281.5 329.304C281.5 324.885 277.918 321.304 273.5 321.304C269.082 321.304 265.5 324.885 265.5 329.304L265.5 336.804C265.5 337.08 265.724 337.304 266 337.304L281 337.304Z"
       fill="#0015CE"
       fill-opacity="0.15"
       stroke="#0015CE"
       id="path120" />
    <path
       d="M258.5 348.804C258.5 346.042 260.739 343.804 263.5 343.804H283.5C286.261 343.804 288.5 346.042 288.5 348.804V368.804C288.5 371.565 286.261 373.804 283.5 373.804H263.5C260.739 373.804 258.5 371.565 258.5 368.804V348.804Z"
       fill="#0015CE"
       fill-opacity="0.1"
       id="path122" />
    <path
       d="M266.517 363.304V362.044L269.933 358.558C270.764 357.727 271.179 357.008 271.179 356.402C271.179 355.926 271.034 355.557 270.745 355.296C270.465 355.025 270.106 354.89 269.667 354.89C268.846 354.89 268.239 355.296 267.847 356.108L266.489 355.31C266.797 354.656 267.231 354.162 267.791 353.826C268.351 353.49 268.972 353.322 269.653 353.322C270.512 353.322 271.249 353.592 271.865 354.134C272.481 354.675 272.789 355.412 272.789 356.346C272.789 357.344 272.234 358.408 271.123 359.538L268.911 361.75H272.971V363.304H266.517ZM277.11 356.794C278.127 356.794 278.958 357.106 279.602 357.732C280.246 358.348 280.568 359.15 280.568 360.14C280.568 361.129 280.246 361.936 279.602 362.562C278.958 363.178 278.127 363.486 277.11 363.486C276.083 363.486 275.248 363.178 274.604 362.562C273.96 361.936 273.638 361.129 273.638 360.14C273.638 359.393 273.834 358.735 274.226 358.166L277.334 353.504H279.168L276.928 356.794H277.11ZM277.11 361.96C277.651 361.96 278.095 361.796 278.44 361.47C278.785 361.134 278.958 360.69 278.958 360.14C278.958 359.589 278.785 359.15 278.44 358.824C278.095 358.488 277.651 358.32 277.11 358.32C276.559 358.32 276.111 358.488 275.766 358.824C275.421 359.15 275.248 359.589 275.248 360.14C275.248 360.69 275.421 361.134 275.766 361.47C276.111 361.796 276.559 361.96 277.11 361.96Z"
       fill="#0015CE"
       id="path124" />
    <path
       d="M263.5 344.804H283.5V342.804H263.5V344.804ZM287.5 348.804V368.804H289.5V348.804H287.5ZM283.5 372.804H263.5V374.804H283.5V372.804ZM259.5 368.804V348.804H257.5V368.804H259.5ZM263.5 372.804C261.291 372.804 259.5 371.013 259.5 368.804H257.5C257.5 372.117 260.186 374.804 263.5 374.804V372.804ZM287.5 368.804C287.5 371.013 285.709 372.804 283.5 372.804V374.804C286.814 374.804 289.5 372.117 289.5 368.804H287.5ZM283.5 344.804C285.709 344.804 287.5 346.595 287.5 348.804H289.5C289.5 345.49 286.814 342.804 283.5 342.804V344.804ZM263.5 342.804C260.186 342.804 257.5 345.49 257.5 348.804H259.5C259.5 346.595 261.291 344.804 263.5 344.804V342.804Z"
       fill="#0015CE"
       id="path126" />
    <path
       d="M259 380.304C258.724 380.304 258.5 380.528 258.5 380.804L258.5 386.804C258.5 392.05 262.753 396.304 268 396.304L279 396.304C284.247 396.304 288.5 392.05 288.5 386.804L288.5 380.804C288.5 380.528 288.276 380.304 288 380.304L259 380.304Z"
       fill="#0015CE"
       fill-opacity="0.15"
       stroke="#0015CE"
       id="path128" />
    <path
       d="M329 337.304C329.276 337.304 329.5 337.08 329.5 336.804L329.5 329.304C329.5 324.885 325.918 321.304 321.5 321.304C317.082 321.304 313.5 324.885 313.5 329.304L313.5 336.804C313.5 337.08 313.724 337.304 314 337.304L329 337.304Z"
       fill="#0015CE"
       fill-opacity="0.15"
       stroke="#0015CE"
       id="path130" />
    <path
       d="M352 337.304C352.276 337.304 352.5 337.08 352.5 336.804L352.5 329.304C352.5 324.885 348.918 321.304 344.5 321.304C340.082 321.304 336.5 324.885 336.5 329.304L336.5 336.804C336.5 337.08 336.724 337.304 337 337.304L352 337.304Z"
       fill="#0015CE"
       fill-opacity="0.15"
       stroke="#0015CE"
       id="path132" />
    <path
       d="M305 348.804C305 346.042 307.239 343.804 310 343.804H356C358.761 343.804 361 346.042 361 348.804V368.804C361 371.565 358.761 373.804 356 373.804H310C307.239 373.804 305 371.565 305 368.804V348.804Z"
       fill="#0015CE"
       fill-opacity="0.1"
       id="path134" />
    <path
       d="M326.434 363.304V362.044L329.85 358.558C330.681 357.727 331.096 357.008 331.096 356.402C331.096 355.926 330.951 355.557 330.662 355.296C330.382 355.025 330.023 354.89 329.584 354.89C328.763 354.89 328.156 355.296 327.764 356.108L326.406 355.31C326.714 354.656 327.148 354.162 327.708 353.826C328.268 353.49 328.889 353.322 329.57 353.322C330.429 353.322 331.166 353.592 331.782 354.134C332.398 354.675 332.706 355.412 332.706 356.346C332.706 357.344 332.151 358.408 331.04 359.538L328.828 361.75H332.888V363.304H326.434ZM333.347 353.504H339.577V354.904L336.133 363.304H334.439L337.827 355.044H333.347V353.504Z"
       fill="#0015CE"
       id="path136" />
    <path
       d="M310 344.804H356V342.804H310V344.804ZM360 348.804V368.804H362V348.804H360ZM356 372.804H310V374.804H356V372.804ZM306 368.804V348.804H304V368.804H306ZM310 372.804C307.791 372.804 306 371.013 306 368.804H304C304 372.117 306.686 374.804 310 374.804V372.804ZM360 368.804C360 371.013 358.209 372.804 356 372.804V374.804C359.314 374.804 362 372.117 362 368.804H360ZM356 344.804C358.209 344.804 360 346.595 360 348.804H362C362 345.49 359.314 342.804 356 342.804V344.804ZM310 342.804C306.686 342.804 304 345.49 304 348.804H306C306 346.595 307.791 344.804 310 344.804V342.804Z"
       fill="#0015CE"
       id="path138" />
    <path
       d="M314 380.304C313.724 380.304 313.5 380.528 313.5 380.804L313.5 386.804C313.5 392.05 317.753 396.304 323 396.304L343 396.304C348.247 396.304 352.5 392.05 352.5 386.804L352.5 380.804C352.5 380.528 352.276 380.304 352 380.304L314 380.304Z"
       fill="#0015CE"
       fill-opacity="0.15"
       stroke="#0015CE"
       id="path140" />
    <path
       d="M400 337.304C400.276 337.304 400.5 337.08 400.5 336.804L400.5 329.304C400.5 324.885 396.918 321.304 392.5 321.304C388.082 321.304 384.5 324.885 384.5 329.304L384.5 336.804C384.5 337.08 384.724 337.304 385 337.304L400 337.304Z"
       fill="#0015CE"
       fill-opacity="0.15"
       stroke="#0015CE"
       id="path142" />
    <path
       d="M377.5 348.804C377.5 346.042 379.739 343.804 382.5 343.804H402.5C405.261 343.804 407.5 346.042 407.5 348.804V368.804C407.5 371.565 405.261 373.804 402.5 373.804H382.5C379.739 373.804 377.5 371.565 377.5 368.804V348.804Z"
       fill="#0015CE"
       fill-opacity="0.1"
       id="path144" />
    <path
       d="M385.449 363.304V362.044L388.865 358.558C389.695 357.727 390.111 357.008 390.111 356.402C390.111 355.926 389.966 355.557 389.677 355.296C389.397 355.025 389.037 354.89 388.599 354.89C387.777 354.89 387.171 355.296 386.779 356.108L385.421 355.31C385.729 354.656 386.163 354.162 386.723 353.826C387.283 353.49 387.903 353.322 388.585 353.322C389.443 353.322 390.181 353.592 390.797 354.134C391.413 354.675 391.721 355.412 391.721 356.346C391.721 357.344 391.165 358.408 390.055 359.538L387.843 361.75H391.903V363.304H385.449ZM399.636 356.668C399.636 357.414 399.44 358.072 399.048 358.642L395.954 363.304H394.106L396.346 360.014H396.178C395.161 360.014 394.326 359.706 393.672 359.09C393.028 358.464 392.706 357.657 392.706 356.668C392.706 355.678 393.028 354.876 393.672 354.26C394.326 353.634 395.161 353.322 396.178 353.322C397.196 353.322 398.026 353.634 398.67 354.26C399.314 354.876 399.636 355.678 399.636 356.668ZM394.316 356.668C394.316 357.209 394.489 357.648 394.834 357.984C395.189 358.32 395.637 358.488 396.178 358.488C396.72 358.488 397.163 358.324 397.508 357.998C397.854 357.662 398.026 357.218 398.026 356.668C398.026 356.117 397.854 355.678 397.508 355.352C397.163 355.016 396.72 354.848 396.178 354.848C395.637 354.848 395.189 355.016 394.834 355.352C394.489 355.678 394.316 356.117 394.316 356.668Z"
       fill="#0015CE"
       id="path146" />
    <path
       d="M382.5 344.804H402.5V342.804H382.5V344.804ZM406.5 348.804V368.804H408.5V348.804H406.5ZM402.5 372.804H382.5V374.804H402.5V372.804ZM378.5 368.804V348.804H376.5V368.804H378.5ZM382.5 372.804C380.291 372.804 378.5 371.013 378.5 368.804H376.5C376.5 372.117 379.186 374.804 382.5 374.804V372.804ZM406.5 368.804C406.5 371.013 404.709 372.804 402.5 372.804V374.804C405.814 374.804 408.5 372.117 408.5 368.804H406.5ZM402.5 344.804C404.709 344.804 406.5 346.595 406.5 348.804H408.5C408.5 345.49 405.814 342.804 402.5 342.804V344.804ZM382.5 342.804C379.186 342.804 376.5 345.49 376.5 348.804H378.5C378.5 346.595 380.291 344.804 382.5 344.804V342.804Z"
       fill="#0015CE"
       id="path148" />
    <path
       d="M378 380.304C377.724 380.304 377.5 380.528 377.5 380.804L377.5 386.804C377.5 392.05 381.753 396.304 387 396.304L398 396.304C403.247 396.304 407.5 392.05 407.5 386.804L407.5 380.804C407.5 380.528 407.276 380.304 407 380.304L378 380.304Z"
       fill="#0015CE"
       fill-opacity="0.15"
       stroke="#0015CE"
       id="path150" />
    <path
       d="M448 337.304C448.276 337.304 448.5 337.08 448.5 336.804L448.5 329.304C448.5 324.885 444.918 321.304 440.5 321.304C436.082 321.304 432.5 324.885 432.5 329.304L432.5 336.804C432.5 337.08 432.724 337.304 433 337.304L448 337.304Z"
       fill="#0015CE"
       fill-opacity="0.15"
       stroke="#0015CE"
       id="path152" />
    <path
       d="M471 337.304C471.276 337.304 471.5 337.08 471.5 336.804L471.5 329.304C471.5 324.885 467.918 321.304 463.5 321.304C459.082 321.304 455.5 324.885 455.5 329.304L455.5 336.804C455.5 337.08 455.724 337.304 456 337.304L471 337.304Z"
       fill="#0015CE"
       fill-opacity="0.15"
       stroke="#0015CE"
       id="path154" />
    <path
       d="M424 348.804C424 346.042 426.239 343.804 429 343.804H475C477.761 343.804 480 346.042 480 348.804V368.804C480 371.565 477.761 373.804 475 373.804H429C426.239 373.804 424 371.565 424 368.804V348.804Z"
       fill="#0015CE"
       fill-opacity="0.1"
       id="path156" />
    <path
       d="M448.487 357.508C449.196 357.676 449.77 358.007 450.209 358.502C450.657 358.987 450.881 359.598 450.881 360.336C450.881 361.316 450.549 362.086 449.887 362.646C449.224 363.206 448.412 363.486 447.451 363.486C446.704 363.486 446.032 363.313 445.435 362.968C444.847 362.622 444.422 362.118 444.161 361.456L445.533 360.658C445.822 361.498 446.461 361.918 447.451 361.918C448.011 361.918 448.454 361.778 448.781 361.498C449.107 361.208 449.271 360.821 449.271 360.336C449.271 359.85 449.107 359.468 448.781 359.188C448.454 358.908 448.011 358.768 447.451 358.768H447.087L446.443 357.802L448.557 355.016H444.455V353.504H450.475V354.876L448.487 357.508ZM458.609 362.1C457.937 363.024 456.994 363.486 455.781 363.486C454.568 363.486 453.62 363.024 452.939 362.1C452.267 361.176 451.931 359.944 451.931 358.404C451.931 356.864 452.267 355.632 452.939 354.708C453.62 353.784 454.568 353.322 455.781 353.322C456.994 353.322 457.937 353.784 458.609 354.708C459.29 355.632 459.631 356.864 459.631 358.404C459.631 359.944 459.29 361.176 458.609 362.1ZM455.781 361.918C456.509 361.918 457.064 361.614 457.447 361.008C457.83 360.401 458.021 359.533 458.021 358.404C458.021 357.274 457.83 356.406 457.447 355.8C457.064 355.193 456.509 354.89 455.781 354.89C455.062 354.89 454.507 355.193 454.115 355.8C453.732 356.406 453.541 357.274 453.541 358.404C453.541 359.533 453.732 360.401 454.115 361.008C454.507 361.614 455.062 361.918 455.781 361.918Z"
       fill="#0015CE"
       id="path158" />
    <path
       d="M429 344.804H475V342.804H429V344.804ZM479 348.804V368.804H481V348.804H479ZM475 372.804H429V374.804H475V372.804ZM425 368.804V348.804H423V368.804H425ZM429 372.804C426.791 372.804 425 371.013 425 368.804H423C423 372.117 425.686 374.804 429 374.804V372.804ZM479 368.804C479 371.013 477.209 372.804 475 372.804V374.804C478.314 374.804 481 372.117 481 368.804H479ZM475 344.804C477.209 344.804 479 346.595 479 348.804H481C481 345.49 478.314 342.804 475 342.804V344.804ZM429 342.804C425.686 342.804 423 345.49 423 348.804H425C425 346.595 426.791 344.804 429 344.804V342.804Z"
       fill="#0015CE"
       id="path160" />
    <path
       d="M433 380.304C432.724 380.304 432.5 380.528 432.5 380.804L432.5 386.804C432.5 392.05 436.753 396.304 442 396.304L462 396.304C467.247 396.304 471.5 392.05 471.5 386.804L471.5 380.804C471.5 380.528 471.276 380.304 471 380.304L433 380.304Z"
       fill="#0015CE"
       fill-opacity="0.15"
       stroke="#0015CE"
       id="path162" />
    <path
       d="M519 337.304C519.276 337.304 519.5 337.08 519.5 336.804L519.5 329.304C519.5 324.885 515.918 321.304 511.5 321.304C507.082 321.304 503.5 324.885 503.5 329.304L503.5 336.804C503.5 337.08 503.724 337.304 504 337.304L519 337.304Z"
       fill="#0015CE"
       fill-opacity="0.15"
       stroke="#0015CE"
       id="path164" />
    <path
       d="M496.5 348.804C496.5 346.042 498.739 343.804 501.5 343.804H521.5C524.261 343.804 526.5 346.042 526.5 348.804V368.804C526.5 371.565 524.261 373.804 521.5 373.804H501.5C498.739 373.804 496.5 371.565 496.5 368.804V348.804Z"
       fill="#0015CE"
       fill-opacity="0.1"
       id="path166" />
    <path
       d="M508.725 357.508C509.434 357.676 510.008 358.007 510.447 358.502C510.895 358.987 511.119 359.598 511.119 360.336C511.119 361.316 510.787 362.086 510.125 362.646C509.462 363.206 508.65 363.486 507.689 363.486C506.942 363.486 506.27 363.313 505.673 362.968C505.085 362.622 504.66 362.118 504.399 361.456L505.771 360.658C506.06 361.498 506.699 361.918 507.689 361.918C508.249 361.918 508.692 361.778 509.019 361.498C509.345 361.208 509.509 360.821 509.509 360.336C509.509 359.85 509.345 359.468 509.019 359.188C508.692 358.908 508.249 358.768 507.689 358.768H507.325L506.681 357.802L508.795 355.016H504.693V353.504H510.713V354.876L508.725 357.508ZM511.975 363.304V362.044L515.391 358.558C516.222 357.727 516.637 357.008 516.637 356.402C516.637 355.926 516.492 355.557 516.203 355.296C515.923 355.025 515.564 354.89 515.125 354.89C514.304 354.89 513.697 355.296 513.305 356.108L511.947 355.31C512.255 354.656 512.689 354.162 513.249 353.826C513.809 353.49 514.43 353.322 515.111 353.322C515.97 353.322 516.707 353.592 517.323 354.134C517.939 354.675 518.247 355.412 518.247 356.346C518.247 357.344 517.692 358.408 516.581 359.538L514.369 361.75H518.429V363.304H511.975Z"
       fill="#0015CE"
       id="path168" />
    <path
       d="M501.5 344.804H521.5V342.804H501.5V344.804ZM525.5 348.804V368.804H527.5V348.804H525.5ZM521.5 372.804H501.5V374.804H521.5V372.804ZM497.5 368.804V348.804H495.5V368.804H497.5ZM501.5 372.804C499.291 372.804 497.5 371.013 497.5 368.804H495.5C495.5 372.117 498.186 374.804 501.5 374.804V372.804ZM525.5 368.804C525.5 371.013 523.709 372.804 521.5 372.804V374.804C524.814 374.804 527.5 372.117 527.5 368.804H525.5ZM521.5 344.804C523.709 344.804 525.5 346.595 525.5 348.804H527.5C527.5 345.49 524.814 342.804 521.5 342.804V344.804ZM501.5 342.804C498.186 342.804 495.5 345.49 495.5 348.804H497.5C497.5 346.595 499.291 344.804 501.5 344.804V342.804Z"
       fill="#0015CE"
       id="path170" />
    <path
       d="M497 380.304C496.724 380.304 496.5 380.528 496.5 380.804L496.5 386.804C496.5 392.05 500.753 396.304 506 396.304L517 396.304C522.247 396.304 526.5 392.05 526.5 386.804L526.5 380.804C526.5 380.528 526.276 380.304 526 380.304L497 380.304Z"
       fill="#0015CE"
       fill-opacity="0.15"
       stroke="#0015CE"
       id="path172" />
    <rect
       x="133.029"
       y="240.804"
       width="86"
       height="139"
       rx="20"
       fill="#F0F1F8"
       id="rect174" />
    <path
       d="M164.529 285.804C164.529 286.08 164.305 286.304 164.029 286.304L158.029 286.304C152.782 286.304 148.529 282.05 148.529 276.804L148.529 265.804C148.529 260.557 152.782 256.304 158.029 256.304L164.029 256.304C164.305 256.304 164.529 256.528 164.529 256.804L164.529 285.804Z"
       fill="#0015CE"
       fill-opacity="0.15"
       stroke="#0015CE"
       id="path176" />
    <path
       d="M174.029 260.804C174.029 258.042 176.268 255.804 179.029 255.804H199.029C201.79 255.804 204.029 258.042 204.029 260.804V280.804C204.029 283.565 201.79 285.804 199.029 285.804H179.029C176.268 285.804 174.029 283.565 174.029 280.804V260.804Z"
       fill="#0015CE"
       fill-opacity="0.1"
       id="path178" />
    <path
       d="M182.046 275.304V274.044L185.462 270.558C186.293 269.727 186.708 269.008 186.708 268.402C186.708 267.926 186.563 267.557 186.274 267.296C185.994 267.025 185.635 266.89 185.196 266.89C184.375 266.89 183.768 267.296 183.376 268.108L182.018 267.31C182.326 266.656 182.76 266.162 183.32 265.826C183.88 265.49 184.501 265.322 185.182 265.322C186.041 265.322 186.778 265.592 187.394 266.134C188.01 266.675 188.318 267.412 188.318 268.346C188.318 269.344 187.763 270.408 186.652 271.538L184.44 273.75H188.5V275.304H182.046ZM193.561 269.508C194.271 269.676 194.845 270.007 195.283 270.502C195.731 270.987 195.955 271.598 195.955 272.336C195.955 273.316 195.624 274.086 194.961 274.646C194.299 275.206 193.487 275.486 192.525 275.486C191.779 275.486 191.107 275.313 190.509 274.968C189.921 274.622 189.497 274.118 189.235 273.456L190.607 272.658C190.897 273.498 191.536 273.918 192.525 273.918C193.085 273.918 193.529 273.778 193.855 273.498C194.182 273.208 194.345 272.821 194.345 272.336C194.345 271.85 194.182 271.468 193.855 271.188C193.529 270.908 193.085 270.768 192.525 270.768H192.161L191.517 269.802L193.631 267.016H189.529V265.504H195.549V266.876L193.561 269.508Z"
       fill="#0015CE"
       id="path180" />
    <path
       d="M179.029 256.804H199.029V254.804H179.029V256.804ZM203.029 260.804V280.804H205.029V260.804H203.029ZM199.029 284.804H179.029V286.804H199.029V284.804ZM175.029 280.804V260.804H173.029V280.804H175.029ZM179.029 284.804C176.82 284.804 175.029 283.013 175.029 280.804H173.029C173.029 284.117 175.715 286.804 179.029 286.804V284.804ZM203.029 280.804C203.029 283.013 201.238 284.804 199.029 284.804V286.804C202.343 286.804 205.029 284.117 205.029 280.804H203.029ZM199.029 256.804C201.238 256.804 203.029 258.595 203.029 260.804H205.029C205.029 257.49 202.343 254.804 199.029 254.804V256.804ZM179.029 254.804C175.715 254.804 173.029 257.49 173.029 260.804H175.029C175.029 258.595 176.82 256.804 179.029 256.804V254.804Z"
       fill="#0015CE"
       id="path182" />
    <path
       d="M164.529 324.804C164.529 325.08 164.305 325.304 164.029 325.304L158.029 325.304C152.782 325.304 148.529 321.05 148.529 315.804L148.529 304.804C148.529 299.557 152.782 295.304 158.029 295.304L164.029 295.304C164.305 295.304 164.529 295.528 164.529 295.804L164.529 324.804Z"
       fill="#0015CE"
       fill-opacity="0.15"
       stroke="#0015CE"
       id="path184" />
    <path
       d="M174.029 299.804C174.029 297.042 176.268 294.804 179.029 294.804H199.029C201.79 294.804 204.029 297.042 204.029 299.804V319.804C204.029 322.565 201.79 324.804 199.029 324.804H179.029C176.268 324.804 174.029 322.565 174.029 319.804V299.804Z"
       fill="#0015CE"
       fill-opacity="0.1"
       id="path186" />
    <path
       d="M181.8 314.304V313.044L185.216 309.558C186.047 308.727 186.462 308.008 186.462 307.402C186.462 306.926 186.317 306.557 186.028 306.296C185.748 306.025 185.389 305.89 184.95 305.89C184.129 305.89 183.522 306.296 183.13 307.108L181.772 306.31C182.08 305.656 182.514 305.162 183.074 304.826C183.634 304.49 184.255 304.322 184.936 304.322C185.795 304.322 186.532 304.592 187.148 305.134C187.764 305.675 188.072 306.412 188.072 307.346C188.072 308.344 187.517 309.408 186.406 310.538L184.194 312.75H188.254V314.304H181.8ZM196.453 311.042V312.54H195.333V314.304H193.709V312.54H188.893V311.042L192.267 304.504H194.017L190.643 311.042H193.709V308.494H195.333V311.042H196.453Z"
       fill="#0015CE"
       id="path188" />
    <path
       d="M179.029 295.804H199.029V293.804H179.029V295.804ZM203.029 299.804V319.804H205.029V299.804H203.029ZM199.029 323.804H179.029V325.804H199.029V323.804ZM175.029 319.804V299.804H173.029V319.804H175.029ZM179.029 323.804C176.82 323.804 175.029 322.013 175.029 319.804H173.029C173.029 323.117 175.715 325.804 179.029 325.804V323.804ZM203.029 319.804C203.029 322.013 201.238 323.804 199.029 323.804V325.804C202.343 325.804 205.029 323.117 205.029 319.804H203.029ZM199.029 295.804C201.238 295.804 203.029 297.595 203.029 299.804H205.029C205.029 296.49 202.343 293.804 199.029 293.804V295.804ZM179.029 293.804C175.715 293.804 173.029 296.49 173.029 299.804H175.029C175.029 297.595 176.82 295.804 179.029 295.804V293.804Z"
       fill="#0015CE"
       id="path190" />
    <path
       d="M164.529 363.804C164.529 364.08 164.305 364.304 164.029 364.304L158.029 364.304C152.782 364.304 148.529 360.05 148.529 354.804L148.529 343.804C148.529 338.557 152.782 334.304 158.029 334.304L164.029 334.304C164.305 334.304 164.529 334.528 164.529 334.804L164.529 363.804Z"
       fill="#0015CE"
       fill-opacity="0.15"
       stroke="#0015CE"
       id="path192" />
    <path
       d="M174.029 338.804C174.029 336.042 176.268 333.804 179.029 333.804H199.029C201.79 333.804 204.029 336.042 204.029 338.804V358.804C204.029 361.565 201.79 363.804 199.029 363.804H179.029C176.268 363.804 174.029 361.565 174.029 358.804V338.804Z"
       fill="#0015CE"
       fill-opacity="0.1"
       id="path194" />
    <path
       d="M182.012 353.304V352.044L185.428 348.558C186.259 347.727 186.674 347.008 186.674 346.402C186.674 345.926 186.529 345.557 186.24 345.296C185.96 345.025 185.601 344.89 185.162 344.89C184.341 344.89 183.734 345.296 183.342 346.108L181.984 345.31C182.292 344.656 182.726 344.162 183.286 343.826C183.846 343.49 184.467 343.322 185.148 343.322C186.007 343.322 186.744 343.592 187.36 344.134C187.976 344.675 188.284 345.412 188.284 346.346C188.284 347.344 187.729 348.408 186.618 349.538L184.406 351.75H188.466V353.304H182.012ZM192.701 347.2C193.635 347.2 194.423 347.48 195.067 348.04C195.711 348.59 196.033 349.356 196.033 350.336C196.033 351.316 195.702 352.086 195.039 352.646C194.377 353.206 193.565 353.486 192.603 353.486C191.829 353.486 191.143 353.308 190.545 352.954C189.948 352.59 189.523 352.067 189.271 351.386L190.657 350.588C190.919 351.474 191.567 351.918 192.603 351.918C193.154 351.918 193.593 351.778 193.919 351.498C194.255 351.208 194.423 350.821 194.423 350.336C194.423 349.85 194.26 349.468 193.933 349.188C193.607 348.908 193.173 348.768 192.631 348.768H189.775L190.153 343.504H195.613V345.016H191.637L191.469 347.2H192.701Z"
       fill="#0015CE"
       id="path196" />
    <path
       d="M179.029 334.804H199.029V332.804H179.029V334.804ZM203.029 338.804V358.804H205.029V338.804H203.029ZM199.029 362.804H179.029V364.804H199.029V362.804ZM175.029 358.804V338.804H173.029V358.804H175.029ZM179.029 362.804C176.82 362.804 175.029 361.013 175.029 358.804H173.029C173.029 362.117 175.715 364.804 179.029 364.804V362.804ZM203.029 358.804C203.029 361.013 201.238 362.804 199.029 362.804V364.804C202.343 364.804 205.029 362.117 205.029 358.804H203.029ZM199.029 334.804C201.238 334.804 203.029 336.595 203.029 338.804H205.029C205.029 335.49 202.343 332.804 199.029 332.804V334.804ZM179.029 332.804C175.715 332.804 173.029 335.49 173.029 338.804H175.029C175.029 336.595 176.82 334.804 179.029 334.804V332.804Z"
       fill="#0015CE"
       id="path198" />
  </g>
  <rect
     x="101.5"
     y="71"
     width="540"
     height="345"
     rx="24"
     stroke="#4354C6"
     stroke-width="8"
     id="rect202" />
  <path
     d="M267.855 455.612C271.901 455.612 275.23 456.957 277.842 459.646C280.479 462.309 281.798 465.612 281.798 469.556C281.798 473.5 280.479 476.816 277.842 479.505C275.23 482.168 271.901 483.499 267.855 483.499C265.396 483.499 263.13 482.923 261.056 481.771C259.007 480.593 257.407 479.018 256.254 477.046L260.096 474.857C260.813 476.188 261.863 477.251 263.245 478.045C264.628 478.813 266.165 479.197 267.855 479.197C270.339 479.197 272.413 478.506 274.077 477.123C275.742 475.74 276.779 473.909 277.189 471.63H264.282V467.482H277.189C276.779 465.203 275.742 463.372 274.077 461.989C272.413 460.606 270.339 459.915 267.855 459.915C266.165 459.915 264.628 460.311 263.245 461.105C261.863 461.874 260.813 462.923 260.096 464.255L256.254 462.027C257.407 460.055 259.007 458.493 261.056 457.341C263.13 456.189 265.396 455.612 267.855 455.612ZM300.254 463.794V467.789H293.993V483H289.844V467.789H283.545V463.794H300.254ZM317.522 463.794H321.67V483H317.522V480.234C315.96 482.411 313.719 483.499 310.8 483.499C308.162 483.499 305.909 482.526 304.039 480.58C302.17 478.608 301.235 476.214 301.235 473.397C301.235 470.555 302.17 468.16 304.039 466.214C305.909 464.268 308.162 463.295 310.8 463.295C313.719 463.295 315.96 464.37 317.522 466.521V463.794ZM307.112 477.814C308.264 478.967 309.711 479.543 311.453 479.543C313.194 479.543 314.641 478.967 315.793 477.814C316.946 476.636 317.522 475.164 317.522 473.397C317.522 471.63 316.946 470.17 315.793 469.018C314.641 467.84 313.194 467.251 311.453 467.251C309.711 467.251 308.264 467.84 307.112 469.018C305.96 470.17 305.384 471.63 305.384 473.397C305.384 475.164 305.96 476.636 307.112 477.814ZM351.243 483H346.518L339.988 474.127V483H335.916V474.204L329.386 483H324.662L332.152 473.205L325.046 463.794H329.771L335.916 472.206V463.794H339.988V472.245L346.134 463.794H350.859L343.752 473.205L351.243 483ZM362.6 483V479.543L371.973 469.978C374.252 467.699 375.391 465.728 375.391 464.063C375.391 462.757 374.994 461.746 374.201 461.029C373.432 460.286 372.446 459.915 371.243 459.915C368.989 459.915 367.325 461.029 366.249 463.256L362.523 461.067C363.368 459.274 364.559 457.917 366.096 456.995C367.632 456.073 369.335 455.612 371.204 455.612C373.56 455.612 375.583 456.355 377.273 457.84C378.964 459.326 379.809 461.349 379.809 463.909C379.809 466.649 378.285 469.569 375.238 472.667L369.169 478.736H380.308V483H362.6ZM389.922 478.391L387.233 488.378H383.776L385.313 478.391H389.922ZM414.723 473.167C416.771 474.088 417.796 475.612 417.796 477.738C417.796 479.376 417.13 480.747 415.798 481.848C414.467 482.949 412.61 483.499 410.229 483.499C406.362 483.499 403.75 481.963 402.393 478.89L405.773 476.893C406.464 478.813 407.962 479.773 410.267 479.773C411.343 479.773 412.188 479.556 412.802 479.12C413.417 478.659 413.724 478.058 413.724 477.315C413.724 476.649 413.481 476.124 412.994 475.74C412.508 475.33 411.829 475.126 410.958 475.126H408.231V471.476H410.267C411.112 471.476 411.765 471.284 412.226 470.9C412.713 470.491 412.956 469.94 412.956 469.249C412.956 468.583 412.687 468.045 412.149 467.635C411.611 467.2 410.894 466.982 409.998 466.982C408.078 466.982 406.746 467.827 406.003 469.517L402.623 467.597C404.057 464.729 406.49 463.295 409.921 463.295C412.072 463.295 413.775 463.845 415.03 464.947C416.31 466.022 416.951 467.341 416.951 468.903C416.951 470.823 416.208 472.245 414.723 473.167ZM436.395 463.794H440.544V483H436.395V480.234C434.833 482.411 432.593 483.499 429.673 483.499C427.036 483.499 424.782 482.526 422.913 480.58C421.043 478.608 420.109 476.214 420.109 473.397C420.109 470.555 421.043 468.16 422.913 466.214C424.782 464.268 427.036 463.295 429.673 463.295C432.593 463.295 434.833 464.37 436.395 466.521V463.794ZM425.986 477.814C427.138 478.967 428.585 479.543 430.326 479.543C432.068 479.543 433.514 478.967 434.667 477.814C435.819 476.636 436.395 475.164 436.395 473.397C436.395 471.63 435.819 470.17 434.667 469.018C433.514 467.84 432.068 467.251 430.326 467.251C428.585 467.251 427.138 467.84 425.986 469.018C424.833 470.17 424.257 471.63 424.257 473.397C424.257 475.164 424.833 476.636 425.986 477.814ZM461.589 463.794V483H457.44V467.789H451.026V474.934C451.026 477.981 450.36 480.145 449.028 481.425C447.697 482.706 445.802 483.23 443.343 483V479.12C444.521 479.325 445.405 479.082 445.994 478.391C446.583 477.699 446.877 476.483 446.877 474.741V463.794H461.589ZM481.173 456.112H485.014V483H480.597V460.836L475.181 462.373L474.105 458.609L481.173 456.112Z"
     fill="#4354C6"
     id="path204" />
  <defs
     id="defs213">
    <clipPath
       id="clip0" />
    <clipPath
       id="clip1">
      <rect
         width="38"
         height="38"
         fill="white"
         transform="translate(582.364 350.304)"
         id="rect207" />
    </clipPath>
    <clipPath
       id="clip2">
      <rect
         width="36"
         height="36"
         fill="white"
         transform="translate(298.594 94.6929)"
         id="rect210" />
    </clipPath>
  </defs>
</svg>
