<?xml version="1.0" encoding="UTF-8" standalone="no"?>
<svg
   width="627"
   height="494"
   viewBox="0 0 627 494"
   fill="none"
   version="1.1"
   id="svg120"
   sodipodi:docname="Sovetskaya_2.svg"
   inkscape:version="1.1 (c4e8f9e, 2021-05-24)"
   xmlns:inkscape="http://www.inkscape.org/namespaces/inkscape"
   xmlns:sodipodi="http://sodipodi.sourceforge.net/DTD/sodipodi-0.dtd"
   xmlns="http://www.w3.org/2000/svg"
   xmlns:svg="http://www.w3.org/2000/svg">
  <sodipodi:namedview
     id="namedview122"
     pagecolor="#ffffff"
     bordercolor="#666666"
     borderopacity="1.0"
     inkscape:pageshadow="2"
     inkscape:pageopacity="0.0"
     inkscape:pagecheckerboard="0"
     showgrid="false"
     inkscape:zoom="2.486332"
     inkscape:cx="287.77331"
     inkscape:cy="125.88826"
     inkscape:window-width="1312"
     inkscape:window-height="922"
     inkscape:window-x="96"
     inkscape:window-y="27"
     inkscape:window-maximized="0"
     inkscape:current-layer="g110" />
  <path
     d="M281.455 410.192C284.195 411.498 285.565 413.662 285.565 416.683C285.565 419.039 284.669 420.96 282.876 422.445C281.109 423.905 278.792 424.635 275.924 424.635C271.007 424.635 267.755 422.56 266.167 418.412L269.97 416.222C270.764 419.065 272.748 420.486 275.924 420.486C277.614 420.486 278.907 420.128 279.803 419.411C280.699 418.668 281.148 417.682 281.148 416.453C281.148 415.249 280.712 414.289 279.842 413.572C278.997 412.829 277.793 412.458 276.231 412.458H272.966V408.463H275.347C276.858 408.463 278.036 408.118 278.881 407.426C279.726 406.735 280.149 405.813 280.149 404.661C280.149 403.508 279.765 402.599 278.997 401.933C278.228 401.242 277.127 400.896 275.693 400.896C273.03 400.896 271.237 402.113 270.316 404.545L266.551 402.356C268.293 398.617 271.34 396.748 275.693 396.748C278.331 396.748 280.469 397.465 282.108 398.899C283.747 400.307 284.566 402.151 284.566 404.43C284.566 406.965 283.529 408.886 281.455 410.192ZM304.367 404.929H308.515V424.135H304.367V421.37C302.805 423.546 300.564 424.635 297.645 424.635C295.007 424.635 292.753 423.662 290.884 421.715C289.015 419.744 288.08 417.349 288.08 414.532C288.08 411.69 289.015 409.296 290.884 407.349C292.753 405.403 295.007 404.43 297.645 404.43C300.564 404.43 302.805 405.506 304.367 407.657V404.929ZM293.957 418.95C295.109 420.102 296.556 420.678 298.298 420.678C300.039 420.678 301.486 420.102 302.638 418.95C303.79 417.772 304.367 416.299 304.367 414.532C304.367 412.765 303.79 411.306 302.638 410.153C301.486 408.975 300.039 408.386 298.298 408.386C296.556 408.386 295.109 408.975 293.957 410.153C292.805 411.306 292.228 412.765 292.228 414.532C292.228 416.299 292.805 417.772 293.957 418.95ZM329.56 404.929V424.135H325.412V408.924H318.997V416.069C318.997 419.116 318.331 421.28 317 422.56C315.668 423.841 313.773 424.366 311.315 424.135V420.256C312.493 420.461 313.376 420.217 313.965 419.526C314.554 418.834 314.848 417.618 314.848 415.877V404.929H329.56ZM342.768 424.135V420.678L352.141 411.114C354.42 408.835 355.559 406.863 355.559 405.198C355.559 403.892 355.162 402.881 354.368 402.164C353.6 401.421 352.614 401.05 351.411 401.05C349.157 401.05 347.493 402.164 346.417 404.392L342.691 402.202C343.536 400.41 344.727 399.052 346.264 398.131C347.8 397.209 349.503 396.748 351.372 396.748C353.728 396.748 355.751 397.49 357.441 398.976C359.131 400.461 359.976 402.484 359.976 405.045C359.976 407.785 358.453 410.704 355.405 413.803L349.336 419.872H360.476V424.135H342.768Z"
     fill="#4354C6"
     id="path2" />
  <g
     id="g110">
    <rect
       x="127.5"
       y="55.8647"
       width="372"
       height="300"
       rx="24"
       fill="#F8F9FD"
       id="rect4" />
    <rect
       x="280.521"
       y="119.832"
       width="168"
       height="106"
       rx="20"
       fill="#F0F1F8"
       id="rect6" />
    <path
       d="M303.021 151.332C302.745 151.332 302.521 151.108 302.521 150.832L302.521 143.332C302.521 138.913 306.103 135.332 310.521 135.332C314.94 135.332 318.521 138.913 318.521 143.332L318.521 150.832C318.521 151.108 318.298 151.332 318.021 151.332L303.021 151.332Z"
       fill="#0015CE"
       fill-opacity="0.15"
       stroke="#0015CE"
       id="path8" />
    <path
       d="M295.521 162.832C295.521 160.07 297.76 157.832 300.521 157.832H320.521C323.283 157.832 325.521 160.07 325.521 162.832V182.832C325.521 185.593 323.283 187.832 320.521 187.832H300.521C297.76 187.832 295.521 185.593 295.521 182.832V162.832Z"
       fill="#0015CE"
       fill-opacity="0.1"
       id="path10" />
    <path
       d="M306.861 167.532H308.261V177.332H306.651V169.254L304.677 169.814L304.285 168.442L306.861 167.532ZM313.134 170.822C314.151 170.822 314.982 171.134 315.626 171.76C316.27 172.376 316.592 173.178 316.592 174.168C316.592 175.157 316.27 175.964 315.626 176.59C314.982 177.206 314.151 177.514 313.134 177.514C312.107 177.514 311.272 177.206 310.628 176.59C309.984 175.964 309.662 175.157 309.662 174.168C309.662 173.421 309.858 172.763 310.25 172.194L313.358 167.532H315.192L312.952 170.822H313.134ZM313.134 175.988C313.675 175.988 314.118 175.824 314.464 175.498C314.809 175.162 314.982 174.718 314.982 174.168C314.982 173.617 314.809 173.178 314.464 172.852C314.118 172.516 313.675 172.348 313.134 172.348C312.583 172.348 312.135 172.516 311.79 172.852C311.444 173.178 311.272 173.617 311.272 174.168C311.272 174.718 311.444 175.162 311.79 175.498C312.135 175.824 312.583 175.988 313.134 175.988Z"
       fill="#0015CE"
       id="path12" />
    <path
       d="M300.521 158.832H320.521V156.832H300.521V158.832ZM324.521 162.832V182.832H326.521V162.832H324.521ZM320.521 186.832H300.521V188.832H320.521V186.832ZM296.521 182.832V162.832H294.521V182.832H296.521ZM300.521 186.832C298.312 186.832 296.521 185.041 296.521 182.832H294.521C294.521 186.145 297.208 188.832 300.521 188.832V186.832ZM324.521 182.832C324.521 185.041 322.731 186.832 320.521 186.832V188.832C323.835 188.832 326.521 186.145 326.521 182.832H324.521ZM320.521 158.832C322.731 158.832 324.521 160.622 324.521 162.832H326.521C326.521 159.518 323.835 156.832 320.521 156.832V158.832ZM300.521 156.832C297.208 156.832 294.521 159.518 294.521 162.832H296.521C296.521 160.622 298.312 158.832 300.521 158.832V156.832Z"
       fill="#0015CE"
       id="path14" />
    <path
       d="M318.021 194.332C318.298 194.332 318.521 194.555 318.521 194.832L318.521 202.332C318.521 206.75 314.94 210.332 310.521 210.332C306.103 210.332 302.521 206.75 302.521 202.332L302.521 194.832C302.521 194.555 302.745 194.332 303.021 194.332L318.021 194.332Z"
       fill="#0015CE"
       fill-opacity="0.15"
       stroke="#0015CE"
       id="path16" />
    <path
       d="M357.021 151.332C356.745 151.332 356.521 151.108 356.521 150.832L356.521 143.332C356.521 138.913 360.103 135.332 364.521 135.332C368.94 135.332 372.521 138.913 372.521 143.332L372.521 150.832C372.521 151.108 372.298 151.332 372.021 151.332L357.021 151.332Z"
       fill="#0015CE"
       fill-opacity="0.15"
       stroke="#0015CE"
       id="path18" />
    <path
       d="M349.521 162.832C349.521 160.07 351.76 157.832 354.521 157.832H374.521C377.283 157.832 379.521 160.07 379.521 162.832V182.832C379.521 185.593 377.283 187.832 374.521 187.832H354.521C351.76 187.832 349.521 185.593 349.521 182.832V162.832Z"
       fill="#0015CE"
       fill-opacity="0.1"
       id="path20" />
    <path
       d="M361.243 167.532H362.643V177.332H361.033V169.254L359.059 169.814L358.667 168.442L361.243 167.532ZM363.904 167.532H370.134V168.932L366.69 177.332H364.996L368.384 169.072H363.904V167.532Z"
       fill="#0015CE"
       id="path22" />
    <path
       d="M354.521 158.832H374.521V156.832H354.521V158.832ZM378.521 162.832V182.832H380.521V162.832H378.521ZM374.521 186.832H354.521V188.832H374.521V186.832ZM350.521 182.832V162.832H348.521V182.832H350.521ZM354.521 186.832C352.312 186.832 350.521 185.041 350.521 182.832H348.521C348.521 186.145 351.208 188.832 354.521 188.832V186.832ZM378.521 182.832C378.521 185.041 376.731 186.832 374.521 186.832V188.832C377.835 188.832 380.521 186.145 380.521 182.832H378.521ZM374.521 158.832C376.731 158.832 378.521 160.622 378.521 162.832H380.521C380.521 159.518 377.835 156.832 374.521 156.832V158.832ZM354.521 156.832C351.208 156.832 348.521 159.518 348.521 162.832H350.521C350.521 160.622 352.312 158.832 354.521 158.832V156.832Z"
       fill="#0015CE"
       id="path24" />
    <path
       d="M372.021 194.332C372.298 194.332 372.521 194.555 372.521 194.832L372.521 202.332C372.521 206.75 368.94 210.332 364.521 210.332C360.103 210.332 356.521 206.75 356.521 202.332L356.521 194.832C356.521 194.555 356.745 194.332 357.021 194.332L372.021 194.332Z"
       fill="#0015CE"
       fill-opacity="0.15"
       stroke="#0015CE"
       id="path26" />
    <path
       d="M411.021 151.332C410.745 151.332 410.521 151.108 410.521 150.832L410.521 143.332C410.521 138.913 414.103 135.332 418.521 135.332C422.94 135.332 426.521 138.913 426.521 143.332L426.521 150.832C426.521 151.108 426.298 151.332 426.021 151.332L411.021 151.332Z"
       fill="#0015CE"
       fill-opacity="0.15"
       stroke="#0015CE"
       id="path28" />
    <path
       d="M403.521 162.832C403.521 160.07 405.76 157.832 408.521 157.832H428.521C431.283 157.832 433.521 160.07 433.521 162.832V182.832C433.521 185.593 431.283 187.832 428.521 187.832H408.521C405.76 187.832 403.521 185.593 403.521 182.832V162.832Z"
       fill="#0015CE"
       fill-opacity="0.1"
       id="path30" />
    <path
       d="M412.714 177.332V176.072L416.13 172.586C416.961 171.755 417.376 171.036 417.376 170.43C417.376 169.954 417.232 169.585 416.942 169.324C416.662 169.053 416.303 168.918 415.864 168.918C415.043 168.918 414.436 169.324 414.044 170.136L412.686 169.338C412.994 168.684 413.428 168.19 413.988 167.854C414.548 167.518 415.169 167.35 415.85 167.35C416.709 167.35 417.446 167.62 418.062 168.162C418.678 168.703 418.986 169.44 418.986 170.374C418.986 171.372 418.431 172.436 417.32 173.566L415.108 175.778H419.168V177.332H412.714ZM422.312 167.532H423.712V177.332H422.102V169.254L420.128 169.814L419.736 168.442L422.312 167.532Z"
       fill="#0015CE"
       id="path32" />
    <path
       d="M408.521 158.832H428.521V156.832H408.521V158.832ZM432.521 162.832V182.832H434.521V162.832H432.521ZM428.521 186.832H408.521V188.832H428.521V186.832ZM404.521 182.832V162.832H402.521V182.832H404.521ZM408.521 186.832C406.312 186.832 404.521 185.041 404.521 182.832H402.521C402.521 186.145 405.208 188.832 408.521 188.832V186.832ZM432.521 182.832C432.521 185.041 430.731 186.832 428.521 186.832V188.832C431.835 188.832 434.521 186.145 434.521 182.832H432.521ZM428.521 158.832C430.731 158.832 432.521 160.622 432.521 162.832H434.521C434.521 159.518 431.835 156.832 428.521 156.832V158.832ZM408.521 156.832C405.208 156.832 402.521 159.518 402.521 162.832H404.521C404.521 160.622 406.312 158.832 408.521 158.832V156.832Z"
       fill="#0015CE"
       id="path34" />
    <path
       d="M426.021 194.332C426.298 194.332 426.521 194.555 426.521 194.832L426.521 202.332C426.521 206.75 422.94 210.332 418.521 210.332C414.103 210.332 410.521 206.75 410.521 202.332L410.521 194.832C410.521 194.555 410.745 194.332 411.021 194.332L426.021 194.332Z"
       fill="#0015CE"
       fill-opacity="0.15"
       stroke="#0015CE"
       id="path36" />
    <path
       d="M285.521 263.865C285.521 252.819 294.476 243.865 305.521 243.865H502.521V351.865H285.521V263.865Z"
       fill="#F0F1F8"
       id="path38" />
    <path
       d="M323.021 275.365C323.298 275.365 323.521 275.141 323.521 274.865L323.521 267.365C323.521 262.946 319.94 259.365 315.521 259.365C311.103 259.365 307.521 262.946 307.521 267.365L307.521 274.865C307.521 275.141 307.745 275.365 308.021 275.365L323.021 275.365Z"
       fill="#0015CE"
       fill-opacity="0.15"
       stroke="#0015CE"
       id="path40" />
    <path
       d="M346.021 275.365C346.298 275.365 346.521 275.141 346.521 274.865L346.521 267.365C346.521 262.946 342.94 259.365 338.521 259.365C334.103 259.365 330.521 262.946 330.521 267.365L330.521 274.865C330.521 275.141 330.745 275.365 331.021 275.365L346.021 275.365Z"
       fill="#0015CE"
       fill-opacity="0.15"
       stroke="#0015CE"
       id="path42" />
    <path
       d="M300.521 287.865C300.521 285.103 302.76 282.865 305.521 282.865H348.521C351.283 282.865 353.521 285.103 353.521 287.865V307.865C353.521 310.626 351.283 312.865 348.521 312.865H305.521C302.76 312.865 300.521 310.626 300.521 307.865V287.865Z"
       fill="#0015CE"
       fill-opacity="0.1"
       id="path44" />
    <path
       d="M323.751 292.565H325.151V302.365H323.541V294.287L321.567 294.847L321.175 293.475L323.751 292.565ZM332.124 297.269C333.085 297.801 333.566 298.594 333.566 299.649C333.566 300.545 333.253 301.254 332.628 301.777C332.003 302.29 331.172 302.547 330.136 302.547C329.1 302.547 328.265 302.29 327.63 301.777C327.005 301.254 326.692 300.545 326.692 299.649C326.692 299.145 326.818 298.687 327.07 298.277C327.322 297.857 327.677 297.521 328.134 297.269C327.397 296.783 327.028 296.093 327.028 295.197C327.028 294.301 327.327 293.61 327.924 293.125C328.521 292.63 329.259 292.383 330.136 292.383C331.004 292.383 331.737 292.63 332.334 293.125C332.941 293.61 333.244 294.301 333.244 295.197C333.244 296.093 332.871 296.783 332.124 297.269ZM330.136 293.909C329.697 293.909 329.338 294.025 329.058 294.259C328.778 294.492 328.638 294.828 328.638 295.267C328.638 295.687 328.778 296.018 329.058 296.261C329.347 296.503 329.707 296.625 330.136 296.625C330.556 296.625 330.911 296.503 331.2 296.261C331.489 296.018 331.634 295.687 331.634 295.267C331.634 294.828 331.489 294.492 331.2 294.259C330.92 294.025 330.565 293.909 330.136 293.909ZM330.136 301.021C330.677 301.021 331.116 300.89 331.452 300.629C331.788 300.358 331.956 299.98 331.956 299.495C331.956 299.009 331.788 298.636 331.452 298.375C331.116 298.104 330.677 297.969 330.136 297.969C329.585 297.969 329.142 298.104 328.806 298.375C328.47 298.636 328.302 299.009 328.302 299.495C328.302 299.98 328.47 300.358 328.806 300.629C329.142 300.89 329.585 301.021 330.136 301.021Z"
       fill="#0015CE"
       id="path46" />
    <path
       d="M305.521 283.865H348.521V281.865H305.521V283.865ZM352.521 287.865V307.865H354.521V287.865H352.521ZM348.521 311.865H305.521V313.865H348.521V311.865ZM301.521 307.865V287.865H299.521V307.865H301.521ZM305.521 311.865C303.312 311.865 301.521 310.074 301.521 307.865H299.521C299.521 311.178 302.208 313.865 305.521 313.865V311.865ZM352.521 307.865C352.521 310.074 350.731 311.865 348.521 311.865V313.865C351.835 313.865 354.521 311.178 354.521 307.865H352.521ZM348.521 283.865C350.731 283.865 352.521 285.656 352.521 287.865H354.521C354.521 284.551 351.835 281.865 348.521 281.865V283.865ZM305.521 281.865C302.208 281.865 299.521 284.551 299.521 287.865H301.521C301.521 285.656 303.312 283.865 305.521 283.865V281.865Z"
       fill="#0015CE"
       id="path48" />
    <path
       d="M349.521 320.365C349.798 320.365 350.021 320.589 350.021 320.865L350.021 326.865C350.021 332.111 345.768 336.365 340.521 336.365L313.521 336.365C308.275 336.365 304.021 332.111 304.021 326.865L304.021 320.865C304.021 320.589 304.245 320.365 304.521 320.365L349.521 320.365Z"
       fill="#0015CE"
       fill-opacity="0.15"
       stroke="#0015CE"
       id="path50" />
    <path
       d="M390.021 275.365C390.298 275.365 390.521 275.141 390.521 274.865L390.521 267.365C390.521 262.946 386.94 259.365 382.521 259.365C378.103 259.365 374.521 262.946 374.521 267.365L374.521 274.865C374.521 275.141 374.745 275.365 375.021 275.365L390.021 275.365Z"
       fill="#0015CE"
       fill-opacity="0.15"
       stroke="#0015CE"
       id="path52" />
    <path
       d="M413.021 275.365C413.298 275.365 413.521 275.141 413.521 274.865L413.521 267.365C413.521 262.946 409.94 259.365 405.521 259.365C401.103 259.365 397.521 262.946 397.521 267.365L397.521 274.865C397.521 275.141 397.745 275.365 398.021 275.365L413.021 275.365Z"
       fill="#0015CE"
       fill-opacity="0.15"
       stroke="#0015CE"
       id="path54" />
    <path
       d="M367.521 287.865C367.521 285.103 369.76 282.865 372.521 282.865H415.521C418.283 282.865 420.521 285.103 420.521 287.865V307.865C420.521 310.626 418.283 312.865 415.521 312.865H372.521C369.76 312.865 367.521 310.626 367.521 307.865V287.865Z"
       fill="#0015CE"
       fill-opacity="0.1"
       id="path56" />
    <path
       d="M390.861 292.565H392.261V302.365H390.651V294.287L388.677 294.847L388.285 293.475L390.861 292.565ZM400.592 295.729C400.592 296.475 400.396 297.133 400.004 297.703L396.91 302.365H395.062L397.302 299.075H397.134C396.116 299.075 395.281 298.767 394.628 298.151C393.984 297.525 393.662 296.718 393.662 295.729C393.662 294.739 393.984 293.937 394.628 293.321C395.281 292.695 396.116 292.383 397.134 292.383C398.151 292.383 398.982 292.695 399.626 293.321C400.27 293.937 400.592 294.739 400.592 295.729ZM395.272 295.729C395.272 296.27 395.444 296.709 395.79 297.045C396.144 297.381 396.592 297.549 397.134 297.549C397.675 297.549 398.118 297.385 398.464 297.059C398.809 296.723 398.982 296.279 398.982 295.729C398.982 295.178 398.809 294.739 398.464 294.413C398.118 294.077 397.675 293.909 397.134 293.909C396.592 293.909 396.144 294.077 395.79 294.413C395.444 294.739 395.272 295.178 395.272 295.729Z"
       fill="#0015CE"
       id="path58" />
    <path
       d="M372.521 283.865H415.521V281.865H372.521V283.865ZM419.521 287.865V307.865H421.521V287.865H419.521ZM415.521 311.865H372.521V313.865H415.521V311.865ZM368.521 307.865V287.865H366.521V307.865H368.521ZM372.521 311.865C370.312 311.865 368.521 310.074 368.521 307.865H366.521C366.521 311.178 369.208 313.865 372.521 313.865V311.865ZM419.521 307.865C419.521 310.074 417.731 311.865 415.521 311.865V313.865C418.835 313.865 421.521 311.178 421.521 307.865H419.521ZM415.521 283.865C417.731 283.865 419.521 285.656 419.521 287.865H421.521C421.521 284.551 418.835 281.865 415.521 281.865V283.865ZM372.521 281.865C369.208 281.865 366.521 284.551 366.521 287.865H368.521C368.521 285.656 370.312 283.865 372.521 283.865V281.865Z"
       fill="#0015CE"
       id="path60" />
    <path
       d="M416.521 320.365C416.798 320.365 417.021 320.589 417.021 320.865L417.021 326.865C417.021 332.111 412.768 336.365 407.521 336.365L380.521 336.365C375.275 336.365 371.021 332.111 371.021 326.865L371.021 320.865C371.021 320.589 371.245 320.365 371.521 320.365L416.521 320.365Z"
       fill="#0015CE"
       fill-opacity="0.15"
       stroke="#0015CE"
       id="path62" />
    <path
       d="M457.021 275.365C457.298 275.365 457.521 275.141 457.521 274.865L457.521 267.365C457.521 262.946 453.94 259.365 449.521 259.365C445.103 259.365 441.521 262.946 441.521 267.365L441.521 274.865C441.521 275.141 441.745 275.365 442.021 275.365L457.021 275.365Z"
       fill="#0015CE"
       fill-opacity="0.15"
       stroke="#0015CE"
       id="path64" />
    <path
       d="M480.021 275.365C480.298 275.365 480.521 275.141 480.521 274.865L480.521 267.365C480.521 262.946 476.94 259.365 472.521 259.365C468.103 259.365 464.521 262.946 464.521 267.365L464.521 274.865C464.521 275.141 464.745 275.365 465.021 275.365L480.021 275.365Z"
       fill="#0015CE"
       fill-opacity="0.15"
       stroke="#0015CE"
       id="path66" />
    <path
       d="M434.521 287.865C434.521 285.103 436.76 282.865 439.521 282.865H482.521C485.283 282.865 487.521 285.103 487.521 287.865V307.865C487.521 310.626 485.283 312.865 482.521 312.865H439.521C436.76 312.865 434.521 310.626 434.521 307.865V287.865Z"
       fill="#0015CE"
       fill-opacity="0.1"
       id="path68" />
    <path
       d="M453.91 302.365V301.105L457.326 297.619C458.156 296.788 458.572 296.069 458.572 295.463C458.572 294.987 458.427 294.618 458.138 294.357C457.858 294.086 457.498 293.951 457.06 293.951C456.238 293.951 455.632 294.357 455.24 295.169L453.882 294.371C454.19 293.717 454.624 293.223 455.184 292.887C455.744 292.551 456.364 292.383 457.046 292.383C457.904 292.383 458.642 292.653 459.258 293.195C459.874 293.736 460.182 294.473 460.182 295.407C460.182 296.405 459.626 297.469 458.516 298.599L456.304 300.811H460.364V302.365H453.91ZM467.987 301.161C467.315 302.085 466.372 302.547 465.159 302.547C463.946 302.547 462.998 302.085 462.317 301.161C461.645 300.237 461.309 299.005 461.309 297.465C461.309 295.925 461.645 294.693 462.317 293.769C462.998 292.845 463.946 292.383 465.159 292.383C466.372 292.383 467.315 292.845 467.987 293.769C468.668 294.693 469.009 295.925 469.009 297.465C469.009 299.005 468.668 300.237 467.987 301.161ZM465.159 300.979C465.887 300.979 466.442 300.675 466.825 300.069C467.208 299.462 467.399 298.594 467.399 297.465C467.399 296.335 467.208 295.467 466.825 294.861C466.442 294.254 465.887 293.951 465.159 293.951C464.44 293.951 463.885 294.254 463.493 294.861C463.11 295.467 462.919 296.335 462.919 297.465C462.919 298.594 463.11 299.462 463.493 300.069C463.885 300.675 464.44 300.979 465.159 300.979Z"
       fill="#0015CE"
       id="path70" />
    <path
       d="M439.521 283.865H482.521V281.865H439.521V283.865ZM486.521 287.865V307.865H488.521V287.865H486.521ZM482.521 311.865H439.521V313.865H482.521V311.865ZM435.521 307.865V287.865H433.521V307.865H435.521ZM439.521 311.865C437.312 311.865 435.521 310.074 435.521 307.865H433.521C433.521 311.178 436.208 313.865 439.521 313.865V311.865ZM486.521 307.865C486.521 310.074 484.731 311.865 482.521 311.865V313.865C485.835 313.865 488.521 311.178 488.521 307.865H486.521ZM482.521 283.865C484.731 283.865 486.521 285.656 486.521 287.865H488.521C488.521 284.551 485.835 281.865 482.521 281.865V283.865ZM439.521 281.865C436.208 281.865 433.521 284.551 433.521 287.865H435.521C435.521 285.656 437.312 283.865 439.521 283.865V281.865Z"
       fill="#0015CE"
       id="path72" />
    <path
       d="M483.521 320.365C483.798 320.365 484.021 320.589 484.021 320.865L484.021 326.865C484.021 332.111 479.768 336.365 474.521 336.365L447.521 336.365C442.275 336.365 438.021 332.111 438.021 326.865L438.021 320.865C438.021 320.589 438.245 320.365 438.521 320.365L483.521 320.365Z"
       fill="#0015CE"
       fill-opacity="0.15"
       stroke="#0015CE"
       id="path74" />
    <rect
       x="317.23975"
       y="53.050251"
       width="92.78125"
       height="58.026257"
       rx="20"
       fill="#f0f1f8"
       id="rect76" />
    <g
       clip-path="url(#clip1)"
       id="g82">
      <path
         d="M376.615 61.3315H354.115C353.717 61.3315 353.336 61.4896 353.054 61.7709C352.773 62.0522 352.615 62.4337 352.615 62.8315V73.3315H346.615V76.3315H360.115C360.421 76.3316 360.719 76.2384 360.97 76.0645C361.221 75.8905 361.413 75.6441 361.52 75.358L365.494 79.3315L361.52 83.305C361.413 83.019 361.221 82.7726 360.97 82.5986C360.719 82.4246 360.421 82.3315 360.115 82.3315H346.615V85.3315H352.615V95.8315C352.615 96.2294 352.773 96.6109 353.054 96.8922C353.336 97.1735 353.717 97.3315 354.115 97.3315H376.615C377.013 97.3315 377.394 97.1735 377.676 96.8922C377.957 96.6109 378.115 96.2294 378.115 95.8315V62.8315C378.115 62.4337 377.957 62.0522 377.676 61.7709C377.394 61.4896 377.013 61.3315 376.615 61.3315V61.3315ZM375.115 94.3315H355.615V85.3315H358.615V86.8315C358.615 87.1282 358.703 87.4182 358.868 87.6649C359.033 87.9116 359.267 88.1039 359.541 88.2174C359.815 88.3309 360.117 88.3607 360.408 88.3028C360.699 88.2449 360.966 88.102 361.176 87.8922L368.676 80.3922C368.815 80.2529 368.926 80.0876 369.001 79.9056C369.076 79.7236 369.115 79.5285 369.115 79.3315C369.115 79.1346 369.076 78.9395 369.001 78.7575C368.926 78.5755 368.815 78.4101 368.676 78.2709L361.176 70.7709C360.966 70.5611 360.699 70.4182 360.408 70.3603C360.117 70.3024 359.815 70.3321 359.541 70.4457C359.267 70.5592 359.033 70.7515 358.868 70.9982C358.703 71.2448 358.615 71.5349 358.615 71.8315V73.3315H355.615V64.3315H375.115V94.3315Z"
         fill="#C4C6E4"
         id="path78" />
      <path
         d="M372.115 80.8316C372.944 80.8316 373.615 80.16 373.615 79.3315C373.615 78.5031 372.944 77.8315 372.115 77.8315C371.287 77.8315 370.615 78.5031 370.615 79.3315C370.615 80.16 371.287 80.8316 372.115 80.8316Z"
         fill="#C4C6E4"
         id="path80" />
    </g>
    <rect
       x="152.5"
       y="122.365"
       width="110"
       height="167"
       rx="20"
       fill="#F0F1F8"
       id="rect84" />
    <path
       d="M176.775 149.077C175.795 150.057 174.596 150.547 173.177 150.547C171.759 150.547 170.555 150.057 169.565 149.077C168.585 148.087 168.095 146.883 168.095 145.465C168.095 144.046 168.585 142.847 169.565 141.867C170.555 140.877 171.759 140.383 173.177 140.383C174.596 140.383 175.795 140.877 176.775 141.867C177.765 142.847 178.259 144.046 178.259 145.465C178.259 146.883 177.765 148.087 176.775 149.077ZM170.699 147.985C171.371 148.647 172.197 148.979 173.177 148.979C174.157 148.979 174.979 148.647 175.641 147.985C176.313 147.313 176.649 146.473 176.649 145.465C176.649 144.457 176.313 143.621 175.641 142.959C174.979 142.287 174.157 141.951 173.177 141.951C172.197 141.951 171.371 142.287 170.699 142.959C170.037 143.621 169.705 144.457 169.705 145.465C169.705 146.473 170.037 147.313 170.699 147.985ZM182.878 150.547C181.805 150.547 180.927 150.201 180.246 149.511C179.574 148.811 179.238 147.919 179.238 146.837C179.238 145.651 179.415 144.737 179.77 144.093C180.125 143.439 180.843 142.847 181.926 142.315C182.103 142.231 182.365 142.109 182.71 141.951C183.065 141.792 183.307 141.68 183.438 141.615C183.569 141.54 183.732 141.437 183.928 141.307C184.124 141.167 184.269 141.022 184.362 140.873C184.455 140.714 184.53 140.527 184.586 140.313L185.818 141.027C185.781 141.232 185.72 141.423 185.636 141.601C185.552 141.769 185.431 141.927 185.272 142.077C185.113 142.226 184.973 142.347 184.852 142.441C184.74 142.534 184.549 142.646 184.278 142.777C184.007 142.907 183.807 143.001 183.676 143.057C183.555 143.113 183.321 143.211 182.976 143.351C182.36 143.593 181.907 143.845 181.618 144.107C181.338 144.359 181.142 144.676 181.03 145.059C181.59 144.424 182.351 144.107 183.312 144.107C184.133 144.107 184.847 144.401 185.454 144.989C186.07 145.577 186.378 146.337 186.378 147.271C186.378 148.223 186.051 149.007 185.398 149.623C184.754 150.239 183.914 150.547 182.878 150.547ZM182.864 149.133C183.452 149.133 183.933 148.96 184.306 148.615C184.679 148.26 184.866 147.812 184.866 147.271C184.866 146.72 184.679 146.267 184.306 145.913C183.942 145.558 183.466 145.381 182.878 145.381C182.355 145.381 181.884 145.549 181.464 145.885C181.044 146.211 180.834 146.65 180.834 147.201C180.834 147.761 181.03 148.223 181.422 148.587C181.814 148.951 182.295 149.133 182.864 149.133ZM197.233 148.937H198.171V152.241H196.687V150.365H187.573V143.365H189.085V148.937H191.647V143.365H193.159V148.937H195.721V143.365H197.233V148.937ZM204.468 143.365H205.63V150.365H204.146V145.913L200.562 150.365H199.4V143.365H200.884V147.803L204.468 143.365ZM208.532 142.385V141.069H212.452V142.385H208.532ZM212.452 143.365H213.614V150.365H212.13V145.913L208.546 150.365H207.384V143.365H208.868V147.803L212.452 143.365ZM222.172 150.547C221.118 150.547 220.236 150.192 219.526 149.483C218.826 148.773 218.476 147.901 218.476 146.865C218.476 145.819 218.826 144.947 219.526 144.247C220.236 143.537 221.118 143.183 222.172 143.183C222.854 143.183 223.474 143.346 224.034 143.673C224.594 143.999 225.014 144.438 225.294 144.989L223.992 145.745C223.834 145.409 223.591 145.147 223.264 144.961C222.947 144.765 222.578 144.667 222.158 144.667C221.542 144.667 221.024 144.877 220.604 145.297C220.194 145.717 219.988 146.239 219.988 146.865C219.988 147.49 220.194 148.013 220.604 148.433C221.024 148.853 221.542 149.063 222.158 149.063C222.569 149.063 222.938 148.965 223.264 148.769C223.6 148.573 223.852 148.311 224.02 147.985L225.322 148.727C225.024 149.287 224.594 149.73 224.034 150.057C223.474 150.383 222.854 150.547 222.172 150.547ZM231.695 143.365V144.821H229.413V150.365H227.901V144.821H225.605V143.365H231.695ZM235.749 150.547C234.722 150.547 233.849 150.192 233.131 149.483C232.412 148.773 232.053 147.901 232.053 146.865C232.053 145.829 232.412 144.956 233.131 144.247C233.849 143.537 234.722 143.183 235.749 143.183C236.785 143.183 237.657 143.537 238.367 144.247C239.085 144.956 239.445 145.829 239.445 146.865C239.445 147.901 239.085 148.773 238.367 149.483C237.657 150.192 236.785 150.547 235.749 150.547ZM234.195 148.447C234.615 148.867 235.133 149.077 235.749 149.077C236.365 149.077 236.883 148.867 237.303 148.447C237.723 148.027 237.933 147.499 237.933 146.865C237.933 146.23 237.723 145.703 237.303 145.283C236.883 144.863 236.365 144.653 235.749 144.653C235.133 144.653 234.615 144.863 234.195 145.283C233.775 145.703 233.565 146.23 233.565 146.865C233.565 147.499 233.775 148.027 234.195 148.447ZM246.515 143.365V150.365H245.003V144.821H242.665V147.425C242.665 148.535 242.422 149.324 241.937 149.791C241.451 150.257 240.761 150.449 239.865 150.365V148.951C240.294 149.025 240.616 148.937 240.831 148.685C241.045 148.433 241.153 147.989 241.153 147.355V143.365H246.515Z"
       fill="#C4C6E4"
       id="path86" />
    <path
       d="M185 251.365C185 251.089 184.776 250.865 184.5 250.865L177 250.865C172.582 250.865 169 254.446 169 258.865C169 263.283 172.582 266.865 177 266.865L184.5 266.865C184.776 266.865 185 266.641 185 266.365L185 251.365Z"
       fill="#DEE0ED"
       stroke="#B6B5D3"
       id="path88" />
    <path
       d="M185 223.365C185 223.089 184.776 222.865 184.5 222.865L177 222.865C172.582 222.865 169 226.446 169 230.865C169 235.283 172.582 238.865 177 238.865L184.5 238.865C184.776 238.865 185 238.641 185 238.365L185 223.365Z"
       fill="#0015CE"
       fill-opacity="0.15"
       stroke="#0015CE"
       id="path90" />
    <path
       d="M185 195.365C185 195.089 184.776 194.865 184.5 194.865L177 194.865C172.582 194.865 169 198.446 169 202.865C169 207.283 172.582 210.865 177 210.865L184.5 210.865C184.776 210.865 185 210.641 185 210.365L185 195.365Z"
       fill="#0015CE"
       fill-opacity="0.15"
       stroke="#0015CE"
       id="path92" />
    <path
       d="M185 167.365C185 167.089 184.776 166.865 184.5 166.865L177 166.865C172.582 166.865 169 170.446 169 174.865C169 179.283 172.582 182.865 177 182.865L184.5 182.865C184.776 182.865 185 182.641 185 182.365L185 167.365Z"
       fill="#0015CE"
       fill-opacity="0.15"
       stroke="#0015CE"
       id="path94" />
    <path
       d="M192.5 164.365C192.5 161.603 194.739 159.365 197.5 159.365H217.5C220.261 159.365 222.5 161.603 222.5 164.365V269.365C222.5 272.126 220.261 274.365 217.5 274.365H197.5C194.739 274.365 192.5 272.126 192.5 269.365V164.365Z"
       fill="#0015CE"
       fill-opacity="0.1"
       id="path96" />
    <path
       d="M203.839 212.065H205.239V221.865H203.629V213.787L201.655 214.347L201.263 212.975L203.839 212.065ZM210.14 215.761C211.073 215.761 211.862 216.041 212.506 216.601C213.15 217.151 213.472 217.917 213.472 218.897C213.472 219.877 213.141 220.647 212.478 221.207C211.815 221.767 211.003 222.047 210.042 222.047C209.267 222.047 208.581 221.869 207.984 221.515C207.387 221.151 206.962 220.628 206.71 219.947L208.096 219.149C208.357 220.035 209.006 220.479 210.042 220.479C210.593 220.479 211.031 220.339 211.358 220.059C211.694 219.769 211.862 219.382 211.862 218.897C211.862 218.411 211.699 218.029 211.372 217.749C211.045 217.469 210.611 217.329 210.07 217.329H207.214L207.592 212.065H213.052V213.577H209.076L208.908 215.761H210.14Z"
       fill="#0015CE"
       id="path98" />
    <path
       d="M197.5 160.365H217.5V158.365H197.5V160.365ZM221.5 164.365V269.365H223.5V164.365H221.5ZM217.5 273.365H197.5V275.365H217.5V273.365ZM193.5 269.365V164.365H191.5V269.365H193.5ZM197.5 273.365C195.291 273.365 193.5 271.574 193.5 269.365H191.5C191.5 272.678 194.186 275.365 197.5 275.365V273.365ZM221.5 269.365C221.5 271.574 219.709 273.365 217.5 273.365V275.365C220.814 275.365 223.5 272.678 223.5 269.365H221.5ZM217.5 160.365C219.709 160.365 221.5 162.156 221.5 164.365H223.5C223.5 161.051 220.814 158.365 217.5 158.365V160.365ZM197.5 158.365C194.186 158.365 191.5 161.051 191.5 164.365H193.5C193.5 162.156 195.291 160.365 197.5 160.365V158.365Z"
       fill="#0015CE"
       id="path100" />
    <path
       d="M230 251.365C230 251.089 230.224 250.865 230.5 250.865H238C242.418 250.865 246 254.446 246 258.865C246 263.283 242.418 266.865 238 266.865H230.5C230.224 266.865 230 266.641 230 266.365V251.365Z"
       fill="#0015CE"
       fill-opacity="0.15"
       stroke="#0015CE"
       id="path102" />
    <path
       d="M230 223.365C230 223.089 230.224 222.865 230.5 222.865H238C242.418 222.865 246 226.446 246 230.865C246 235.283 242.418 238.865 238 238.865H230.5C230.224 238.865 230 238.641 230 238.365V223.365Z"
       fill="#DEE0ED"
       stroke="#B6B5D3"
       id="path104" />
    <path
       d="M230 195.365C230 195.089 230.224 194.865 230.5 194.865H238C242.418 194.865 246 198.446 246 202.865C246 207.283 242.418 210.865 238 210.865H230.5C230.224 210.865 230 210.641 230 210.365V195.365Z"
       fill="#0015CE"
       fill-opacity="0.15"
       stroke="#0015CE"
       id="path106" />
    <path
       d="M230 167.365C230 167.089 230.224 166.865 230.5 166.865H238C242.418 166.865 246 170.446 246 174.865C246 179.283 242.418 182.865 238 182.865H230.5C230.224 182.865 230 182.641 230 182.365V167.365Z"
       fill="#0015CE"
       fill-opacity="0.15"
       stroke="#0015CE"
       id="path108" />
  </g>
  <rect
     x="127.5"
     y="55.8647"
     width="372"
     height="300"
     rx="24"
     stroke="#4354C6"
     stroke-width="8"
     id="rect112" />
  <defs
     id="defs118">
    <clipPath
       id="clip0" />
    <clipPath
       id="clip1">
      <rect
         width="36"
         height="36"
         fill="white"
         transform="translate(342.115 61.3315)"
         id="rect115" />
    </clipPath>
  </defs>
</svg>
