<?xml version="1.0" encoding="UTF-8" standalone="no"?>
<svg
   width="755"
   height="520"
   viewBox="0 0 755 520"
   fill="none"
   version="1.1"
   id="svg192"
   sodipodi:docname="Sovetskaya_1.svg"
   inkscape:version="1.1 (c68e22c387, 2021-05-23)"
   xmlns:inkscape="http://www.inkscape.org/namespaces/inkscape"
   xmlns:sodipodi="http://sodipodi.sourceforge.net/DTD/sodipodi-0.dtd"
   xmlns="http://www.w3.org/2000/svg"
   xmlns:svg="http://www.w3.org/2000/svg">
  <sodipodi:namedview
     id="namedview194"
     pagecolor="#ffffff"
     bordercolor="#666666"
     borderopacity="1.0"
     inkscape:pageshadow="2"
     inkscape:pageopacity="0.0"
     inkscape:pagecheckerboard="0"
     showgrid="false"
     inkscape:zoom="1.4013245"
     inkscape:cx="377.14319"
     inkscape:cy="260.11106"
     inkscape:window-width="1920"
     inkscape:window-height="1017"
     inkscape:window-x="-8"
     inkscape:window-y="264"
     inkscape:window-maximized="1"
     inkscape:current-layer="g182" />
  <path
     d="M348.475 431.958C351.215 433.264 352.585 435.428 352.585 438.45C352.585 440.806 351.688 442.726 349.896 444.212C348.129 445.671 345.811 446.401 342.943 446.401C338.027 446.401 334.774 444.327 333.187 440.179L336.989 437.989C337.783 440.832 339.768 442.253 342.943 442.253C344.633 442.253 345.927 441.894 346.823 441.177C347.719 440.435 348.167 439.449 348.167 438.22C348.167 437.016 347.732 436.056 346.861 435.339C346.016 434.596 344.813 434.225 343.251 434.225H339.986V430.23H342.367C343.878 430.23 345.056 429.884 345.901 429.193C346.746 428.501 347.169 427.579 347.169 426.427C347.169 425.275 346.784 424.366 346.016 423.7C345.248 423.008 344.147 422.663 342.713 422.663C340.05 422.663 338.257 423.879 337.335 426.312L333.571 424.122C335.312 420.384 338.359 418.514 342.713 418.514C345.35 418.514 347.489 419.231 349.128 420.665C350.766 422.074 351.586 423.918 351.586 426.197C351.586 428.732 350.549 430.652 348.475 431.958ZM371.386 426.696H375.535V445.902H371.386V443.136C369.824 445.313 367.583 446.401 364.664 446.401C362.027 446.401 359.773 445.428 357.904 443.482C356.034 441.51 355.1 439.116 355.1 436.299C355.1 433.456 356.034 431.062 357.904 429.116C359.773 427.17 362.027 426.197 364.664 426.197C367.583 426.197 369.824 427.272 371.386 429.423V426.696ZM360.977 440.716C362.129 441.869 363.576 442.445 365.317 442.445C367.059 442.445 368.505 441.869 369.658 440.716C370.81 439.538 371.386 438.066 371.386 436.299C371.386 434.532 370.81 433.072 369.658 431.92C368.505 430.742 367.059 430.153 365.317 430.153C363.576 430.153 362.129 430.742 360.977 431.92C359.824 433.072 359.248 434.532 359.248 436.299C359.248 438.066 359.824 439.538 360.977 440.716ZM396.58 426.696V445.902H392.431V430.691H386.017V437.835C386.017 440.883 385.351 443.047 384.019 444.327C382.688 445.607 380.793 446.132 378.334 445.902V442.022C379.512 442.227 380.396 441.984 380.985 441.292C381.574 440.601 381.868 439.385 381.868 437.643V426.696H396.58ZM416.164 419.014H420.005V445.902H415.588V423.738L410.172 425.275L409.096 421.51L416.164 419.014Z"
     fill="#4354C6"
     id="path2" />
  <g
     id="g182">
    <rect
       x="89.5"
       y="60.0981"
       width="576"
       height="315"
       rx="24"
       fill="#F8F9FD"
       id="rect4" />
    <rect
       x="194.195"
       y="75.1118"
       width="284"
       height="106"
       rx="20"
       fill="#F0F1F8"
       id="rect6" />
    <path
       d="M216.695 106.612C216.419 106.612 216.195 106.388 216.195 106.112L216.195 98.6118C216.195 94.1935 219.777 90.6118 224.195 90.6118C228.613 90.6118 232.195 94.1935 232.195 98.6118L232.195 106.112C232.195 106.388 231.971 106.612 231.695 106.612L216.695 106.612Z"
       fill="#0015CE"
       fill-opacity="0.15"
       stroke="#0015CE"
       id="path8" />
    <path
       d="M209.195 118.112C209.195 115.35 211.434 113.112 214.195 113.112H234.195C236.956 113.112 239.195 115.35 239.195 118.112V138.112C239.195 140.873 236.956 143.112 234.195 143.112H214.195C211.434 143.112 209.195 140.873 209.195 138.112V118.112Z"
       fill="#0015CE"
       fill-opacity="0.1"
       id="path10" />
    <path
       d="M225.091 126.816C225.8 126.984 226.374 127.315 226.813 127.81C227.261 128.295 227.485 128.906 227.485 129.644C227.485 130.624 227.153 131.394 226.491 131.954C225.828 132.514 225.016 132.794 224.055 132.794C223.308 132.794 222.636 132.621 222.039 132.276C221.451 131.93 221.026 131.426 220.765 130.764L222.137 129.966C222.426 130.806 223.065 131.226 224.055 131.226C224.615 131.226 225.058 131.086 225.385 130.806C225.711 130.516 225.875 130.129 225.875 129.644C225.875 129.158 225.711 128.776 225.385 128.496C225.058 128.216 224.615 128.076 224.055 128.076H223.691L223.047 127.11L225.161 124.324H221.059V122.812H227.079V124.184L225.091 126.816Z"
       fill="#0015CE"
       id="path12" />
    <path
       d="M214.195 114.112H234.195V112.112H214.195V114.112ZM238.195 118.112V138.112H240.195V118.112H238.195ZM234.195 142.112H214.195V144.112H234.195V142.112ZM210.195 138.112V118.112H208.195V138.112H210.195ZM214.195 142.112C211.986 142.112 210.195 140.321 210.195 138.112H208.195C208.195 141.426 210.881 144.112 214.195 144.112V142.112ZM238.195 138.112C238.195 140.321 236.404 142.112 234.195 142.112V144.112C237.509 144.112 240.195 141.426 240.195 138.112H238.195ZM234.195 114.112C236.404 114.112 238.195 115.903 238.195 118.112H240.195C240.195 114.798 237.509 112.112 234.195 112.112V114.112ZM214.195 112.112C210.881 112.112 208.195 114.798 208.195 118.112H210.195C210.195 115.903 211.986 114.112 214.195 114.112V112.112Z"
       fill="#0015CE"
       id="path14" />
    <path
       d="M231.695 149.612C231.971 149.612 232.195 149.836 232.195 150.112L232.195 157.612C232.195 162.03 228.613 165.612 224.195 165.612C219.777 165.612 216.195 162.03 216.195 157.612L216.195 150.112C216.195 149.836 216.419 149.612 216.695 149.612L231.695 149.612Z"
       fill="#0015CE"
       fill-opacity="0.15"
       stroke="#0015CE"
       id="path16" />
    <path
       d="M272.695 106.612C272.419 106.612 272.195 106.388 272.195 106.112L272.195 98.6118C272.195 94.1935 275.777 90.6118 280.195 90.6118C284.613 90.6118 288.195 94.1935 288.195 98.6118L288.195 106.112C288.195 106.388 287.971 106.612 287.695 106.612L272.695 106.612Z"
       fill="#0015CE"
       fill-opacity="0.15"
       stroke="#0015CE"
       id="path18" />
    <path
       d="M265.195 118.112C265.195 115.35 267.434 113.112 270.195 113.112H290.195C292.956 113.112 295.195 115.35 295.195 118.112V138.112C295.195 140.873 292.956 143.112 290.195 143.112H270.195C267.434 143.112 265.195 140.873 265.195 138.112V118.112Z"
       fill="#0015CE"
       fill-opacity="0.1"
       id="path20" />
    <path
       d="M284.017 129.35V130.848H282.897V132.612H281.273V130.848H276.457V129.35L279.831 122.812H281.581L278.207 129.35H281.273V126.802H282.897V129.35H284.017Z"
       fill="#0015CE"
       id="path22" />
    <path
       d="M270.195 114.112H290.195V112.112H270.195V114.112ZM294.195 118.112V138.112H296.195V118.112H294.195ZM290.195 142.112H270.195V144.112H290.195V142.112ZM266.195 138.112V118.112H264.195V138.112H266.195ZM270.195 142.112C267.986 142.112 266.195 140.321 266.195 138.112H264.195C264.195 141.426 266.881 144.112 270.195 144.112V142.112ZM294.195 138.112C294.195 140.321 292.404 142.112 290.195 142.112V144.112C293.509 144.112 296.195 141.426 296.195 138.112H294.195ZM290.195 114.112C292.404 114.112 294.195 115.903 294.195 118.112H296.195C296.195 114.798 293.509 112.112 290.195 112.112V114.112ZM270.195 112.112C266.881 112.112 264.195 114.798 264.195 118.112H266.195C266.195 115.903 267.986 114.112 270.195 114.112V112.112Z"
       fill="#0015CE"
       id="path24" />
    <path
       d="M287.695 149.612C287.971 149.612 288.195 149.836 288.195 150.112L288.195 157.612C288.195 162.03 284.613 165.612 280.195 165.612C275.777 165.612 272.195 162.03 272.195 157.612L272.195 150.112C272.195 149.836 272.419 149.612 272.695 149.612L287.695 149.612Z"
       fill="#0015CE"
       fill-opacity="0.15"
       stroke="#0015CE"
       id="path26" />
    <path
       d="M328.695 106.612C328.419 106.612 328.195 106.388 328.195 106.112L328.195 98.6118C328.195 94.1935 331.777 90.6118 336.195 90.6118C340.613 90.6118 344.195 94.1935 344.195 98.6118L344.195 106.112C344.195 106.388 343.971 106.612 343.695 106.612L328.695 106.612Z"
       fill="#0015CE"
       fill-opacity="0.15"
       stroke="#0015CE"
       id="path28" />
    <path
       d="M321.195 118.112C321.195 115.35 323.434 113.112 326.195 113.112H346.195C348.956 113.112 351.195 115.35 351.195 118.112V138.112C351.195 140.873 348.956 143.112 346.195 143.112H326.195C323.434 143.112 321.195 140.873 321.195 138.112V118.112Z"
       fill="#0015CE"
       fill-opacity="0.1"
       id="path30" />
    <path
       d="M336.231 126.508C337.164 126.508 337.953 126.788 338.597 127.348C339.241 127.898 339.563 128.664 339.563 129.644C339.563 130.624 339.231 131.394 338.569 131.954C337.906 132.514 337.094 132.794 336.133 132.794C335.358 132.794 334.672 132.616 334.075 132.262C333.477 131.898 333.053 131.375 332.801 130.694L334.187 129.896C334.448 130.782 335.097 131.226 336.133 131.226C336.683 131.226 337.122 131.086 337.449 130.806C337.785 130.516 337.953 130.129 337.953 129.644C337.953 129.158 337.789 128.776 337.463 128.496C337.136 128.216 336.702 128.076 336.161 128.076H333.305L333.683 122.812H339.143V124.324H335.167L334.999 126.508H336.231Z"
       fill="#0015CE"
       id="path32" />
    <path
       d="M326.195 114.112H346.195V112.112H326.195V114.112ZM350.195 118.112V138.112H352.195V118.112H350.195ZM346.195 142.112H326.195V144.112H346.195V142.112ZM322.195 138.112V118.112H320.195V138.112H322.195ZM326.195 142.112C323.986 142.112 322.195 140.321 322.195 138.112H320.195C320.195 141.426 322.881 144.112 326.195 144.112V142.112ZM350.195 138.112C350.195 140.321 348.404 142.112 346.195 142.112V144.112C349.509 144.112 352.195 141.426 352.195 138.112H350.195ZM346.195 114.112C348.404 114.112 350.195 115.903 350.195 118.112H352.195C352.195 114.798 349.509 112.112 346.195 112.112V114.112ZM326.195 112.112C322.881 112.112 320.195 114.798 320.195 118.112H322.195C322.195 115.903 323.986 114.112 326.195 114.112V112.112Z"
       fill="#0015CE"
       id="path34" />
    <path
       d="M343.695 149.612C343.971 149.612 344.195 149.836 344.195 150.112L344.195 157.612C344.195 162.03 340.613 165.612 336.195 165.612C331.777 165.612 328.195 162.03 328.195 157.612L328.195 150.112C328.195 149.836 328.419 149.612 328.695 149.612L343.695 149.612Z"
       fill="#0015CE"
       fill-opacity="0.15"
       stroke="#0015CE"
       id="path36" />
    <path
       d="M384.695 106.612C384.419 106.612 384.195 106.388 384.195 106.112L384.195 98.6118C384.195 94.1935 387.777 90.6118 392.195 90.6118C396.613 90.6118 400.195 94.1935 400.195 98.6118L400.195 106.112C400.195 106.388 399.971 106.612 399.695 106.612L384.695 106.612Z"
       fill="#0015CE"
       fill-opacity="0.15"
       stroke="#0015CE"
       id="path38" />
    <path
       d="M377.195 118.112C377.195 115.35 379.434 113.112 382.195 113.112H402.195C404.956 113.112 407.195 115.35 407.195 118.112V138.112C407.195 140.873 404.956 143.112 402.195 143.112H382.195C379.434 143.112 377.195 140.873 377.195 138.112V118.112Z"
       fill="#0015CE"
       fill-opacity="0.1"
       id="path40" />
    <path
       d="M392.203 126.102C393.22 126.102 394.051 126.414 394.695 127.04C395.339 127.656 395.661 128.458 395.661 129.448C395.661 130.437 395.339 131.244 394.695 131.87C394.051 132.486 393.22 132.794 392.203 132.794C391.176 132.794 390.341 132.486 389.697 131.87C389.053 131.244 388.731 130.437 388.731 129.448C388.731 128.701 388.927 128.043 389.319 127.474L392.427 122.812H394.261L392.021 126.102H392.203ZM392.203 131.268C392.744 131.268 393.187 131.104 393.533 130.778C393.878 130.442 394.051 129.998 394.051 129.448C394.051 128.897 393.878 128.458 393.533 128.132C393.187 127.796 392.744 127.628 392.203 127.628C391.652 127.628 391.204 127.796 390.859 128.132C390.513 128.458 390.341 128.897 390.341 129.448C390.341 129.998 390.513 130.442 390.859 130.778C391.204 131.104 391.652 131.268 392.203 131.268Z"
       fill="#0015CE"
       id="path42" />
    <path
       d="M382.195 114.112H402.195V112.112H382.195V114.112ZM406.195 118.112V138.112H408.195V118.112H406.195ZM402.195 142.112H382.195V144.112H402.195V142.112ZM378.195 138.112V118.112H376.195V138.112H378.195ZM382.195 142.112C379.986 142.112 378.195 140.321 378.195 138.112H376.195C376.195 141.426 378.881 144.112 382.195 144.112V142.112ZM406.195 138.112C406.195 140.321 404.404 142.112 402.195 142.112V144.112C405.509 144.112 408.195 141.426 408.195 138.112H406.195ZM402.195 114.112C404.404 114.112 406.195 115.903 406.195 118.112H408.195C408.195 114.798 405.509 112.112 402.195 112.112V114.112ZM382.195 112.112C378.881 112.112 376.195 114.798 376.195 118.112H378.195C378.195 115.903 379.986 114.112 382.195 114.112V112.112Z"
       fill="#0015CE"
       id="path44" />
    <path
       d="M399.695 149.612C399.971 149.612 400.195 149.836 400.195 150.112L400.195 157.612C400.195 162.03 396.613 165.612 392.195 165.612C387.777 165.612 384.195 162.03 384.195 157.612L384.195 150.112C384.195 149.836 384.419 149.612 384.695 149.612L399.695 149.612Z"
       fill="#0015CE"
       fill-opacity="0.15"
       stroke="#0015CE"
       id="path46" />
    <path
       d="M440.695 106.612C440.419 106.612 440.195 106.388 440.195 106.112L440.195 98.6118C440.195 94.1935 443.777 90.6118 448.195 90.6118C452.613 90.6118 456.195 94.1935 456.195 98.6118L456.195 106.112C456.195 106.388 455.971 106.612 455.695 106.612L440.695 106.612Z"
       fill="#0015CE"
       fill-opacity="0.15"
       stroke="#0015CE"
       id="path48" />
    <path
       d="M433.195 118.112C433.195 115.35 435.434 113.112 438.195 113.112H458.195C460.956 113.112 463.195 115.35 463.195 118.112V138.112C463.195 140.873 460.956 143.112 458.195 143.112H438.195C435.434 143.112 433.195 140.873 433.195 138.112V118.112Z"
       fill="#0015CE"
       fill-opacity="0.1"
       id="path50" />
    <path
       d="M444.973 122.812H451.203V124.212L447.759 132.612H446.065L449.453 124.352H444.973V122.812Z"
       fill="#0015CE"
       id="path52" />
    <path
       d="M438.195 114.112H458.195V112.112H438.195V114.112ZM462.195 118.112V138.112H464.195V118.112H462.195ZM458.195 142.112H438.195V144.112H458.195V142.112ZM434.195 138.112V118.112H432.195V138.112H434.195ZM438.195 142.112C435.986 142.112 434.195 140.321 434.195 138.112H432.195C432.195 141.426 434.881 144.112 438.195 144.112V142.112ZM462.195 138.112C462.195 140.321 460.404 142.112 458.195 142.112V144.112C461.509 144.112 464.195 141.426 464.195 138.112H462.195ZM458.195 114.112C460.404 114.112 462.195 115.903 462.195 118.112H464.195C464.195 114.798 461.509 112.112 458.195 112.112V114.112ZM438.195 112.112C434.881 112.112 432.195 114.798 432.195 118.112H434.195C434.195 115.903 435.986 114.112 438.195 114.112V112.112Z"
       fill="#0015CE"
       id="path54" />
    <path
       d="M455.695 149.612C455.971 149.612 456.195 149.836 456.195 150.112L456.195 157.612C456.195 162.03 452.613 165.612 448.195 165.612C443.777 165.612 440.195 162.03 440.195 157.612L440.195 150.112C440.195 149.836 440.419 149.612 440.695 149.612L455.695 149.612Z"
       fill="#0015CE"
       fill-opacity="0.15"
       stroke="#0015CE"
       id="path56" />
    <rect
       x="281.232"
       y="241.794"
       width="152"
       height="106"
       rx="20"
       fill="#F0F1F8"
       id="rect58" />
    <path
       d="M303.732 273.294C303.456 273.294 303.232 273.071 303.232 272.794L303.232 265.294C303.232 260.876 306.813 257.294 311.232 257.294C315.65 257.294 319.232 260.876 319.232 265.294L319.232 272.794C319.232 273.071 319.008 273.294 318.732 273.294L303.732 273.294Z"
       fill="#0015CE"
       fill-opacity="0.15"
       stroke="#0015CE"
       id="path60" />
    <path
       d="M296.232 284.794C296.232 282.033 298.47 279.794 301.232 279.794H321.232C323.993 279.794 326.232 282.033 326.232 284.794V304.794C326.232 307.556 323.993 309.794 321.232 309.794H301.232C298.47 309.794 296.232 307.556 296.232 304.794V284.794Z"
       fill="#0015CE"
       fill-opacity="0.1"
       id="path62" />
    <path
       d="M306.976 289.494H308.376V299.294H306.766V291.216L304.792 291.776L304.4 290.404L306.976 289.494ZM316.665 298.09C315.993 299.014 315.05 299.476 313.837 299.476C312.624 299.476 311.676 299.014 310.995 298.09C310.323 297.166 309.987 295.934 309.987 294.394C309.987 292.854 310.323 291.622 310.995 290.698C311.676 289.774 312.624 289.312 313.837 289.312C315.05 289.312 315.993 289.774 316.665 290.698C317.346 291.622 317.687 292.854 317.687 294.394C317.687 295.934 317.346 297.166 316.665 298.09ZM313.837 297.908C314.565 297.908 315.12 297.605 315.503 296.998C315.886 296.392 316.077 295.524 316.077 294.394C316.077 293.265 315.886 292.397 315.503 291.79C315.12 291.184 314.565 290.88 313.837 290.88C313.118 290.88 312.563 291.184 312.171 291.79C311.788 292.397 311.597 293.265 311.597 294.394C311.597 295.524 311.788 296.392 312.171 296.998C312.563 297.605 313.118 297.908 313.837 297.908Z"
       fill="#0015CE"
       id="path64" />
    <path
       d="M301.232 280.794H321.232V278.794H301.232V280.794ZM325.232 284.794V304.794H327.232V284.794H325.232ZM321.232 308.794H301.232V310.794H321.232V308.794ZM297.232 304.794V284.794H295.232V304.794H297.232ZM301.232 308.794C299.023 308.794 297.232 307.004 297.232 304.794H295.232C295.232 308.108 297.918 310.794 301.232 310.794V308.794ZM325.232 304.794C325.232 307.004 323.441 308.794 321.232 308.794V310.794C324.545 310.794 327.232 308.108 327.232 304.794H325.232ZM321.232 280.794C323.441 280.794 325.232 282.585 325.232 284.794H327.232C327.232 281.481 324.545 278.794 321.232 278.794V280.794ZM301.232 278.794C297.918 278.794 295.232 281.481 295.232 284.794H297.232C297.232 282.585 299.023 280.794 301.232 280.794V278.794Z"
       fill="#0015CE"
       id="path66" />
    <path
       d="M318.732 316.294C319.008 316.294 319.232 316.518 319.232 316.794L319.232 324.294C319.232 328.713 315.65 332.294 311.232 332.294C306.813 332.294 303.232 328.713 303.232 324.294L303.232 316.794C303.232 316.518 303.456 316.294 303.732 316.294L318.732 316.294Z"
       fill="#0015CE"
       fill-opacity="0.15"
       stroke="#0015CE"
       id="path68" />
    <path
       d="M349.732 273.294C349.456 273.294 349.232 273.071 349.232 272.794L349.232 265.294C349.232 260.876 352.813 257.294 357.232 257.294C361.65 257.294 365.232 260.876 365.232 265.294L365.232 272.794C365.232 273.071 365.008 273.294 364.732 273.294L349.732 273.294Z"
       fill="#0015CE"
       fill-opacity="0.15"
       stroke="#0015CE"
       id="path70" />
    <path
       d="M342.232 284.794C342.232 282.033 344.47 279.794 347.232 279.794H367.232C369.993 279.794 372.232 282.033 372.232 284.794V304.794C372.232 307.556 369.993 309.794 367.232 309.794H347.232C344.47 309.794 342.232 307.556 342.232 304.794V284.794Z"
       fill="#0015CE"
       fill-opacity="0.1"
       id="path72" />
    <path
       d="M354.781 289.494H356.181V299.294H354.571V291.216L352.597 291.776L352.205 290.404L354.781 289.494ZM359.99 289.494H361.39V299.294H359.78V291.216L357.806 291.776L357.414 290.404L359.99 289.494Z"
       fill="#0015CE"
       id="path74" />
    <path
       d="M347.232 280.794H367.232V278.794H347.232V280.794ZM371.232 284.794V304.794H373.232V284.794H371.232ZM367.232 308.794H347.232V310.794H367.232V308.794ZM343.232 304.794V284.794H341.232V304.794H343.232ZM347.232 308.794C345.023 308.794 343.232 307.004 343.232 304.794H341.232C341.232 308.108 343.918 310.794 347.232 310.794V308.794ZM371.232 304.794C371.232 307.004 369.441 308.794 367.232 308.794V310.794C370.545 310.794 373.232 308.108 373.232 304.794H371.232ZM367.232 280.794C369.441 280.794 371.232 282.585 371.232 284.794H373.232C373.232 281.481 370.545 278.794 367.232 278.794V280.794ZM347.232 278.794C343.918 278.794 341.232 281.481 341.232 284.794H343.232C343.232 282.585 345.023 280.794 347.232 280.794V278.794Z"
       fill="#0015CE"
       id="path76" />
    <path
       d="M364.732 316.294C365.008 316.294 365.232 316.518 365.232 316.794L365.232 324.294C365.232 328.713 361.65 332.294 357.232 332.294C352.813 332.294 349.232 328.713 349.232 324.294L349.232 316.794C349.232 316.518 349.456 316.294 349.732 316.294L364.732 316.294Z"
       fill="#0015CE"
       fill-opacity="0.15"
       stroke="#0015CE"
       id="path78" />
    <path
       d="M395.732 273.294C395.456 273.294 395.232 273.071 395.232 272.794L395.232 265.294C395.232 260.876 398.813 257.294 403.232 257.294C407.65 257.294 411.232 260.876 411.232 265.294L411.232 272.794C411.232 273.071 411.008 273.294 410.732 273.294L395.732 273.294Z"
       fill="#0015CE"
       fill-opacity="0.15"
       stroke="#0015CE"
       id="path80" />
    <path
       d="M388.232 284.794C388.232 282.033 390.47 279.794 393.232 279.794H413.232C415.993 279.794 418.232 282.033 418.232 284.794V304.794C418.232 307.556 415.993 309.794 413.232 309.794H393.232C390.47 309.794 388.232 307.556 388.232 304.794V284.794Z"
       fill="#0015CE"
       fill-opacity="0.1"
       id="path82" />
    <path
       d="M399.68 289.494H401.08V299.294H399.47V291.216L397.496 291.776L397.104 290.404L399.68 289.494ZM402.565 299.294V298.034L405.981 294.548C406.812 293.718 407.227 292.999 407.227 292.392C407.227 291.916 407.082 291.548 406.793 291.286C406.513 291.016 406.154 290.88 405.715 290.88C404.894 290.88 404.287 291.286 403.895 292.098L402.537 291.3C402.845 290.647 403.279 290.152 403.839 289.816C404.399 289.48 405.02 289.312 405.701 289.312C406.56 289.312 407.297 289.583 407.913 290.124C408.529 290.666 408.837 291.403 408.837 292.336C408.837 293.335 408.282 294.399 407.171 295.528L404.959 297.74H409.019V299.294H402.565Z"
       fill="#0015CE"
       id="path84" />
    <path
       d="M393.232 280.794H413.232V278.794H393.232V280.794ZM417.232 284.794V304.794H419.232V284.794H417.232ZM413.232 308.794H393.232V310.794H413.232V308.794ZM389.232 304.794V284.794H387.232V304.794H389.232ZM393.232 308.794C391.023 308.794 389.232 307.004 389.232 304.794H387.232C387.232 308.108 389.918 310.794 393.232 310.794V308.794ZM417.232 304.794C417.232 307.004 415.441 308.794 413.232 308.794V310.794C416.545 310.794 419.232 308.108 419.232 304.794H417.232ZM413.232 280.794C415.441 280.794 417.232 282.585 417.232 284.794H419.232C419.232 281.481 416.545 278.794 413.232 278.794V280.794ZM393.232 278.794C389.918 278.794 387.232 281.481 387.232 284.794H389.232C389.232 282.585 391.023 280.794 393.232 280.794V278.794Z"
       fill="#0015CE"
       id="path86" />
    <path
       d="M410.732 316.294C411.008 316.294 411.232 316.518 411.232 316.794L411.232 324.294C411.232 328.713 407.65 332.294 403.232 332.294C398.813 332.294 395.232 328.713 395.232 324.294L395.232 316.794C395.232 316.518 395.456 316.294 395.732 316.294L410.732 316.294Z"
       fill="#0015CE"
       fill-opacity="0.15"
       stroke="#0015CE"
       id="path88" />
    <path
       d="M93.5 159.294H158.5C169.546 159.294 178.5 168.249 178.5 179.294V240.294C178.5 251.34 169.546 260.294 158.5 260.294H93.5V159.294Z"
       fill="#F0F1F8"
       id="path90" />
    <path
       d="M108.5 179.294C108.5 176.533 110.739 174.294 113.5 174.294H137.5C140.261 174.294 142.5 176.533 142.5 179.294V240.294C142.5 243.056 140.261 245.294 137.5 245.294H113.5C110.739 245.294 108.5 243.056 108.5 240.294V179.294Z"
       fill="#0015CE"
       fill-opacity="0.1"
       id="path92" />
    <path
       d="M125.654 204.994H127.054V214.794H125.444V206.716L123.47 207.276L123.078 205.904L125.654 204.994Z"
       fill="#0015CE"
       id="path94" />
    <path
       d="M113.5 175.294H137.5V173.294H113.5V175.294ZM141.5 179.294V240.294H143.5V179.294H141.5ZM137.5 244.294H113.5V246.294H137.5V244.294ZM109.5 240.294V179.294H107.5V240.294H109.5ZM113.5 244.294C111.291 244.294 109.5 242.504 109.5 240.294H107.5C107.5 243.608 110.186 246.294 113.5 246.294V244.294ZM141.5 240.294C141.5 242.504 139.709 244.294 137.5 244.294V246.294C140.814 246.294 143.5 243.608 143.5 240.294H141.5ZM137.5 175.294C139.709 175.294 141.5 177.085 141.5 179.294H143.5C143.5 175.981 140.814 173.294 137.5 173.294V175.294ZM113.5 173.294C110.186 173.294 107.5 175.981 107.5 179.294H109.5C109.5 177.085 111.291 175.294 113.5 175.294V173.294Z"
       fill="#0015CE"
       id="path96" />
    <path
       d="M147 189.294C147 189.018 147.224 188.794 147.5 188.794H155C159.418 188.794 163 192.376 163 196.794C163 201.213 159.418 204.794 155 204.794H147.5C147.224 204.794 147 204.571 147 204.294V189.294Z"
       fill="#0015CE"
       fill-opacity="0.15"
       stroke="#0015CE"
       id="path98" />
    <path
       d="M147 215.294C147 215.018 147.224 214.794 147.5 214.794H155C159.418 214.794 163 218.376 163 222.794C163 227.213 159.418 230.794 155 230.794H147.5C147.224 230.794 147 230.571 147 230.294V215.294Z"
       fill="#0015CE"
       fill-opacity="0.15"
       stroke="#0015CE"
       id="path100" />
    <rect
       x="493.232"
       y="75.1118"
       width="153"
       height="108"
       rx="20"
       fill="#F0F1F8"
       id="rect102" />
    <path
       d="M530.732 106.612C531.008 106.612 531.232 106.388 531.232 106.112L531.232 98.6118C531.232 94.1935 527.65 90.6118 523.232 90.6118C518.813 90.6118 515.232 94.1935 515.232 98.6118L515.232 106.112C515.232 106.388 515.456 106.612 515.732 106.612L530.732 106.612Z"
       fill="#0015CE"
       fill-opacity="0.15"
       stroke="#0015CE"
       id="path104" />
    <path
       d="M553.732 106.612C554.008 106.612 554.232 106.388 554.232 106.112L554.232 98.6118C554.232 94.1935 550.65 90.6118 546.232 90.6118C541.813 90.6118 538.232 94.1935 538.232 98.6118L538.232 106.112C538.232 106.388 538.456 106.612 538.732 106.612L553.732 106.612Z"
       fill="#0015CE"
       fill-opacity="0.15"
       stroke="#0015CE"
       id="path106" />
    <path
       d="M508.232 119.112C508.232 116.35 510.47 114.112 513.232 114.112H556.232C558.993 114.112 561.232 116.35 561.232 119.112V139.112C561.232 141.873 558.993 144.112 556.232 144.112H513.232C510.47 144.112 508.232 141.873 508.232 139.112V119.112Z"
       fill="#0015CE"
       fill-opacity="0.1"
       id="path108" />
    <path
       d="M537.23 128.516C538.191 129.048 538.672 129.841 538.672 130.896C538.672 131.792 538.359 132.501 537.734 133.024C537.109 133.537 536.278 133.794 535.242 133.794C534.206 133.794 533.371 133.537 532.736 133.024C532.111 132.501 531.798 131.792 531.798 130.896C531.798 130.392 531.924 129.934 532.176 129.524C532.428 129.104 532.783 128.768 533.24 128.516C532.503 128.03 532.134 127.34 532.134 126.444C532.134 125.548 532.433 124.857 533.03 124.372C533.627 123.877 534.365 123.63 535.242 123.63C536.11 123.63 536.843 123.877 537.44 124.372C538.047 124.857 538.35 125.548 538.35 126.444C538.35 127.34 537.977 128.03 537.23 128.516ZM535.242 125.156C534.803 125.156 534.444 125.272 534.164 125.506C533.884 125.739 533.744 126.075 533.744 126.514C533.744 126.934 533.884 127.265 534.164 127.508C534.453 127.75 534.813 127.872 535.242 127.872C535.662 127.872 536.017 127.75 536.306 127.508C536.595 127.265 536.74 126.934 536.74 126.514C536.74 126.075 536.595 125.739 536.306 125.506C536.026 125.272 535.671 125.156 535.242 125.156ZM535.242 132.268C535.783 132.268 536.222 132.137 536.558 131.876C536.894 131.605 537.062 131.227 537.062 130.742C537.062 130.256 536.894 129.883 536.558 129.622C536.222 129.351 535.783 129.216 535.242 129.216C534.691 129.216 534.248 129.351 533.912 129.622C533.576 129.883 533.408 130.256 533.408 130.742C533.408 131.227 533.576 131.605 533.912 131.876C534.248 132.137 534.691 132.268 535.242 132.268Z"
       fill="#0015CE"
       id="path110" />
    <path
       d="M513.232 115.112H556.232V113.112H513.232V115.112ZM560.232 119.112V139.112H562.232V119.112H560.232ZM556.232 143.112H513.232V145.112H556.232V143.112ZM509.232 139.112V119.112H507.232V139.112H509.232ZM513.232 143.112C511.023 143.112 509.232 141.321 509.232 139.112H507.232C507.232 142.426 509.918 145.112 513.232 145.112V143.112ZM560.232 139.112C560.232 141.321 558.441 143.112 556.232 143.112V145.112C559.545 145.112 562.232 142.426 562.232 139.112H560.232ZM556.232 115.112C558.441 115.112 560.232 116.903 560.232 119.112H562.232C562.232 115.798 559.545 113.112 556.232 113.112V115.112ZM513.232 113.112C509.918 113.112 507.232 115.798 507.232 119.112H509.232C509.232 116.903 511.023 115.112 513.232 115.112V113.112Z"
       fill="#0015CE"
       id="path112" />
    <path
       d="M530.732 151.612C531.008 151.612 531.232 151.836 531.232 152.112L531.232 159.612C531.232 164.03 527.65 167.612 523.232 167.612C518.813 167.612 515.232 164.03 515.232 159.612L515.232 152.112C515.232 151.836 515.456 151.612 515.732 151.612L530.732 151.612Z"
       fill="#0015CE"
       fill-opacity="0.15"
       stroke="#0015CE"
       id="path114" />
    <path
       d="M553.732 151.612C554.008 151.612 554.232 151.836 554.232 152.112L554.232 159.612C554.232 164.03 550.65 167.612 546.232 167.612C541.813 167.612 538.232 164.03 538.232 159.612L538.232 152.112C538.232 151.836 538.456 151.612 538.732 151.612L553.732 151.612Z"
       fill="#0015CE"
       fill-opacity="0.15"
       stroke="#0015CE"
       id="path116" />
    <path
       d="M600.732 106.612C601.008 106.612 601.232 106.388 601.232 106.112L601.232 98.6118C601.232 94.1935 597.65 90.6118 593.232 90.6118C588.813 90.6118 585.232 94.1935 585.232 98.6118L585.232 106.112C585.232 106.388 585.456 106.612 585.732 106.612L600.732 106.612Z"
       fill="#0015CE"
       fill-opacity="0.15"
       stroke="#0015CE"
       id="path118" />
    <path
       d="M623.732 106.612C624.008 106.612 624.232 106.388 624.232 106.112L624.232 98.6118C624.232 94.1935 620.65 90.6118 616.232 90.6118C611.813 90.6118 608.232 94.1935 608.232 98.6118L608.232 106.112C608.232 106.388 608.456 106.612 608.732 106.612L623.732 106.612Z"
       fill="#0015CE"
       fill-opacity="0.15"
       stroke="#0015CE"
       id="path120" />
    <path
       d="M578.232 119.112C578.232 116.35 580.47 114.112 583.232 114.112H626.232C628.993 114.112 631.232 116.35 631.232 119.112V139.112C631.232 141.873 628.993 144.112 626.232 144.112H583.232C580.47 144.112 578.232 141.873 578.232 139.112V119.112Z"
       fill="#0015CE"
       fill-opacity="0.1"
       id="path122" />
    <path
       d="M608.697 126.976C608.697 127.722 608.501 128.38 608.109 128.95L605.015 133.612H603.167L605.407 130.322H605.239C604.222 130.322 603.387 130.014 602.733 129.398C602.089 128.772 601.767 127.965 601.767 126.976C601.767 125.986 602.089 125.184 602.733 124.568C603.387 123.942 604.222 123.63 605.239 123.63C606.257 123.63 607.087 123.942 607.731 124.568C608.375 125.184 608.697 125.986 608.697 126.976ZM603.377 126.976C603.377 127.517 603.55 127.956 603.895 128.292C604.25 128.628 604.698 128.796 605.239 128.796C605.781 128.796 606.224 128.632 606.569 128.306C606.915 127.97 607.087 127.526 607.087 126.976C607.087 126.425 606.915 125.986 606.569 125.66C606.224 125.324 605.781 125.156 605.239 125.156C604.698 125.156 604.25 125.324 603.895 125.66C603.55 125.986 603.377 126.425 603.377 126.976Z"
       fill="#0015CE"
       id="path124" />
    <path
       d="M583.232 115.112H626.232V113.112H583.232V115.112ZM630.232 119.112V139.112H632.232V119.112H630.232ZM626.232 143.112H583.232V145.112H626.232V143.112ZM579.232 139.112V119.112H577.232V139.112H579.232ZM583.232 143.112C581.023 143.112 579.232 141.321 579.232 139.112H577.232C577.232 142.426 579.918 145.112 583.232 145.112V143.112ZM630.232 139.112C630.232 141.321 628.441 143.112 626.232 143.112V145.112C629.545 145.112 632.232 142.426 632.232 139.112H630.232ZM626.232 115.112C628.441 115.112 630.232 116.903 630.232 119.112H632.232C632.232 115.798 629.545 113.112 626.232 113.112V115.112ZM583.232 113.112C579.918 113.112 577.232 115.798 577.232 119.112H579.232C579.232 116.903 581.023 115.112 583.232 115.112V113.112Z"
       fill="#0015CE"
       id="path126" />
    <path
       d="M600.732 151.612C601.008 151.612 601.232 151.836 601.232 152.112L601.232 159.612C601.232 164.03 597.65 167.612 593.232 167.612C588.813 167.612 585.232 164.03 585.232 159.612L585.232 152.112C585.232 151.836 585.456 151.612 585.732 151.612L600.732 151.612Z"
       fill="#0015CE"
       fill-opacity="0.15"
       stroke="#0015CE"
       id="path128" />
    <path
       d="M623.732 151.612C624.008 151.612 624.232 151.836 624.232 152.112L624.232 159.612C624.232 164.03 620.65 167.612 616.232 167.612C611.813 167.612 608.232 164.03 608.232 159.612L608.232 152.112C608.232 151.836 608.456 151.612 608.732 151.612L623.732 151.612Z"
       fill="#0015CE"
       fill-opacity="0.15"
       stroke="#0015CE"
       id="path130" />
    <rect
       x="449.232"
       y="242.794"
       width="197"
       height="108"
       rx="20"
       fill="#F0F1F8"
       id="rect132" />
    <path
       d="M485.232 274.294C485.508 274.294 485.732 274.071 485.732 273.794L485.732 266.294C485.732 261.876 482.15 258.294 477.732 258.294C473.313 258.294 469.732 261.876 469.732 266.294L469.732 273.794C469.732 274.071 469.956 274.294 470.232 274.294L485.232 274.294Z"
       fill="#0015CE"
       fill-opacity="0.15"
       stroke="#0015CE"
       id="path134" />
    <path
       d="M508.232 274.294C508.508 274.294 508.732 274.071 508.732 273.794L508.732 266.294C508.732 261.876 505.15 258.294 500.732 258.294C496.313 258.294 492.732 261.876 492.732 266.294L492.732 273.794C492.732 274.071 492.956 274.294 493.232 274.294L508.232 274.294Z"
       fill="#0015CE"
       fill-opacity="0.15"
       stroke="#0015CE"
       id="path136" />
    <path
       d="M531.232 274.294C531.508 274.294 531.732 274.071 531.732 273.794L531.732 266.294C531.732 261.876 528.15 258.294 523.732 258.294C519.313 258.294 515.732 261.876 515.732 266.294L515.732 273.794C515.732 274.071 515.956 274.294 516.232 274.294L531.232 274.294Z"
       fill="#0015CE"
       fill-opacity="0.15"
       stroke="#0015CE"
       id="path138" />
    <path
       d="M464.232 286.794C464.232 284.033 466.47 281.794 469.232 281.794H532.232C534.993 281.794 537.232 284.033 537.232 286.794V306.794C537.232 309.556 534.993 311.794 532.232 311.794H469.232C466.47 311.794 464.232 309.556 464.232 306.794V286.794Z"
       fill="#0015CE"
       fill-opacity="0.1"
       id="path140" />
    <path
       d="M497.605 291.494H499.005V301.294H497.395V293.216L495.421 293.776L495.029 292.404L497.605 291.494ZM504.732 295.498C505.441 295.666 506.015 295.998 506.454 296.492C506.902 296.978 507.126 297.589 507.126 298.326C507.126 299.306 506.795 300.076 506.132 300.636C505.469 301.196 504.657 301.476 503.696 301.476C502.949 301.476 502.277 301.304 501.68 300.958C501.092 300.613 500.667 300.109 500.406 299.446L501.778 298.648C502.067 299.488 502.707 299.908 503.696 299.908C504.256 299.908 504.699 299.768 505.026 299.488C505.353 299.199 505.516 298.812 505.516 298.326C505.516 297.841 505.353 297.458 505.026 297.178C504.699 296.898 504.256 296.758 503.696 296.758H503.332L502.688 295.792L504.802 293.006H500.7V291.494H506.72V292.866L504.732 295.498Z"
       fill="#0015CE"
       id="path142" />
    <path
       d="M469.232 282.794H532.232V280.794H469.232V282.794ZM536.232 286.794V306.794H538.232V286.794H536.232ZM532.232 310.794H469.232V312.794H532.232V310.794ZM465.232 306.794V286.794H463.232V306.794H465.232ZM469.232 310.794C467.023 310.794 465.232 309.004 465.232 306.794H463.232C463.232 310.108 465.918 312.794 469.232 312.794V310.794ZM536.232 306.794C536.232 309.004 534.441 310.794 532.232 310.794V312.794C535.545 312.794 538.232 310.108 538.232 306.794H536.232ZM532.232 282.794C534.441 282.794 536.232 284.585 536.232 286.794H538.232C538.232 283.481 535.545 280.794 532.232 280.794V282.794ZM469.232 280.794C465.918 280.794 463.232 283.481 463.232 286.794H465.232C465.232 284.585 467.023 282.794 469.232 282.794V280.794Z"
       fill="#0015CE"
       id="path144" />
    <path
       d="M485.232 319.294C485.508 319.294 485.732 319.518 485.732 319.794L485.732 327.294C485.732 331.713 482.15 335.294 477.732 335.294C473.313 335.294 469.732 331.713 469.732 327.294L469.732 319.794C469.732 319.518 469.956 319.294 470.232 319.294L485.232 319.294Z"
       fill="#0015CE"
       fill-opacity="0.15"
       stroke="#0015CE"
       id="path146" />
    <path
       d="M508.232 319.294C508.508 319.294 508.732 319.518 508.732 319.794L508.732 327.294C508.732 331.713 505.15 335.294 500.732 335.294C496.313 335.294 492.732 331.713 492.732 327.294L492.732 319.794C492.732 319.518 492.956 319.294 493.232 319.294L508.232 319.294Z"
       fill="#0015CE"
       fill-opacity="0.15"
       stroke="#0015CE"
       id="path148" />
    <path
       d="M531.232 319.294C531.508 319.294 531.732 319.518 531.732 319.794L531.732 327.294C531.732 331.713 528.15 335.294 523.732 335.294C519.313 335.294 515.732 331.713 515.732 327.294L515.732 319.794C515.732 319.518 515.956 319.294 516.232 319.294L531.232 319.294Z"
       fill="#0015CE"
       fill-opacity="0.15"
       stroke="#0015CE"
       id="path150" />
    <path
       d="M579.232 274.294C579.508 274.294 579.732 274.071 579.732 273.794L579.732 266.294C579.732 261.876 576.15 258.294 571.732 258.294C567.313 258.294 563.732 261.876 563.732 266.294L563.732 273.794C563.732 274.071 563.956 274.294 564.232 274.294L579.232 274.294Z"
       fill="#0015CE"
       fill-opacity="0.15"
       stroke="#0015CE"
       id="path152" />
    <path
       d="M602.232 274.294C602.508 274.294 602.732 274.071 602.732 273.794L602.732 266.294C602.732 261.876 599.15 258.294 594.732 258.294C590.313 258.294 586.732 261.876 586.732 266.294L586.732 273.794C586.732 274.071 586.956 274.294 587.232 274.294L602.232 274.294Z"
       fill="#0015CE"
       fill-opacity="0.15"
       stroke="#0015CE"
       id="path154" />
    <path
       d="M625.232 274.294C625.508 274.294 625.732 274.071 625.732 273.794L625.732 266.294C625.732 261.876 622.15 258.294 617.732 258.294C613.313 258.294 609.732 261.876 609.732 266.294L609.732 273.794C609.732 274.071 609.956 274.294 610.232 274.294L625.232 274.294Z"
       fill="#0015CE"
       fill-opacity="0.15"
       stroke="#0015CE"
       id="path156" />
    <path
       d="M558.232 286.794C558.232 284.033 560.47 281.794 563.232 281.794H626.232C628.993 281.794 631.232 284.033 631.232 286.794V306.794C631.232 309.556 628.993 311.794 626.232 311.794H563.232C560.47 311.794 558.232 309.556 558.232 306.794V286.794Z"
       fill="#0015CE"
       fill-opacity="0.1"
       id="path158" />
    <path
       d="M591.325 291.494H592.725V301.294H591.115V293.216L589.141 293.776L588.749 292.404L591.325 291.494ZM601.658 298.032V299.53H600.538V301.294H598.914V299.53H594.098V298.032L597.472 291.494H599.222L595.848 298.032H598.914V295.484H600.538V298.032H601.658Z"
       fill="#0015CE"
       id="path160" />
    <path
       d="M563.232 282.794H626.232V280.794H563.232V282.794ZM630.232 286.794V306.794H632.232V286.794H630.232ZM626.232 310.794H563.232V312.794H626.232V310.794ZM559.232 306.794V286.794H557.232V306.794H559.232ZM563.232 310.794C561.023 310.794 559.232 309.004 559.232 306.794H557.232C557.232 310.108 559.918 312.794 563.232 312.794V310.794ZM630.232 306.794C630.232 309.004 628.441 310.794 626.232 310.794V312.794C629.545 312.794 632.232 310.108 632.232 306.794H630.232ZM626.232 282.794C628.441 282.794 630.232 284.585 630.232 286.794H632.232C632.232 283.481 629.545 280.794 626.232 280.794V282.794ZM563.232 280.794C559.918 280.794 557.232 283.481 557.232 286.794H559.232C559.232 284.585 561.023 282.794 563.232 282.794V280.794Z"
       fill="#0015CE"
       id="path162" />
    <path
       d="M579.232 319.294C579.508 319.294 579.732 319.518 579.732 319.794L579.732 327.294C579.732 331.713 576.15 335.294 571.732 335.294C567.313 335.294 563.732 331.713 563.732 327.294L563.732 319.794C563.732 319.518 563.956 319.294 564.232 319.294L579.232 319.294Z"
       fill="#0015CE"
       fill-opacity="0.15"
       stroke="#0015CE"
       id="path164" />
    <path
       d="M602.232 319.294C602.508 319.294 602.732 319.518 602.732 319.794L602.732 327.294C602.732 331.713 599.15 335.294 594.732 335.294C590.313 335.294 586.732 331.713 586.732 327.294L586.732 319.794C586.732 319.518 586.956 319.294 587.232 319.294L602.232 319.294Z"
       fill="#0015CE"
       fill-opacity="0.15"
       stroke="#0015CE"
       id="path166" />
    <path
       d="M625.232 319.294C625.508 319.294 625.732 319.518 625.732 319.794L625.732 327.294C625.732 331.713 622.15 335.294 617.732 335.294C613.313 335.294 609.732 331.713 609.732 327.294L609.732 319.794C609.732 319.518 609.956 319.294 610.232 319.294L625.232 319.294Z"
       fill="#0015CE"
       fill-opacity="0.15"
       stroke="#0015CE"
       id="path168" />
    <path
       d="M188 262.794C188 251.749 196.954 242.794 208 242.794H243.732C254.777 242.794 263.732 251.749 263.732 262.794V371.098H188V262.794Z"
       fill="#F0F1F8"
       id="path170" />
    <g
       clip-path="url(#clip1)"
       id="g174">
      <path
         d="M216.207 281.216H210.438L213.545 289.617C214.461 292.092 214.408 294.891 213.396 297.498C212.672 299.363 212.485 301.413 212.853 303.427C213.653 307.8 217.327 311.517 221.984 312.161V318.689H214.22V321.794H232.853V318.689H225.089V312.153C227.079 311.867 228.963 311.04 230.527 309.725C232.992 307.653 234.406 304.619 234.406 301.402C234.406 299.901 234.102 298.446 233.504 297.078C232.991 295.906 232.764 294.585 232.816 293.194C233.868 293.492 234.928 293.641 235.974 293.641C238.015 293.641 240.004 293.076 241.775 291.953C244.939 289.945 246.828 286.512 246.828 282.769C246.828 276.776 241.952 271.9 235.959 271.9C230.493 271.9 225.957 275.956 225.201 281.216H219.48L215.34 268.794H204.904V271.9H213.101L216.207 281.216ZM217.242 284.322L218.277 287.427H216.046L214.898 284.322H217.242ZM222.124 309.042C219.03 308.502 216.474 305.963 215.908 302.869C215.643 301.42 215.775 299.951 216.291 298.622C217.315 295.983 217.561 293.176 217.024 290.533H230.041C229.436 293.29 229.641 295.996 230.659 298.323C231.085 299.296 231.301 300.332 231.301 301.402C231.3 306.095 227.104 309.911 222.124 309.042ZM235.959 275.005C240.24 275.005 243.722 278.488 243.722 282.769C243.722 285.443 242.372 287.896 240.111 289.33C238.118 290.595 235.714 290.862 233.364 290.114C233.574 289.447 233.436 289.889 236.636 281.216H228.351C229.073 277.677 232.209 275.005 235.959 275.005ZM232.176 284.322L231.027 287.427H221.55L220.515 284.322H232.176Z"
         fill="#C4C6E4"
         id="path172" />
    </g>
    <path
       d="M93.5 64.0981H178V130.098C178 141.144 169.046 150.098 158 150.098H93.5V64.0981Z"
       fill="#F0F1F8"
       id="path176" />
    <path
       d="M148.5 89.0981H126C125.602 89.0981 125.221 89.2562 124.939 89.5375C124.658 89.8188 124.5 90.2003 124.5 90.5981V101.098H118.5V104.098H132C132.305 104.098 132.604 104.005 132.855 103.831C133.106 103.657 133.298 103.411 133.405 103.125L137.379 107.098L133.405 111.072C133.298 110.786 133.106 110.539 132.855 110.365C132.604 110.191 132.305 110.098 132 110.098H118.5V113.098H124.5V123.598C124.5 123.996 124.658 124.378 124.939 124.659C125.221 124.94 125.602 125.098 126 125.098H148.5C148.898 125.098 149.279 124.94 149.561 124.659C149.842 124.378 150 123.996 150 123.598V90.5981C150 90.2003 149.842 89.8188 149.561 89.5375C149.279 89.2562 148.898 89.0981 148.5 89.0981V89.0981ZM147 122.098H127.5V113.098H130.5V114.598C130.5 114.895 130.588 115.185 130.753 115.432C130.918 115.678 131.152 115.87 131.426 115.984C131.7 116.098 132.002 116.127 132.293 116.069C132.584 116.011 132.851 115.869 133.061 115.659L140.561 108.159C140.7 108.02 140.81 107.854 140.886 107.672C140.961 107.49 141 107.295 141 107.098C141 106.901 140.961 106.706 140.886 106.524C140.81 106.342 140.7 106.177 140.561 106.037L133.061 98.5375C132.851 98.3277 132.584 98.1848 132.293 98.1269C132.002 98.069 131.7 98.0987 131.426 98.2123C131.152 98.3258 130.918 98.5181 130.753 98.7648C130.588 99.0114 130.5 99.3015 130.5 99.5981V101.098H127.5V92.0981H147V122.098Z"
       fill="#C4C6E4"
       id="path178" />
    <path
       d="M151.5 92.0982C152.328 92.0982 153 91.4266 153 90.5982C153 89.7697 152.328 89.0981 151.5 89.0981C150.672 89.0981 150 89.7697 150 90.5982C150 91.4266 150.672 92.0982 151.5 92.0982Z"
       fill="#C4C6E4"
       id="path180" />
  </g>
  <rect
     x="89.5"
     y="60.0981"
     width="576"
     height="315"
     rx="24"
     stroke="#4354C6"
     stroke-width="8"
     id="rect184" />
  <defs
     id="defs190">
    <clipPath
       id="clip0" />
    <clipPath
       id="clip1">
      <rect
         width="53"
         height="53"
         fill="white"
         transform="translate(199.366 268.794)"
         id="rect187" />
    </clipPath>
  </defs>
</svg>
