<?xml version="1.0" encoding="UTF-8" standalone="no"?>
<svg
   width="795"
   height="560"
   viewBox="0 0 795 560"
   fill="none"
   version="1.1"
   id="svg174"
   sodipodi:docname="Volynskiy_first_floor.svg"
   inkscape:version="1.1 (c68e22c387, 2021-05-23)"
   xmlns:inkscape="http://www.inkscape.org/namespaces/inkscape"
   xmlns:sodipodi="http://sodipodi.sourceforge.net/DTD/sodipodi-0.dtd"
   xmlns="http://www.w3.org/2000/svg"
   xmlns:svg="http://www.w3.org/2000/svg">
  <sodipodi:namedview
     id="namedview176"
     pagecolor="#ffffff"
     bordercolor="#666666"
     borderopacity="1.0"
     inkscape:pageshadow="2"
     inkscape:pageopacity="0.0"
     inkscape:pagecheckerboard="0"
     showgrid="false"
     inkscape:zoom="1.3308176"
     inkscape:cx="397.12429"
     inkscape:cy="279.90312"
     inkscape:window-width="1920"
     inkscape:window-height="1017"
     inkscape:window-x="-8"
     inkscape:window-y="264"
     inkscape:window-maximized="1"
     inkscape:current-layer="g156" />
  <g
     id="g156">
    <rect
       x="109.5"
       y="75.6787"
       width="576"
       height="335"
       rx="24"
       fill="#F8F9FD"
       id="rect2" />
    <rect
       x="128"
       y="247.353"
       width="144"
       height="83"
       rx="20"
       fill="#F0F1F8"
       id="rect4" />
    <path
       d="M150.5 278.853C150.224 278.853 150 278.629 150 278.353L150 270.853C150 266.434 153.582 262.853 158 262.853C162.418 262.853 166 266.434 166 270.853L166 278.353C166 278.629 165.776 278.853 165.5 278.853L150.5 278.853Z"
       fill="#0015CE"
       fill-opacity="0.15"
       stroke="#0015CE"
       id="path6" />
    <path
       d="M173.5 278.853C173.224 278.853 173 278.629 173 278.353L173 270.853C173 266.434 176.582 262.853 181 262.853C185.418 262.853 189 266.434 189 270.853L189 278.353C189 278.629 188.776 278.853 188.5 278.853L173.5 278.853Z"
       fill="#0015CE"
       fill-opacity="0.15"
       stroke="#0015CE"
       id="path8" />
    <path
       d="M143 290.353C143 287.591 145.239 285.353 148 285.353H191C193.761 285.353 196 287.591 196 290.353V310.353C196 313.114 193.761 315.353 191 315.353H148C145.239 315.353 143 313.114 143 310.353V290.353Z"
       fill="#0015CE"
       fill-opacity="0.1"
       id="path10" />
    <path
       d="M170.036 298.749C170.969 298.749 171.758 299.029 172.402 299.589C173.046 300.139 173.368 300.905 173.368 301.885C173.368 302.865 173.036 303.635 172.374 304.195C171.711 304.755 170.899 305.035 169.938 305.035C169.163 305.035 168.477 304.857 167.88 304.503C167.282 304.139 166.858 303.616 166.606 302.935L167.992 302.137C168.253 303.023 168.902 303.467 169.938 303.467C170.488 303.467 170.927 303.327 171.254 303.047C171.59 302.757 171.758 302.37 171.758 301.885C171.758 301.399 171.594 301.017 171.268 300.737C170.941 300.457 170.507 300.317 169.966 300.317H167.11L167.488 295.053H172.948V296.565H168.972L168.804 298.749H170.036Z"
       fill="#0015CE"
       id="path12" />
    <path
       d="M148 286.353H191V284.353H148V286.353ZM195 290.353V310.353H197V290.353H195ZM191 314.353H148V316.353H191V314.353ZM144 310.353V290.353H142V310.353H144ZM148 314.353C145.791 314.353 144 312.562 144 310.353H142C142 313.666 144.686 316.353 148 316.353V314.353ZM195 310.353C195 312.562 193.209 314.353 191 314.353V316.353C194.314 316.353 197 313.666 197 310.353H195ZM191 286.353C193.209 286.353 195 288.143 195 290.353H197C197 287.039 194.314 284.353 191 284.353V286.353ZM148 284.353C144.686 284.353 142 287.039 142 290.353H144C144 288.143 145.791 286.353 148 286.353V284.353Z"
       fill="#0015CE"
       id="path14" />
    <path
       d="M211.5 278.853C211.224 278.853 211 278.629 211 278.353L211 270.853C211 266.434 214.582 262.853 219 262.853C223.418 262.853 227 266.434 227 270.853L227 278.353C227 278.629 226.776 278.853 226.5 278.853L211.5 278.853Z"
       fill="#0015CE"
       fill-opacity="0.15"
       stroke="#0015CE"
       id="path16" />
    <path
       d="M234.5 278.853C234.224 278.853 234 278.629 234 278.353L234 270.853C234 266.434 237.582 262.853 242 262.853C246.418 262.853 250 266.434 250 270.853L250 278.353C250 278.629 249.776 278.853 249.5 278.853L234.5 278.853Z"
       fill="#0015CE"
       fill-opacity="0.15"
       stroke="#0015CE"
       id="path18" />
    <path
       d="M204 290.353C204 287.591 206.239 285.353 209 285.353H252C254.761 285.353 257 287.591 257 290.353V310.353C257 313.114 254.761 315.353 252 315.353H209C206.239 315.353 204 313.114 204 310.353V290.353Z"
       fill="#0015CE"
       fill-opacity="0.1"
       id="path20" />
    <path
       d="M231.008 298.343C232.025 298.343 232.856 298.655 233.5 299.281C234.144 299.897 234.466 300.699 234.466 301.689C234.466 302.678 234.144 303.485 233.5 304.111C232.856 304.727 232.025 305.035 231.008 305.035C229.981 305.035 229.146 304.727 228.502 304.111C227.858 303.485 227.536 302.678 227.536 301.689C227.536 300.942 227.732 300.284 228.124 299.715L231.232 295.053H233.066L230.826 298.343H231.008ZM231.008 303.509C231.549 303.509 231.992 303.345 232.338 303.019C232.683 302.683 232.856 302.239 232.856 301.689C232.856 301.138 232.683 300.699 232.338 300.373C231.992 300.037 231.549 299.869 231.008 299.869C230.457 299.869 230.009 300.037 229.664 300.373C229.318 300.699 229.146 301.138 229.146 301.689C229.146 302.239 229.318 302.683 229.664 303.019C230.009 303.345 230.457 303.509 231.008 303.509Z"
       fill="#0015CE"
       id="path22" />
    <path
       d="M209 286.353H252V284.353H209V286.353ZM256 290.353V310.353H258V290.353H256ZM252 314.353H209V316.353H252V314.353ZM205 310.353V290.353H203V310.353H205ZM209 314.353C206.791 314.353 205 312.562 205 310.353H203C203 313.666 205.686 316.353 209 316.353V314.353ZM256 310.353C256 312.562 254.209 314.353 252 314.353V316.353C255.314 316.353 258 313.666 258 310.353H256ZM252 286.353C254.209 286.353 256 288.143 256 290.353H258C258 287.039 255.314 284.353 252 284.353V286.353ZM209 284.353C205.686 284.353 203 287.039 203 290.353H205C205 288.143 206.791 286.353 209 286.353V284.353Z"
       fill="#0015CE"
       id="path24" />
    <path
       d="M155 79.6787H301V165.679C301 176.724 292.046 185.679 281 185.679H175C163.954 185.679 155 176.724 155 165.679V79.6787Z"
       fill="#F0F1F8"
       id="path26" />
    <path
       d="M171 111.179C170.724 111.179 170.5 110.955 170.5 110.679L170.5 104.679C170.5 99.432 174.753 95.1787 180 95.1787L213 95.1787C218.247 95.1787 222.5 99.432 222.5 104.679L222.5 110.679C222.5 110.955 222.276 111.179 222 111.179L171 111.179Z"
       fill="#0015CE"
       fill-opacity="0.15"
       stroke="#0015CE"
       id="path28" />
    <path
       d="M170 122.679C170 119.917 172.239 117.679 175 117.679H218C220.761 117.679 223 119.917 223 122.679V142.679C223 145.44 220.761 147.679 218 147.679H175C172.239 147.679 170 145.44 170 142.679V122.679Z"
       fill="#0015CE"
       fill-opacity="0.1"
       id="path30" />
    <path
       d="M197.154 127.379H198.554V137.179H196.944V129.101L194.97 129.661L194.578 128.289L197.154 127.379Z"
       fill="#0015CE"
       id="path32" />
    <path
       d="M175 118.679H218V116.679H175V118.679ZM222 122.679V142.679H224V122.679H222ZM218 146.679H175V148.679H218V146.679ZM171 142.679V122.679H169V142.679H171ZM175 146.679C172.791 146.679 171 144.888 171 142.679H169C169 145.992 171.686 148.679 175 148.679V146.679ZM222 142.679C222 144.888 220.209 146.679 218 146.679V148.679C221.314 148.679 224 145.992 224 142.679H222ZM218 118.679C220.209 118.679 222 120.47 222 122.679H224C224 119.365 221.314 116.679 218 116.679V118.679ZM175 116.679C171.686 116.679 169 119.365 169 122.679H171C171 120.47 172.791 118.679 175 118.679V116.679Z"
       fill="#0015CE"
       id="path34" />
    <path
       d="M191.5 154.179C191.776 154.179 192 154.403 192 154.679L192 162.179C192 166.597 188.418 170.179 184 170.179C179.582 170.179 176 166.597 176 162.179L176 154.679C176 154.403 176.224 154.179 176.5 154.179L191.5 154.179Z"
       fill="#0015CE"
       fill-opacity="0.15"
       stroke="#0015CE"
       id="path36" />
    <path
       d="M216.5 154.179C216.776 154.179 217 154.403 217 154.679L217 162.179C217 166.597 213.418 170.179 209 170.179C204.582 170.179 201 166.597 201 162.179L201 154.679C201 154.403 201.224 154.179 201.5 154.179L216.5 154.179Z"
       fill="#0015CE"
       fill-opacity="0.15"
       stroke="#0015CE"
       id="path38" />
    <path
       d="M234 111.179C233.724 111.179 233.5 110.955 233.5 110.679L233.5 104.679C233.5 99.432 237.753 95.1787 243 95.1787L276 95.1787C281.247 95.1787 285.5 99.432 285.5 104.679L285.5 110.679C285.5 110.955 285.276 111.179 285 111.179L234 111.179Z"
       fill="#0015CE"
       fill-opacity="0.15"
       stroke="#0015CE"
       id="path40" />
    <path
       d="M233 122.679C233 119.917 235.239 117.679 238 117.679H281C283.761 117.679 286 119.917 286 122.679V142.679C286 145.44 283.761 147.679 281 147.679H238C235.239 147.679 233 145.44 233 142.679V122.679Z"
       fill="#0015CE"
       fill-opacity="0.1"
       id="path42" />
    <path
       d="M260.896 131.383C261.605 131.551 262.179 131.882 262.618 132.377C263.066 132.862 263.29 133.473 263.29 134.211C263.29 135.191 262.958 135.961 262.296 136.521C261.633 137.081 260.821 137.361 259.86 137.361C259.113 137.361 258.441 137.188 257.844 136.843C257.256 136.497 256.831 135.993 256.57 135.331L257.942 134.533C258.231 135.373 258.87 135.793 259.86 135.793C260.42 135.793 260.863 135.653 261.19 135.373C261.516 135.083 261.68 134.696 261.68 134.211C261.68 133.725 261.516 133.343 261.19 133.063C260.863 132.783 260.42 132.643 259.86 132.643H259.496L258.852 131.677L260.966 128.891H256.864V127.379H262.884V128.751L260.896 131.383Z"
       fill="#0015CE"
       id="path44" />
    <path
       d="M238 118.679H281V116.679H238V118.679ZM285 122.679V142.679H287V122.679H285ZM281 146.679H238V148.679H281V146.679ZM234 142.679V122.679H232V142.679H234ZM238 146.679C235.791 146.679 234 144.888 234 142.679H232C232 145.992 234.686 148.679 238 148.679V146.679ZM285 142.679C285 144.888 283.209 146.679 281 146.679V148.679C284.314 148.679 287 145.992 287 142.679H285ZM281 118.679C283.209 118.679 285 120.47 285 122.679H287C287 119.365 284.314 116.679 281 116.679V118.679ZM238 116.679C234.686 116.679 232 119.365 232 122.679H234C234 120.47 235.791 118.679 238 118.679V116.679Z"
       fill="#0015CE"
       id="path46" />
    <path
       d="M254.5 154.179C254.776 154.179 255 154.403 255 154.679L255 162.179C255 166.597 251.418 170.179 247 170.179C242.582 170.179 239 166.597 239 162.179L239 154.679C239 154.403 239.224 154.179 239.5 154.179L254.5 154.179Z"
       fill="#0015CE"
       fill-opacity="0.15"
       stroke="#0015CE"
       id="path48" />
    <path
       d="M279.5 154.179C279.776 154.179 280 154.403 280 154.679L280 162.179C280 166.597 276.418 170.179 272 170.179C267.582 170.179 264 166.597 264 162.179L264 154.679C264 154.403 264.224 154.179 264.5 154.179L279.5 154.179Z"
       fill="#0015CE"
       fill-opacity="0.15"
       stroke="#0015CE"
       id="path50" />
    <path
       d="M305.5 366.694C305.5 355.649 314.454 346.694 325.5 346.694H496.5C507.546 346.694 516.5 355.649 516.5 366.694V406.694H305.5V366.694Z"
       fill="#F0F1F8"
       id="path52" />
    <path
       d="M337 369.194C337 368.918 336.776 368.694 336.5 368.694L329 368.694C324.582 368.694 321 372.276 321 376.694C321 381.113 324.582 384.694 329 384.694L336.5 384.694C336.776 384.694 337 384.47 337 384.194L337 369.194Z"
       fill="#0015CE"
       fill-opacity="0.15"
       stroke="#0015CE"
       id="path54" />
    <path
       d="M344.5 366.694C344.5 363.933 346.739 361.694 349.5 361.694H369.5C372.261 361.694 374.5 363.933 374.5 366.694V386.694C374.5 389.456 372.261 391.694 369.5 391.694H349.5C346.739 391.694 344.5 389.456 344.5 386.694V366.694Z"
       fill="#0015CE"
       fill-opacity="0.1"
       id="path56" />
    <path
       d="M357.049 371.394H358.449V381.194H356.839V373.116L354.865 373.676L354.473 372.304L357.049 371.394ZM362.258 371.394H363.658V381.194H362.048V373.116L360.074 373.676L359.682 372.304L362.258 371.394Z"
       fill="#0015CE"
       id="path58" />
    <path
       d="M349.5 362.694H369.5V360.694H349.5V362.694ZM373.5 366.694V386.694H375.5V366.694H373.5ZM369.5 390.694H349.5V392.694H369.5V390.694ZM345.5 386.694V366.694H343.5V386.694H345.5ZM349.5 390.694C347.291 390.694 345.5 388.903 345.5 386.694H343.5C343.5 390.008 346.186 392.694 349.5 392.694V390.694ZM373.5 386.694C373.5 388.903 371.709 390.694 369.5 390.694V392.694C372.814 392.694 375.5 390.008 375.5 386.694H373.5ZM369.5 362.694C371.709 362.694 373.5 364.485 373.5 366.694H375.5C375.5 363.381 372.814 360.694 369.5 360.694V362.694ZM349.5 360.694C346.186 360.694 343.5 363.381 343.5 366.694H345.5C345.5 364.485 347.291 362.694 349.5 362.694V360.694Z"
       fill="#0015CE"
       id="path60" />
    <path
       d="M382 369.194C382 368.918 382.224 368.694 382.5 368.694H390C394.418 368.694 398 372.276 398 376.694C398 381.113 394.418 384.694 390 384.694H382.5C382.224 384.694 382 384.47 382 384.194V369.194Z"
       fill="#0015CE"
       fill-opacity="0.15"
       stroke="#0015CE"
       id="path62" />
    <path
       d="M440 369.194C440 368.918 439.776 368.694 439.5 368.694L432 368.694C427.582 368.694 424 372.276 424 376.694C424 381.113 427.582 384.694 432 384.694L439.5 384.694C439.776 384.694 440 384.47 440 384.194L440 369.194Z"
       fill="#0015CE"
       fill-opacity="0.15"
       stroke="#0015CE"
       id="path64" />
    <path
       d="M447.5 366.694C447.5 363.933 449.739 361.694 452.5 361.694H472.5C475.261 361.694 477.5 363.933 477.5 366.694V386.694C477.5 389.456 475.261 391.694 472.5 391.694H452.5C449.739 391.694 447.5 389.456 447.5 386.694V366.694Z"
       fill="#0015CE"
       fill-opacity="0.1"
       id="path66" />
    <path
       d="M455.243 371.394H456.643V381.194H455.033V373.116L453.059 373.676L452.667 372.304L455.243 371.394ZM458.128 381.194V379.934L461.544 376.448C462.375 375.618 462.79 374.899 462.79 374.292C462.79 373.816 462.646 373.448 462.356 373.186C462.076 372.916 461.717 372.78 461.278 372.78C460.457 372.78 459.85 373.186 459.458 373.998L458.1 373.2C458.408 372.547 458.842 372.052 459.402 371.716C459.962 371.38 460.583 371.212 461.264 371.212C462.123 371.212 462.86 371.483 463.476 372.024C464.092 372.566 464.4 373.303 464.4 374.236C464.4 375.235 463.845 376.299 462.734 377.428L460.522 379.64H464.582V381.194H458.128ZM465.538 381.194V379.934L468.954 376.448C469.785 375.618 470.2 374.899 470.2 374.292C470.2 373.816 470.056 373.448 469.766 373.186C469.486 372.916 469.127 372.78 468.688 372.78C467.867 372.78 467.26 373.186 466.868 373.998L465.51 373.2C465.818 372.547 466.252 372.052 466.812 371.716C467.372 371.38 467.993 371.212 468.674 371.212C469.533 371.212 470.27 371.483 470.886 372.024C471.502 372.566 471.81 373.303 471.81 374.236C471.81 375.235 471.255 376.299 470.144 377.428L467.932 379.64H471.992V381.194H465.538Z"
       fill="#0015CE"
       id="path68" />
    <path
       d="M452.5 362.694H472.5V360.694H452.5V362.694ZM476.5 366.694V386.694H478.5V366.694H476.5ZM472.5 390.694H452.5V392.694H472.5V390.694ZM448.5 386.694V366.694H446.5V386.694H448.5ZM452.5 390.694C450.291 390.694 448.5 388.903 448.5 386.694H446.5C446.5 390.008 449.186 392.694 452.5 392.694V390.694ZM476.5 386.694C476.5 388.903 474.709 390.694 472.5 390.694V392.694C475.814 392.694 478.5 390.008 478.5 386.694H476.5ZM472.5 362.694C474.709 362.694 476.5 364.485 476.5 366.694H478.5C478.5 363.381 475.814 360.694 472.5 360.694V362.694ZM452.5 360.694C449.186 360.694 446.5 363.381 446.5 366.694H448.5C448.5 364.485 450.291 362.694 452.5 362.694V360.694Z"
       fill="#0015CE"
       id="path70" />
    <path
       d="M485 369.194C485 368.918 485.224 368.694 485.5 368.694H493C497.418 368.694 501 372.276 501 376.694C501 381.113 497.418 384.694 493 384.694H485.5C485.224 384.694 485 384.47 485 384.194V369.194Z"
       fill="#0015CE"
       fill-opacity="0.15"
       stroke="#0015CE"
       id="path72" />
    <rect
       x="439.5"
       y="186.075"
       width="122"
       height="108"
       rx="20"
       fill="#F0F1F8"
       id="rect74" />
    <path
       d="M477 217.575C477.276 217.575 477.5 217.351 477.5 217.075L477.5 209.575C477.5 205.157 473.918 201.575 469.5 201.575C465.082 201.575 461.5 205.157 461.5 209.575L461.5 217.075C461.5 217.351 461.724 217.575 462 217.575L477 217.575Z"
       fill="#0015CE"
       fill-opacity="0.15"
       stroke="#0015CE"
       id="path76" />
    <path
       d="M500 217.575C500.276 217.575 500.5 217.351 500.5 217.075L500.5 209.575C500.5 205.157 496.918 201.575 492.5 201.575C488.082 201.575 484.5 205.157 484.5 209.575L484.5 217.075C484.5 217.351 484.724 217.575 485 217.575L500 217.575Z"
       fill="#0015CE"
       fill-opacity="0.15"
       stroke="#0015CE"
       id="path78" />
    <path
       d="M454.5 230.075C454.5 227.314 456.739 225.075 459.5 225.075H502.5C505.261 225.075 507.5 227.314 507.5 230.075V250.075C507.5 252.837 505.261 255.075 502.5 255.075H459.5C456.739 255.075 454.5 252.837 454.5 250.075V230.075Z"
       fill="#0015CE"
       fill-opacity="0.1"
       id="path80" />
    <path
       d="M483.498 239.479C484.46 240.011 484.94 240.805 484.94 241.859C484.94 242.755 484.628 243.465 484.002 243.987C483.377 244.501 482.546 244.757 481.51 244.757C480.474 244.757 479.639 244.501 479.004 243.987C478.379 243.465 478.066 242.755 478.066 241.859C478.066 241.355 478.192 240.898 478.444 240.487C478.696 240.067 479.051 239.731 479.508 239.479C478.771 238.994 478.402 238.303 478.402 237.407C478.402 236.511 478.701 235.821 479.298 235.335C479.896 234.841 480.633 234.593 481.51 234.593C482.378 234.593 483.111 234.841 483.708 235.335C484.315 235.821 484.618 236.511 484.618 237.407C484.618 238.303 484.245 238.994 483.498 239.479ZM481.51 236.119C481.072 236.119 480.712 236.236 480.432 236.469C480.152 236.703 480.012 237.039 480.012 237.477C480.012 237.897 480.152 238.229 480.432 238.471C480.722 238.714 481.081 238.835 481.51 238.835C481.93 238.835 482.285 238.714 482.574 238.471C482.864 238.229 483.008 237.897 483.008 237.477C483.008 237.039 482.864 236.703 482.574 236.469C482.294 236.236 481.94 236.119 481.51 236.119ZM481.51 243.231C482.052 243.231 482.49 243.101 482.826 242.839C483.162 242.569 483.33 242.191 483.33 241.705C483.33 241.22 483.162 240.847 482.826 240.585C482.49 240.315 482.052 240.179 481.51 240.179C480.96 240.179 480.516 240.315 480.18 240.585C479.844 240.847 479.676 241.22 479.676 241.705C479.676 242.191 479.844 242.569 480.18 242.839C480.516 243.101 480.96 243.231 481.51 243.231Z"
       fill="#0015CE"
       id="path82" />
    <path
       d="M459.5 226.075H502.5V224.075H459.5V226.075ZM506.5 230.075V250.075H508.5V230.075H506.5ZM502.5 254.075H459.5V256.075H502.5V254.075ZM455.5 250.075V230.075H453.5V250.075H455.5ZM459.5 254.075C457.291 254.075 455.5 252.284 455.5 250.075H453.5C453.5 253.389 456.186 256.075 459.5 256.075V254.075ZM506.5 250.075C506.5 252.284 504.709 254.075 502.5 254.075V256.075C505.814 256.075 508.5 253.389 508.5 250.075H506.5ZM502.5 226.075C504.709 226.075 506.5 227.866 506.5 230.075H508.5C508.5 226.761 505.814 224.075 502.5 224.075V226.075ZM459.5 224.075C456.186 224.075 453.5 226.761 453.5 230.075H455.5C455.5 227.866 457.291 226.075 459.5 226.075V224.075Z"
       fill="#0015CE"
       id="path84" />
    <path
       d="M477 262.575C477.276 262.575 477.5 262.799 477.5 263.075L477.5 270.575C477.5 274.993 473.918 278.575 469.5 278.575C465.082 278.575 461.5 274.993 461.5 270.575L461.5 263.075C461.5 262.799 461.724 262.575 462 262.575L477 262.575Z"
       fill="#0015CE"
       fill-opacity="0.15"
       stroke="#0015CE"
       id="path86" />
    <path
       d="M500 262.575C500.276 262.575 500.5 262.799 500.5 263.075L500.5 270.575C500.5 274.993 496.918 278.575 492.5 278.575C488.082 278.575 484.5 274.993 484.5 270.575L484.5 263.075C484.5 262.799 484.724 262.575 485 262.575L500 262.575Z"
       fill="#0015CE"
       fill-opacity="0.15"
       stroke="#0015CE"
       id="path88" />
    <path
       d="M539 217.575C539.276 217.575 539.5 217.351 539.5 217.075L539.5 209.575C539.5 205.157 535.918 201.575 531.5 201.575C527.082 201.575 523.5 205.157 523.5 209.575L523.5 217.075C523.5 217.351 523.724 217.575 524 217.575L539 217.575Z"
       fill="#DEE0ED"
       stroke="#B6B5D3"
       id="path90" />
    <path
       d="M516.5 230.075C516.5 227.314 518.739 225.075 521.5 225.075H541.5C544.261 225.075 546.5 227.314 546.5 230.075V250.075C546.5 252.837 544.261 255.075 541.5 255.075H521.5C518.739 255.075 516.5 252.837 516.5 250.075V230.075Z"
       fill="#DEE0ED"
       id="path92" />
    <path
       d="M527.744 236.275H529.144V246.075H527.534V237.997L525.56 238.557L525.168 237.185L527.744 236.275ZM537.433 244.871C536.761 245.795 535.819 246.257 534.605 246.257C533.392 246.257 532.445 245.795 531.763 244.871C531.091 243.947 530.755 242.715 530.755 241.175C530.755 239.635 531.091 238.403 531.763 237.479C532.445 236.555 533.392 236.093 534.605 236.093C535.819 236.093 536.761 236.555 537.433 237.479C538.115 238.403 538.455 239.635 538.455 241.175C538.455 242.715 538.115 243.947 537.433 244.871ZM534.605 244.689C535.333 244.689 535.889 244.386 536.271 243.779C536.654 243.173 536.845 242.305 536.845 241.175C536.845 240.046 536.654 239.178 536.271 238.571C535.889 237.965 535.333 237.661 534.605 237.661C533.887 237.661 533.331 237.965 532.939 238.571C532.557 239.178 532.365 240.046 532.365 241.175C532.365 242.305 532.557 243.173 532.939 243.779C533.331 244.386 533.887 244.689 534.605 244.689Z"
       fill="#A7A5CA"
       id="path94" />
    <path
       d="M521.5 226.075H541.5V224.075H521.5V226.075ZM545.5 230.075V250.075H547.5V230.075H545.5ZM541.5 254.075H521.5V256.075H541.5V254.075ZM517.5 250.075V230.075H515.5V250.075H517.5ZM521.5 254.075C519.291 254.075 517.5 252.284 517.5 250.075H515.5C515.5 253.389 518.186 256.075 521.5 256.075V254.075ZM545.5 250.075C545.5 252.284 543.709 254.075 541.5 254.075V256.075C544.814 256.075 547.5 253.389 547.5 250.075H545.5ZM541.5 226.075C543.709 226.075 545.5 227.866 545.5 230.075H547.5C547.5 226.761 544.814 224.075 541.5 224.075V226.075ZM521.5 224.075C518.186 224.075 515.5 226.761 515.5 230.075H517.5C517.5 227.866 519.291 226.075 521.5 226.075V224.075Z"
       fill="#B6B5D3"
       id="path96" />
    <path
       d="M539 262.575C539.276 262.575 539.5 262.799 539.5 263.075L539.5 270.575C539.5 274.993 535.918 278.575 531.5 278.575C527.082 278.575 523.5 274.993 523.5 270.575L523.5 263.075C523.5 262.799 523.724 262.575 524 262.575L539 262.575Z"
       fill="#DEE0ED"
       stroke="#B6B5D3"
       id="path98" />
    <rect
       x="279.528"
       y="186.075"
       width="113.945"
       height="114.652"
       rx="56.9725"
       fill="#F0F1F8"
       id="rect100" />
    <path
       d="M345.25 217.575C345.526 217.575 345.75 217.351 345.75 217.075L345.75 209.575C345.75 205.157 342.168 201.575 337.75 201.575C333.332 201.575 329.75 205.157 329.75 209.575L329.75 217.075C329.75 217.351 329.974 217.575 330.25 217.575L345.25 217.575Z"
       fill="#0015CE"
       fill-opacity="0.15"
       stroke="#0015CE"
       id="path102" />
    <path
       d="M345.25 269.227C345.526 269.227 345.75 269.451 345.75 269.727L345.75 277.227C345.75 281.645 342.168 285.227 337.75 285.227C333.332 285.227 329.75 281.645 329.75 277.227L329.75 269.727C329.75 269.451 329.974 269.227 330.25 269.227L345.25 269.227Z"
       fill="#0015CE"
       fill-opacity="0.15"
       stroke="#0015CE"
       id="path104" />
    <path
       d="M316.817 225.017C316.955 224.778 316.873 224.472 316.634 224.334L310.139 220.584C306.312 218.375 301.42 219.686 299.211 223.512C297.001 227.338 298.312 232.231 302.139 234.44L308.634 238.19C308.873 238.328 309.179 238.246 309.317 238.007L316.817 225.017Z"
       fill="#0015CE"
       fill-opacity="0.15"
       stroke="#0015CE"
       id="path106" />
    <path
       d="M316.817 265.508C316.955 265.747 316.873 266.052 316.634 266.191L310.139 269.941C306.312 272.15 301.42 270.839 299.211 267.012C297.001 263.186 298.312 258.293 302.139 256.084L308.634 252.334C308.873 252.196 309.179 252.278 309.317 252.517L316.817 265.508Z"
       fill="#0015CE"
       fill-opacity="0.15"
       stroke="#0015CE"
       id="path108" />
    <path
       d="M363.683 238.008C363.821 238.247 364.127 238.329 364.366 238.191L370.861 234.441C374.688 232.231 375.999 227.339 373.789 223.512C371.58 219.686 366.688 218.375 362.861 220.584L356.366 224.334C356.127 224.472 356.045 224.778 356.183 225.017L363.683 238.008Z"
       fill="#0015CE"
       fill-opacity="0.15"
       stroke="#0015CE"
       id="path110" />
    <path
       d="M363.683 252.517C363.821 252.278 364.127 252.196 364.366 252.334L370.861 256.084C374.688 258.293 375.999 263.186 373.79 267.012C371.58 270.838 366.688 272.149 362.861 269.94L356.366 266.19C356.127 266.052 356.045 265.746 356.183 265.507L363.683 252.517Z"
       fill="#0015CE"
       fill-opacity="0.15"
       stroke="#0015CE"
       id="path112" />
    <path
       d="M316.5 243.401C316.5 232.356 325.454 223.401 336.5 223.401C347.546 223.401 356.5 232.356 356.5 243.401C356.5 254.447 347.546 263.401 336.5 263.401C325.454 263.401 316.5 254.447 316.5 243.401Z"
       fill="#0015CE"
       fill-opacity="0.1"
       id="path114" />
    <path
       d="M333.278 238.101H339.508V239.501L336.064 247.901H334.37L337.758 239.641H333.278V238.101Z"
       fill="#0015CE"
       id="path116" />
    <path
       d="M336.5 262.401C326.007 262.401 317.5 253.895 317.5 243.401H315.5C315.5 254.999 324.902 264.401 336.5 264.401V262.401ZM355.5 243.401C355.5 253.895 346.993 262.401 336.5 262.401V264.401C348.098 264.401 357.5 254.999 357.5 243.401H355.5ZM336.5 224.401C346.993 224.401 355.5 232.908 355.5 243.401H357.5C357.5 231.803 348.098 222.401 336.5 222.401V224.401ZM336.5 222.401C324.902 222.401 315.5 231.803 315.5 243.401H317.5C317.5 232.908 326.007 224.401 336.5 224.401V222.401Z"
       fill="#0015CE"
       id="path118" />
    <path
       d="M588.278 365.853C588.278 332.715 615.141 305.853 648.278 305.853H681.5V406.679H588.278V365.853Z"
       fill="#F0F1F8"
       id="path120" />
    <path
       d="M654.5 337.353C654.776 337.353 655 337.129 655 336.853L655 329.353C655 324.934 651.418 321.353 647 321.353C642.582 321.353 639 324.934 639 329.353L639 336.853C639 337.129 639.224 337.353 639.5 337.353L654.5 337.353Z"
       fill="#0015CE"
       fill-opacity="0.15"
       stroke="#0015CE"
       id="path122" />
    <path
       d="M625.567 343.795C625.705 343.556 625.623 343.25 625.384 343.112L618.889 339.362C615.062 337.153 610.17 338.464 607.961 342.29C605.751 346.116 607.062 351.009 610.889 353.218L617.384 356.968C617.623 357.106 617.929 357.024 618.067 356.785L625.567 343.795Z"
       fill="#0015CE"
       fill-opacity="0.15"
       stroke="#0015CE"
       id="path124" />
    <path
       d="M626.067 382.563C626.205 382.802 626.123 383.108 625.884 383.246L619.389 386.996C615.562 389.205 610.67 387.894 608.461 384.067C606.251 380.241 607.562 375.348 611.389 373.139L617.884 369.389C618.123 369.251 618.429 369.333 618.567 369.572L626.067 382.563Z"
       fill="#0015CE"
       fill-opacity="0.15"
       stroke="#0015CE"
       id="path126" />
    <path
       d="M626.5 363.179C626.5 352.133 635.454 343.179 646.5 343.179C657.546 343.179 666.5 352.133 666.5 363.179C666.5 374.224 657.546 383.179 646.5 383.179C635.454 383.179 626.5 374.224 626.5 363.179Z"
       fill="#0015CE"
       fill-opacity="0.1"
       id="path128" />
    <path
       d="M642.948 357.879H644.348V367.679H642.738V359.601L640.764 360.161L640.372 358.789L642.948 357.879ZM645.833 367.679V366.419L649.249 362.933C650.08 362.102 650.495 361.383 650.495 360.777C650.495 360.301 650.351 359.932 650.061 359.671C649.781 359.4 649.422 359.265 648.983 359.265C648.162 359.265 647.555 359.671 647.163 360.483L645.805 359.685C646.113 359.031 646.547 358.537 647.107 358.201C647.667 357.865 648.288 357.697 648.969 357.697C649.828 357.697 650.565 357.967 651.181 358.509C651.797 359.05 652.105 359.787 652.105 360.721C652.105 361.719 651.55 362.783 650.439 363.913L648.227 366.125H652.287V367.679H645.833Z"
       fill="#0015CE"
       id="path130" />
    <path
       d="m 645.5,382.179 c -10.493,0 -19,-8.507 -19,-19 h -2 c 0,11.598 9.402,21 21,21 z m 19,-19 c 0,10.493 -8.507,19 -19,19 v 2 c 11.598,0 21,-9.402 21,-21 z m -19,-19 c 10.493,0 19,8.506 19,19 h 2 c 0,-11.598 -9.402,-21 -21,-21 z m 0,-2 c -11.598,0 -21,9.402 -21,21 h 2 c 0,-10.494 8.507,-19 19,-19 z"
       fill="#0015ce"
       id="path132" />
    <path
       d="M398.362 79.6787H681.5V142.522H418.362C407.317 142.522 398.362 133.567 398.362 122.522V79.6787Z"
       fill="#F0F1F8"
       id="path134" />
    <path
       d="M611.079 175.505C611.079 164.459 620.033 155.505 631.079 155.505H681.5V219.853H631.079C620.033 219.853 611.079 210.899 611.079 199.853V175.505Z"
       fill="#F0F1F8"
       id="path136" />
    <g
       clip-path="url(#clip1)"
       id="g142">
      <path
         d="M664.174 188.073H658.534C657.714 188.073 657.05 188.738 657.05 189.558C657.05 190.377 657.714 191.042 658.534 191.042H660.591L653.471 198.162C652.891 198.742 652.891 199.682 653.471 200.262C654.05 200.841 654.99 200.841 655.57 200.262L662.69 193.141V195.198C662.69 196.018 663.355 196.683 664.175 196.683C664.995 196.683 665.659 196.018 665.659 195.198V189.558C665.659 189.557 665.659 189.557 665.659 189.557C665.659 188.75 665.003 188.073 664.174 188.073Z"
         fill="#C4C6E4"
         id="path138" />
      <path
         d="M667.215 171.454H658.457C657.637 171.454 656.972 172.119 656.972 172.938V180.212H649.699C648.879 180.212 648.215 180.876 648.215 181.696V188.97H640.941C640.121 188.97 639.457 189.634 639.457 190.454V197.728H632.183C631.364 197.728 630.699 198.392 630.699 199.212C630.699 200.032 631.364 200.696 632.183 200.696H640.941C641.335 200.696 641.713 200.54 641.991 200.262C642.269 199.983 642.426 199.606 642.426 199.212L642.426 191.938H649.699C650.093 191.938 650.47 191.782 650.749 191.504C651.027 191.225 651.183 190.848 651.183 190.454L651.183 183.181H658.457C658.851 183.181 659.228 183.024 659.506 182.746C659.785 182.468 659.941 182.09 659.941 181.696L659.941 174.423H667.215C668.034 174.423 668.699 173.758 668.699 172.938C668.699 172.119 668.034 171.454 667.215 171.454Z"
         fill="#C4C6E4"
         id="path140" />
    </g>
    <g
       clip-path="url(#clip2)"
       id="g146">
      <path
         d="M552.971 110.343L555.984 110.348H555.986C556.312 110.348 556.625 110.218 556.856 109.987L566.14 100.704C566.62 100.223 566.62 99.4441 566.14 98.9636C565.659 98.483 564.88 98.483 564.399 98.9636L559.32 104.043L557.535 102.258L562.614 97.1785C563.095 96.6979 563.095 95.9189 562.614 95.4383C562.134 94.9578 561.355 94.9578 560.874 95.4383L555.795 100.518L554.01 98.7327L559.089 93.6533C559.57 93.1727 559.57 92.3937 559.089 91.9131C558.609 91.4326 557.83 91.4326 557.349 91.9131L548.065 101.197C547.834 101.428 547.704 101.742 547.705 102.069L547.71 105.082L546.14 106.652L536.68 97.1919C533.421 93.9331 528.119 93.9332 524.86 97.1919C524.63 97.4226 524.5 97.7356 524.5 98.062C524.5 98.3883 524.63 98.7012 524.86 98.932L539.367 113.439L528.341 124.465C527.86 124.945 527.86 125.724 528.341 126.205L531.848 129.712C532.078 129.943 532.391 130.072 532.718 130.072C533.044 130.072 533.357 129.943 533.588 129.712L544.614 118.686L555.64 129.712C555.881 129.952 556.195 130.072 556.51 130.072C556.825 130.072 557.14 129.952 557.38 129.712L560.897 126.195C561.378 125.715 561.378 124.936 560.897 124.455L549.874 113.432L552.971 110.343ZM549.811 106.461C550.042 106.229 550.172 105.916 550.172 105.589L550.167 102.576L552.27 100.473L557.58 105.783L555.477 107.886L552.464 107.881H552.462C552.136 107.881 551.823 108.011 551.592 108.242L549.661 110.173L547.88 108.392L549.811 106.461ZM534.94 98.932L547.917 111.909L544.617 115.209L527.562 98.1533C529.846 96.6717 532.939 96.9312 534.94 98.932ZM532.718 127.102L530.951 125.335L541.107 115.179L542.874 116.946L532.718 127.102ZM548.134 115.172L558.287 125.325L556.51 127.102L546.357 116.949L548.134 115.172Z"
         fill="#C4C6E4"
         id="path144" />
    </g>
    <path
       d="M113.5 342H183.5C194.546 342 203.5 350.954 203.5 362V407H113.5V342Z"
       fill="#F0F1F8"
       id="path148" />
    <g
       clip-path="url(#clip3)"
       id="g154">
      <path
         d="M172 356.979H149.5C149.102 356.979 148.721 357.138 148.439 357.419C148.158 357.7 148 358.082 148 358.479V368.979H142V371.979H155.5C155.805 371.98 156.104 371.886 156.355 371.712C156.606 371.538 156.798 371.292 156.905 371.006L160.879 374.979L156.905 378.953C156.798 378.667 156.606 378.421 156.355 378.247C156.104 378.073 155.805 377.979 155.5 377.979H142V380.979H148V391.479C148 391.877 148.158 392.259 148.439 392.54C148.721 392.821 149.102 392.979 149.5 392.979H172C172.398 392.979 172.779 392.821 173.061 392.54C173.342 392.259 173.5 391.877 173.5 391.479V358.479C173.5 358.082 173.342 357.7 173.061 357.419C172.779 357.138 172.398 356.979 172 356.979V356.979ZM170.5 389.979H151V380.979H154V382.479C154 382.776 154.088 383.066 154.253 383.313C154.418 383.56 154.652 383.752 154.926 383.865C155.2 383.979 155.502 384.009 155.793 383.951C156.084 383.893 156.351 383.75 156.561 383.54L164.061 376.04C164.2 375.901 164.31 375.736 164.386 375.554C164.461 375.372 164.5 375.176 164.5 374.979C164.5 374.783 164.461 374.587 164.386 374.405C164.31 374.223 164.2 374.058 164.061 373.919L156.561 366.419C156.351 366.209 156.084 366.066 155.793 366.008C155.502 365.95 155.2 365.98 154.926 366.094C154.652 366.207 154.418 366.399 154.253 366.646C154.088 366.893 154 367.183 154 367.479V368.979H151V359.979H170.5V389.979Z"
         fill="#C4C6E4"
         id="path150" />
      <path
         d="M167.5 376.48C168.328 376.48 169 375.808 169 374.979C169 374.151 168.328 373.479 167.5 373.479C166.672 373.479 166 374.151 166 374.979C166 375.808 166.672 376.48 167.5 376.48Z"
         fill="#C4C6E4"
         id="path152" />
    </g>
  </g>
  <rect
     x="109.5"
     y="75.6787"
     width="576"
     height="335"
     rx="24"
     stroke="#4354C6"
     stroke-width="8"
     id="rect158" />
  <path
     d="M349.953 442.291C353.999 442.291 357.328 443.636 359.94 446.324C362.578 448.988 363.897 452.291 363.897 456.235C363.897 460.178 362.578 463.494 359.94 466.183C357.328 468.846 353.999 470.178 349.953 470.178C347.495 470.178 345.228 469.602 343.154 468.45C341.106 467.272 339.505 465.697 338.353 463.725L342.194 461.535C342.911 462.867 343.961 463.93 345.344 464.724C346.727 465.492 348.263 465.876 349.953 465.876C352.437 465.876 354.511 465.185 356.176 463.802C357.84 462.419 358.877 460.588 359.287 458.309H346.381V454.16H359.287C358.877 451.881 357.84 450.05 356.176 448.668C354.511 447.285 352.437 446.593 349.953 446.593C348.263 446.593 346.727 446.99 345.344 447.784C343.961 448.552 342.911 449.602 342.194 450.934L338.353 448.706C339.505 446.734 341.106 445.172 343.154 444.02C345.228 442.867 347.495 442.291 349.953 442.291ZM382.352 450.473V454.468H376.091V469.679H371.943V454.468H365.643V450.473H382.352ZM399.62 450.473H403.768V469.679H399.62V466.913C398.058 469.09 395.817 470.178 392.898 470.178C390.26 470.178 388.007 469.205 386.138 467.259C384.268 465.287 383.333 462.893 383.333 460.076C383.333 457.233 384.268 454.839 386.138 452.893C388.007 450.947 390.26 449.974 392.898 449.974C395.817 449.974 398.058 451.049 399.62 453.2V450.473ZM389.21 464.493C390.363 465.645 391.81 466.222 393.551 466.222C395.292 466.222 396.739 465.645 397.891 464.493C399.044 463.315 399.62 461.843 399.62 460.076C399.62 458.309 399.044 456.849 397.891 455.697C396.739 454.519 395.292 453.93 393.551 453.93C391.81 453.93 390.363 454.519 389.21 455.697C388.058 456.849 387.482 458.309 387.482 460.076C387.482 461.843 388.058 463.315 389.21 464.493ZM433.341 469.679H428.616L422.086 460.806V469.679H418.015V460.882L411.485 469.679H406.76L414.25 459.884L407.144 450.473H411.869L418.015 458.885V450.473H422.086V458.923L428.232 450.473H432.957L425.851 459.884L433.341 469.679ZM451.075 442.791H454.916V469.679H450.499V447.515L445.083 449.052L444.007 445.287L451.075 442.791Z"
     fill="#4354C6"
     id="path160" />
  <defs
     id="defs172">
    <clipPath
       id="clip0" />
    <clipPath
       id="clip1">
      <rect
         width="38"
         height="38"
         fill="white"
         transform="translate(630.699 167.075)"
         id="rect163" />
    </clipPath>
    <clipPath
       id="clip2">
      <rect
         width="42"
         height="42"
         fill="white"
         transform="translate(524.5 89.8125)"
         id="rect166" />
    </clipPath>
    <clipPath
       id="clip3">
      <rect
         width="36"
         height="36"
         fill="white"
         transform="translate(137.5 356.979)"
         id="rect169" />
    </clipPath>
  </defs>
</svg>
