<?xml version="1.0" encoding="UTF-8" standalone="no"?>
<svg
   width="635"
   height="524"
   viewBox="0 0 635 524"
   fill="none"
   version="1.1"
   id="svg205"
   sodipodi:docname="Bolshoy_prospekt.svg"
   inkscape:version="1.1 (c68e22c387, 2021-05-23)"
   xmlns:inkscape="http://www.inkscape.org/namespaces/inkscape"
   xmlns:sodipodi="http://sodipodi.sourceforge.net/DTD/sodipodi-0.dtd"
   xmlns="http://www.w3.org/2000/svg"
   xmlns:svg="http://www.w3.org/2000/svg">
  <sodipodi:namedview
     id="namedview207"
     pagecolor="#ffffff"
     bordercolor="#666666"
     borderopacity="1.0"
     inkscape:pageshadow="2"
     inkscape:pageopacity="0.0"
     inkscape:pagecheckerboard="0"
     showgrid="false"
     inkscape:zoom="1.5877863"
     inkscape:cx="317.73798"
     inkscape:cy="262.3149"
     inkscape:window-width="1920"
     inkscape:window-height="1017"
     inkscape:window-x="-8"
     inkscape:window-y="264"
     inkscape:window-maximized="1"
     inkscape:current-layer="g196" />
  <g
     id="g196">
    <rect
       x="99.5"
       y="42.8486"
       width="436"
       height="355"
       rx="24"
       fill="#F8F9FD"
       id="rect2" />
    <path
       d="M260.607 279.849C260.607 268.803 269.561 259.849 280.607 259.849H353.607C364.653 259.849 373.607 268.803 373.607 279.849V399.849H260.607V279.849Z"
       fill="#F0F1F8"
       id="path4" />
    <path
       d="M284.882 286.561C283.902 287.541 282.703 288.031 281.284 288.031C279.866 288.031 278.662 287.541 277.672 286.561C276.692 285.571 276.202 284.367 276.202 282.949C276.202 281.53 276.692 280.331 277.672 279.351C278.662 278.361 279.866 277.867 281.284 277.867C282.703 277.867 283.902 278.361 284.882 279.351C285.872 280.331 286.366 281.53 286.366 282.949C286.366 284.367 285.872 285.571 284.882 286.561ZM278.806 285.469C279.478 286.131 280.304 286.463 281.284 286.463C282.264 286.463 283.086 286.131 283.748 285.469C284.42 284.797 284.756 283.957 284.756 282.949C284.756 281.941 284.42 281.105 283.748 280.443C283.086 279.771 282.264 279.435 281.284 279.435C280.304 279.435 279.478 279.771 278.806 280.443C278.144 281.105 277.812 281.941 277.812 282.949C277.812 283.957 278.144 284.797 278.806 285.469ZM290.985 288.031C289.912 288.031 289.034 287.685 288.353 286.995C287.681 286.295 287.345 285.403 287.345 284.321C287.345 283.135 287.522 282.221 287.877 281.577C288.232 280.923 288.95 280.331 290.033 279.799C290.21 279.715 290.472 279.593 290.817 279.435C291.172 279.276 291.414 279.164 291.545 279.099C291.676 279.024 291.839 278.921 292.035 278.791C292.231 278.651 292.376 278.506 292.469 278.357C292.562 278.198 292.637 278.011 292.693 277.797L293.925 278.511C293.888 278.716 293.827 278.907 293.743 279.085C293.659 279.253 293.538 279.411 293.379 279.561C293.22 279.71 293.08 279.831 292.959 279.925C292.847 280.018 292.656 280.13 292.385 280.261C292.114 280.391 291.914 280.485 291.783 280.541C291.662 280.597 291.428 280.695 291.083 280.835C290.467 281.077 290.014 281.329 289.725 281.591C289.445 281.843 289.249 282.16 289.137 282.543C289.697 281.908 290.458 281.591 291.419 281.591C292.24 281.591 292.954 281.885 293.561 282.473C294.177 283.061 294.485 283.821 294.485 284.755C294.485 285.707 294.158 286.491 293.505 287.107C292.861 287.723 292.021 288.031 290.985 288.031ZM290.971 286.617C291.559 286.617 292.04 286.444 292.413 286.099C292.786 285.744 292.973 285.296 292.973 284.755C292.973 284.204 292.786 283.751 292.413 283.397C292.049 283.042 291.573 282.865 290.985 282.865C290.462 282.865 289.991 283.033 289.571 283.369C289.151 283.695 288.941 284.134 288.941 284.685C288.941 285.245 289.137 285.707 289.529 286.071C289.921 286.435 290.402 286.617 290.971 286.617ZM305.34 286.421H306.278V289.725H304.794V287.849H295.68V280.849H297.192V286.421H299.754V280.849H301.266V286.421H303.828V280.849H305.34V286.421ZM312.575 280.849H313.737V287.849H312.253V283.397L308.669 287.849H307.507V280.849H308.991V285.287L312.575 280.849ZM316.639 279.869V278.553H320.559V279.869H316.639ZM320.559 280.849H321.721V287.849H320.237V283.397L316.653 287.849H315.491V280.849H316.975V285.287L320.559 280.849ZM330.279 288.031C329.225 288.031 328.343 287.676 327.633 286.967C326.933 286.257 326.583 285.385 326.583 284.349C326.583 283.303 326.933 282.431 327.633 281.731C328.343 281.021 329.225 280.667 330.279 280.667C330.961 280.667 331.581 280.83 332.141 281.157C332.701 281.483 333.121 281.922 333.401 282.473L332.099 283.229C331.941 282.893 331.698 282.631 331.371 282.445C331.054 282.249 330.685 282.151 330.265 282.151C329.649 282.151 329.131 282.361 328.711 282.781C328.301 283.201 328.095 283.723 328.095 284.349C328.095 284.974 328.301 285.497 328.711 285.917C329.131 286.337 329.649 286.547 330.265 286.547C330.676 286.547 331.045 286.449 331.371 286.253C331.707 286.057 331.959 285.795 332.127 285.469L333.429 286.211C333.131 286.771 332.701 287.214 332.141 287.541C331.581 287.867 330.961 288.031 330.279 288.031ZM339.802 280.849V282.305H337.52V287.849H336.008V282.305H333.712V280.849H339.802ZM343.855 288.031C342.829 288.031 341.956 287.676 341.237 286.967C340.519 286.257 340.159 285.385 340.159 284.349C340.159 283.313 340.519 282.44 341.237 281.731C341.956 281.021 342.829 280.667 343.855 280.667C344.891 280.667 345.764 281.021 346.473 281.731C347.192 282.44 347.551 283.313 347.551 284.349C347.551 285.385 347.192 286.257 346.473 286.967C345.764 287.676 344.891 288.031 343.855 288.031ZM342.301 285.931C342.721 286.351 343.239 286.561 343.855 286.561C344.471 286.561 344.989 286.351 345.409 285.931C345.829 285.511 346.039 284.983 346.039 284.349C346.039 283.714 345.829 283.187 345.409 282.767C344.989 282.347 344.471 282.137 343.855 282.137C343.239 282.137 342.721 282.347 342.301 282.767C341.881 283.187 341.671 283.714 341.671 284.349C341.671 284.983 341.881 285.511 342.301 285.931ZM354.622 280.849V287.849H353.11V282.305H350.772V284.909C350.772 286.019 350.529 286.808 350.044 287.275C349.558 287.741 348.868 287.933 347.972 287.849V286.435C348.401 286.509 348.723 286.421 348.938 286.169C349.152 285.917 349.26 285.473 349.26 284.839V280.849H354.622Z"
       fill="#C4C6E4"
       id="path6" />
    <path
       d="M292.107 361.849C292.107 361.572 291.883 361.349 291.607 361.349L284.107 361.349C279.689 361.349 276.107 364.93 276.107 369.349C276.107 373.767 279.689 377.349 284.107 377.349L291.607 377.349C291.883 377.349 292.107 377.125 292.107 376.849L292.107 361.849Z"
       fill="#0015CE"
       fill-opacity="0.15"
       stroke="#0015CE"
       id="path8" />
    <path
       d="M292.107 333.849C292.107 333.572 291.883 333.349 291.607 333.349L284.107 333.349C279.689 333.349 276.107 336.93 276.107 341.349C276.107 345.767 279.689 349.349 284.107 349.349L291.607 349.349C291.883 349.349 292.107 349.125 292.107 348.849L292.107 333.849Z"
       fill="#0015CE"
       fill-opacity="0.15"
       stroke="#0015CE"
       id="path10" />
    <path
       d="M292.107 305.849C292.107 305.572 291.883 305.349 291.607 305.349L284.107 305.349C279.689 305.349 276.107 308.93 276.107 313.349C276.107 317.767 279.689 321.349 284.107 321.349L291.607 321.349C291.883 321.349 292.107 321.125 292.107 320.849L292.107 305.849Z"
       fill="#0015CE"
       fill-opacity="0.15"
       stroke="#0015CE"
       id="path12" />
    <path
       d="M299.607 302.849C299.607 300.087 301.846 297.849 304.607 297.849H329.607C332.368 297.849 334.607 300.087 334.607 302.849V379.849C334.607 382.61 332.368 384.849 329.607 384.849H304.607C301.846 384.849 299.607 382.61 299.607 379.849V302.849Z"
       fill="#0015CE"
       fill-opacity="0.1"
       id="path14" />
    <path
       d="M313.351 336.549H314.751V346.349H313.141V338.271L311.167 338.831L310.775 337.459L313.351 336.549ZM323.04 345.145C322.368 346.069 321.426 346.531 320.212 346.531C318.999 346.531 318.052 346.069 317.37 345.145C316.698 344.221 316.362 342.989 316.362 341.449C316.362 339.909 316.698 338.677 317.37 337.753C318.052 336.829 318.999 336.367 320.212 336.367C321.426 336.367 322.368 336.829 323.04 337.753C323.722 338.677 324.062 339.909 324.062 341.449C324.062 342.989 323.722 344.221 323.04 345.145ZM320.212 344.963C320.94 344.963 321.496 344.659 321.878 344.053C322.261 343.446 322.452 342.578 322.452 341.449C322.452 340.319 322.261 339.451 321.878 338.845C321.496 338.238 320.94 337.935 320.212 337.935C319.494 337.935 318.938 338.238 318.546 338.845C318.164 339.451 317.972 340.319 317.972 341.449C317.972 342.578 318.164 343.446 318.546 344.053C318.938 344.659 319.494 344.963 320.212 344.963Z"
       fill="#0015CE"
       id="path16" />
    <path
       d="M304.607 298.849H329.607V296.849H304.607V298.849ZM333.607 302.849V379.849H335.607V302.849H333.607ZM329.607 383.849H304.607V385.849H329.607V383.849ZM300.607 379.849V302.849H298.607V379.849H300.607ZM304.607 383.849C302.398 383.849 300.607 382.058 300.607 379.849H298.607C298.607 383.162 301.293 385.849 304.607 385.849V383.849ZM333.607 379.849C333.607 382.058 331.816 383.849 329.607 383.849V385.849C332.921 385.849 335.607 383.162 335.607 379.849H333.607ZM329.607 298.849C331.816 298.849 333.607 300.639 333.607 302.849H335.607C335.607 299.535 332.921 296.849 329.607 296.849V298.849ZM304.607 296.849C301.293 296.849 298.607 299.535 298.607 302.849H300.607C300.607 300.639 302.398 298.849 304.607 298.849V296.849Z"
       fill="#0015CE"
       id="path18" />
    <path
       d="M342.107 361.849C342.107 361.572 342.331 361.349 342.607 361.349H350.107C354.525 361.349 358.107 364.93 358.107 369.349C358.107 373.767 354.525 377.349 350.107 377.349H342.607C342.331 377.349 342.107 377.125 342.107 376.849V361.849Z"
       fill="#DEE0ED"
       stroke="#B6B5D3"
       id="path20" />
    <path
       d="M342.107 333.849C342.107 333.572 342.331 333.349 342.607 333.349H350.107C354.525 333.349 358.107 336.93 358.107 341.349C358.107 345.767 354.525 349.349 350.107 349.349H342.607C342.331 349.349 342.107 349.125 342.107 348.849V333.849Z"
       fill="#0015CE"
       fill-opacity="0.15"
       stroke="#0015CE"
       id="path22" />
    <path
       d="M342.107 305.849C342.107 305.572 342.331 305.349 342.607 305.349H350.107C354.525 305.349 358.107 308.93 358.107 313.349C358.107 317.767 354.525 321.349 350.107 321.349H342.607C342.331 321.349 342.107 321.125 342.107 320.849V305.849Z"
       fill="#0015CE"
       fill-opacity="0.15"
       stroke="#0015CE"
       id="path24" />
    <path
       d="M101.357 46.8486H393.357V105.849C393.357 116.894 384.403 125.849 373.357 125.849H101.357V46.8486Z"
       fill="#F0F1F8"
       id="path26" />
    <path
       d="M130.857 82.3486C130.857 82.6248 130.633 82.8486 130.357 82.8486L122.857 82.8486C118.439 82.8486 114.857 79.2669 114.857 74.8486C114.857 70.4304 118.439 66.8486 122.857 66.8486L130.357 66.8486C130.633 66.8486 130.857 67.0725 130.857 67.3486L130.857 82.3486Z"
       fill="#0015CE"
       fill-opacity="0.15"
       stroke="#0015CE"
       id="path28" />
    <path
       d="M137.357 64.8486C137.357 62.0872 139.596 59.8486 142.357 59.8486H162.357C165.118 59.8486 167.357 62.0872 167.357 64.8486V84.8486C167.357 87.6101 165.118 89.8486 162.357 89.8486H142.357C139.596 89.8486 137.357 87.6101 137.357 84.8486V64.8486Z"
       fill="#0015CE"
       fill-opacity="0.1"
       id="path30" />
    <path
       d="M156.178 76.0866V77.5846H155.058V79.3486H153.434V77.5846H148.618V76.0866L151.992 69.5486H153.742L150.368 76.0866H153.434V73.5386H155.058V76.0866H156.178Z"
       fill="#0015CE"
       id="path32" />
    <path
       d="M142.357 60.8486H162.357V58.8486H142.357V60.8486ZM166.357 64.8486V84.8486H168.357V64.8486H166.357ZM162.357 88.8486H142.357V90.8486H162.357V88.8486ZM138.357 84.8486V64.8486H136.357V84.8486H138.357ZM142.357 88.8486C140.148 88.8486 138.357 87.0578 138.357 84.8486H136.357C136.357 88.1623 139.043 90.8486 142.357 90.8486V88.8486ZM166.357 84.8486C166.357 87.0578 164.566 88.8486 162.357 88.8486V90.8486C165.671 90.8486 168.357 88.1623 168.357 84.8486H166.357ZM162.357 60.8486C164.566 60.8486 166.357 62.6395 166.357 64.8486H168.357C168.357 61.5349 165.671 58.8486 162.357 58.8486V60.8486ZM142.357 58.8486C139.043 58.8486 136.357 61.5349 136.357 64.8486H138.357C138.357 62.6395 140.148 60.8486 142.357 60.8486V58.8486Z"
       fill="#0015CE"
       id="path34" />
    <path
       d="M173.857 67.3486C173.857 67.0725 174.081 66.8486 174.357 66.8486H181.857C186.275 66.8486 189.857 70.4304 189.857 74.8486C189.857 79.2669 186.275 82.8486 181.857 82.8486H174.357C174.081 82.8486 173.857 82.6248 173.857 82.3486V67.3486Z"
       fill="#0015CE"
       fill-opacity="0.15"
       stroke="#0015CE"
       id="path36" />
    <path
       d="M159.857 96.3486C160.133 96.3486 160.357 96.5725 160.357 96.8486L160.357 104.349C160.357 108.767 156.775 112.349 152.357 112.349C147.939 112.349 144.357 108.767 144.357 104.349L144.357 96.8486C144.357 96.5725 144.581 96.3486 144.857 96.3486L159.857 96.3486Z"
       fill="#0015CE"
       fill-opacity="0.15"
       stroke="#0015CE"
       id="path38" />
    <path
       d="M225.857 82.3486C225.857 82.6248 225.633 82.8486 225.357 82.8486L217.857 82.8486C213.439 82.8486 209.857 79.2669 209.857 74.8486C209.857 70.4304 213.439 66.8486 217.857 66.8486L225.357 66.8486C225.633 66.8486 225.857 67.0725 225.857 67.3486L225.857 82.3486Z"
       fill="#0015CE"
       fill-opacity="0.15"
       stroke="#0015CE"
       id="path40" />
    <path
       d="M232.357 64.8486C232.357 62.0872 234.596 59.8486 237.357 59.8486H257.357C260.118 59.8486 262.357 62.0872 262.357 64.8486V84.8486C262.357 87.6101 260.118 89.8486 257.357 89.8486H237.357C234.596 89.8486 232.357 87.6101 232.357 84.8486V64.8486Z"
       fill="#0015CE"
       fill-opacity="0.1"
       id="path42" />
    <path
       d="M248.253 73.5526C248.962 73.7206 249.536 74.052 249.975 74.5466C250.423 75.032 250.647 75.6433 250.647 76.3806C250.647 77.3606 250.315 78.1306 249.653 78.6906C248.99 79.2506 248.178 79.5306 247.217 79.5306C246.47 79.5306 245.798 79.358 245.201 79.0126C244.613 78.6673 244.188 78.1633 243.927 77.5006L245.299 76.7026C245.588 77.5426 246.227 77.9626 247.217 77.9626C247.777 77.9626 248.22 77.8226 248.547 77.5426C248.873 77.2533 249.037 76.866 249.037 76.3806C249.037 75.8953 248.873 75.5126 248.547 75.2326C248.22 74.9526 247.777 74.8126 247.217 74.8126H246.853L246.209 73.8466L248.323 71.0606H244.221V69.5486H250.241V70.9206L248.253 73.5526Z"
       fill="#0015CE"
       id="path44" />
    <path
       d="M237.357 60.8486H257.357V58.8486H237.357V60.8486ZM261.357 64.8486V84.8486H263.357V64.8486H261.357ZM257.357 88.8486H237.357V90.8486H257.357V88.8486ZM233.357 84.8486V64.8486H231.357V84.8486H233.357ZM237.357 88.8486C235.148 88.8486 233.357 87.0578 233.357 84.8486H231.357C231.357 88.1623 234.043 90.8486 237.357 90.8486V88.8486ZM261.357 84.8486C261.357 87.0578 259.566 88.8486 257.357 88.8486V90.8486C260.671 90.8486 263.357 88.1623 263.357 84.8486H261.357ZM257.357 60.8486C259.566 60.8486 261.357 62.6395 261.357 64.8486H263.357C263.357 61.5349 260.671 58.8486 257.357 58.8486V60.8486ZM237.357 58.8486C234.043 58.8486 231.357 61.5349 231.357 64.8486H233.357C233.357 62.6395 235.148 60.8486 237.357 60.8486V58.8486Z"
       fill="#0015CE"
       id="path46" />
    <path
       d="M268.857 67.3486C268.857 67.0725 269.081 66.8486 269.357 66.8486H276.857C281.275 66.8486 284.857 70.4304 284.857 74.8486C284.857 79.2669 281.275 82.8486 276.857 82.8486H269.357C269.081 82.8486 268.857 82.6248 268.857 82.3486V67.3486Z"
       fill="#0015CE"
       fill-opacity="0.15"
       stroke="#0015CE"
       id="path48" />
    <path
       d="M254.857 96.3486C255.133 96.3486 255.357 96.5725 255.357 96.8486L255.357 104.349C255.357 108.767 251.775 112.349 247.357 112.349C242.939 112.349 239.357 108.767 239.357 104.349L239.357 96.8486C239.357 96.5725 239.581 96.3486 239.857 96.3486L254.857 96.3486Z"
       fill="#0015CE"
       fill-opacity="0.15"
       stroke="#0015CE"
       id="path50" />
    <path
       d="M320.857 82.3486C320.857 82.6248 320.633 82.8486 320.357 82.8486L312.857 82.8486C308.439 82.8486 304.857 79.2669 304.857 74.8486C304.857 70.4304 308.439 66.8486 312.857 66.8486L320.357 66.8486C320.633 66.8486 320.857 67.0725 320.857 67.3486L320.857 82.3486Z"
       fill="#0015CE"
       fill-opacity="0.15"
       stroke="#0015CE"
       id="path52" />
    <path
       d="M327.357 64.8486C327.357 62.0872 329.596 59.8486 332.357 59.8486H352.357C355.118 59.8486 357.357 62.0872 357.357 64.8486V84.8486C357.357 87.6101 355.118 89.8486 352.357 89.8486H332.357C329.596 89.8486 327.357 87.6101 327.357 84.8486V64.8486Z"
       fill="#0015CE"
       fill-opacity="0.1"
       id="path54" />
    <path
       d="M339.086 79.3486V78.0886L342.502 74.6026C343.333 73.772 343.748 73.0533 343.748 72.4466C343.748 71.9706 343.603 71.602 343.314 71.3406C343.034 71.07 342.675 70.9346 342.236 70.9346C341.415 70.9346 340.808 71.3406 340.416 72.1526L339.058 71.3546C339.366 70.7013 339.8 70.2066 340.36 69.8706C340.92 69.5346 341.541 69.3666 342.222 69.3666C343.081 69.3666 343.818 69.6373 344.434 70.1786C345.05 70.72 345.358 71.4573 345.358 72.3906C345.358 73.3893 344.803 74.4533 343.692 75.5826L341.48 77.7946H345.54V79.3486H339.086Z"
       fill="#0015CE"
       id="path56" />
    <path
       d="M332.357 60.8486H352.357V58.8486H332.357V60.8486ZM356.357 64.8486V84.8486H358.357V64.8486H356.357ZM352.357 88.8486H332.357V90.8486H352.357V88.8486ZM328.357 84.8486V64.8486H326.357V84.8486H328.357ZM332.357 88.8486C330.148 88.8486 328.357 87.0578 328.357 84.8486H326.357C326.357 88.1623 329.043 90.8486 332.357 90.8486V88.8486ZM356.357 84.8486C356.357 87.0578 354.566 88.8486 352.357 88.8486V90.8486C355.671 90.8486 358.357 88.1623 358.357 84.8486H356.357ZM352.357 60.8486C354.566 60.8486 356.357 62.6395 356.357 64.8486H358.357C358.357 61.5349 355.671 58.8486 352.357 58.8486V60.8486ZM332.357 58.8486C329.043 58.8486 326.357 61.5349 326.357 64.8486H328.357C328.357 62.6395 330.148 60.8486 332.357 60.8486V58.8486Z"
       fill="#0015CE"
       id="path58" />
    <path
       d="M363.857 67.3486C363.857 67.0725 364.081 66.8486 364.357 66.8486H371.857C376.275 66.8486 379.857 70.4304 379.857 74.8486C379.857 79.2669 376.275 82.8486 371.857 82.8486H364.357C364.081 82.8486 363.857 82.6248 363.857 82.3486V67.3486Z"
       fill="#0015CE"
       fill-opacity="0.15"
       stroke="#0015CE"
       id="path60" />
    <path
       d="M349.857 96.3486C350.133 96.3486 350.357 96.5725 350.357 96.8486L350.357 104.349C350.357 108.767 346.775 112.349 342.357 112.349C337.939 112.349 334.357 108.767 334.357 104.349L334.357 96.8486C334.357 96.5725 334.581 96.3486 334.857 96.3486L349.857 96.3486Z"
       fill="#0015CE"
       fill-opacity="0.15"
       stroke="#0015CE"
       id="path62" />
    <path
       d="M388.857 171.446C388.857 160.401 397.811 151.446 408.857 151.446H540.857V257.446H408.857C397.811 257.446 388.857 248.492 388.857 237.446V171.446Z"
       fill="#F0F1F8"
       id="path64" />
    <path
       d="M434.357 182.946C434.081 182.946 433.857 182.722 433.857 182.446L433.857 174.946C433.857 170.528 437.439 166.946 441.857 166.946C446.275 166.946 449.857 170.528 449.857 174.946L449.857 182.446C449.857 182.722 449.633 182.946 449.357 182.946L434.357 182.946Z"
       fill="#0015CE"
       fill-opacity="0.15"
       stroke="#0015CE"
       id="path66" />
    <path
       d="M426.857 194.446C426.857 191.685 429.096 189.446 431.857 189.446H451.857C454.618 189.446 456.857 191.685 456.857 194.446V214.446C456.857 217.208 454.618 219.446 451.857 219.446H431.857C429.096 219.446 426.857 217.208 426.857 214.446V194.446Z"
       fill="#0015CE"
       fill-opacity="0.1"
       id="path68" />
    <path
       d="M438.196 199.146H439.596V208.946H437.986V200.868L436.012 201.428L435.62 200.056L438.196 199.146ZM444.497 202.842C445.43 202.842 446.219 203.122 446.863 203.682C447.507 204.233 447.829 204.998 447.829 205.978C447.829 206.958 447.498 207.728 446.835 208.288C446.172 208.848 445.36 209.128 444.399 209.128C443.624 209.128 442.938 208.951 442.341 208.596C441.744 208.232 441.319 207.71 441.067 207.028L442.453 206.23C442.714 207.117 443.363 207.56 444.399 207.56C444.95 207.56 445.388 207.42 445.715 207.14C446.051 206.851 446.219 206.464 446.219 205.978C446.219 205.493 446.056 205.11 445.729 204.83C445.402 204.55 444.968 204.41 444.427 204.41H441.571L441.949 199.146H447.409V200.658H443.433L443.265 202.842H444.497Z"
       fill="#0015CE"
       id="path70" />
    <path
       d="M431.857 190.446H451.857V188.446H431.857V190.446ZM455.857 194.446V214.446H457.857V194.446H455.857ZM451.857 218.446H431.857V220.446H451.857V218.446ZM427.857 214.446V194.446H425.857V214.446H427.857ZM431.857 218.446C429.648 218.446 427.857 216.655 427.857 214.446H425.857C425.857 217.76 428.543 220.446 431.857 220.446V218.446ZM455.857 214.446C455.857 216.655 454.066 218.446 451.857 218.446V220.446C455.171 220.446 457.857 217.76 457.857 214.446H455.857ZM451.857 190.446C454.066 190.446 455.857 192.237 455.857 194.446H457.857C457.857 191.133 455.171 188.446 451.857 188.446V190.446ZM431.857 188.446C428.543 188.446 425.857 191.133 425.857 194.446H427.857C427.857 192.237 429.648 190.446 431.857 190.446V188.446Z"
       fill="#0015CE"
       id="path72" />
    <path
       d="M449.357 225.946C449.633 225.946 449.857 226.17 449.857 226.446L449.857 233.946C449.857 238.365 446.275 241.946 441.857 241.946C437.439 241.946 433.857 238.365 433.857 233.946L433.857 226.446C433.857 226.17 434.081 225.946 434.357 225.946L449.357 225.946Z"
       fill="#0015CE"
       fill-opacity="0.15"
       stroke="#0015CE"
       id="path74" />
    <path
       d="M420.357 211.946C420.357 212.222 420.133 212.446 419.857 212.446L412.357 212.446C407.939 212.446 404.357 208.865 404.357 204.446C404.357 200.028 407.939 196.446 412.357 196.446L419.857 196.446C420.133 196.446 420.357 196.67 420.357 196.946L420.357 211.946Z"
       fill="#0015CE"
       fill-opacity="0.15"
       stroke="#0015CE"
       id="path76" />
    <path
       d="M509.357 211.946C509.357 212.222 509.581 212.446 509.857 212.446L517.357 212.446C521.775 212.446 525.357 208.865 525.357 204.446C525.357 200.028 521.775 196.446 517.357 196.446L509.857 196.446C509.581 196.446 509.357 196.67 509.357 196.946L509.357 211.946Z"
       fill="#0015CE"
       fill-opacity="0.15"
       stroke="#0015CE"
       id="path78" />
    <path
       d="M480.357 182.946C480.081 182.946 479.857 182.722 479.857 182.446L479.857 174.946C479.857 170.528 483.439 166.946 487.857 166.946C492.275 166.946 495.857 170.528 495.857 174.946L495.857 182.446C495.857 182.722 495.633 182.946 495.357 182.946L480.357 182.946Z"
       fill="#0015CE"
       fill-opacity="0.15"
       stroke="#0015CE"
       id="path80" />
    <path
       d="M472.857 194.446C472.857 191.685 475.096 189.446 477.857 189.446H497.857C500.618 189.446 502.857 191.685 502.857 194.446V214.446C502.857 217.208 500.618 219.446 497.857 219.446H477.857C475.096 219.446 472.857 217.208 472.857 214.446V194.446Z"
       fill="#0015CE"
       fill-opacity="0.1"
       id="path82" />
    <path
       d="M483.95 199.146H485.35V208.946H483.74V200.868L481.766 201.428L481.374 200.056L483.95 199.146ZM494.283 205.684V207.182H493.163V208.946H491.539V207.182H486.723V205.684L490.097 199.146H491.847L488.473 205.684H491.539V203.136H493.163V205.684H494.283Z"
       fill="#0015CE"
       id="path84" />
    <path
       d="M477.857 190.446H497.857V188.446H477.857V190.446ZM501.857 194.446V214.446H503.857V194.446H501.857ZM497.857 218.446H477.857V220.446H497.857V218.446ZM473.857 214.446V194.446H471.857V214.446H473.857ZM477.857 218.446C475.648 218.446 473.857 216.655 473.857 214.446H471.857C471.857 217.76 474.543 220.446 477.857 220.446V218.446ZM501.857 214.446C501.857 216.655 500.066 218.446 497.857 218.446V220.446C501.171 220.446 503.857 217.76 503.857 214.446H501.857ZM497.857 190.446C500.066 190.446 501.857 192.237 501.857 194.446H503.857C503.857 191.133 501.171 188.446 497.857 188.446V190.446ZM477.857 188.446C474.543 188.446 471.857 191.133 471.857 194.446H473.857C473.857 192.237 475.648 190.446 477.857 190.446V188.446Z"
       fill="#0015CE"
       id="path86" />
    <path
       d="M495.357 225.946C495.633 225.946 495.857 226.17 495.857 226.446L495.857 233.946C495.857 238.365 492.275 241.946 487.857 241.946C483.439 241.946 479.857 238.365 479.857 233.946L479.857 226.446C479.857 226.17 480.081 225.946 480.357 225.946L495.357 225.946Z"
       fill="#0015CE"
       fill-opacity="0.15"
       stroke="#0015CE"
       id="path88" />
    <path
       d="M97.8569 151.446H183.857C194.903 151.446 203.857 160.401 203.857 171.446V232.446C203.857 243.492 194.903 252.446 183.857 252.446H97.8569V151.446Z"
       fill="#F0F1F8"
       id="path90" />
    <path
       d="M129.357 188.946C129.357 189.222 129.133 189.446 128.857 189.446L121.357 189.446C116.939 189.446 113.357 185.865 113.357 181.446C113.357 177.028 116.939 173.446 121.357 173.446L128.857 173.446C129.133 173.446 129.357 173.67 129.357 173.946L129.357 188.946Z"
       fill="#0015CE"
       fill-opacity="0.15"
       stroke="#0015CE"
       id="path92" />
    <path
       d="M135.857 171.446C135.857 168.685 138.096 166.446 140.857 166.446H160.857C163.618 166.446 165.857 168.685 165.857 171.446V191.446C165.857 194.208 163.618 196.446 160.857 196.446H140.857C138.096 196.446 135.857 194.208 135.857 191.446V171.446Z"
       fill="#0015CE"
       fill-opacity="0.1"
       id="path94" />
    <path
       d="M150.892 179.842C151.826 179.842 152.614 180.122 153.258 180.682C153.902 181.233 154.224 181.998 154.224 182.978C154.224 183.958 153.893 184.728 153.23 185.288C152.568 185.848 151.756 186.128 150.794 186.128C150.02 186.128 149.334 185.951 148.736 185.596C148.139 185.232 147.714 184.71 147.462 184.028L148.848 183.23C149.11 184.117 149.758 184.56 150.794 184.56C151.345 184.56 151.784 184.42 152.11 184.14C152.446 183.851 152.614 183.464 152.614 182.978C152.614 182.493 152.451 182.11 152.124 181.83C151.798 181.55 151.364 181.41 150.822 181.41H147.966L148.344 176.146H153.804V177.658H149.828L149.66 179.842H150.892Z"
       fill="#0015CE"
       id="path96" />
    <path
       d="M140.857 167.446H160.857V165.446H140.857V167.446ZM164.857 171.446V191.446H166.857V171.446H164.857ZM160.857 195.446H140.857V197.446H160.857V195.446ZM136.857 191.446V171.446H134.857V191.446H136.857ZM140.857 195.446C138.648 195.446 136.857 193.655 136.857 191.446H134.857C134.857 194.76 137.543 197.446 140.857 197.446V195.446ZM164.857 191.446C164.857 193.655 163.066 195.446 160.857 195.446V197.446C164.171 197.446 166.857 194.76 166.857 191.446H164.857ZM160.857 167.446C163.066 167.446 164.857 169.237 164.857 171.446H166.857C166.857 168.133 164.171 165.446 160.857 165.446V167.446ZM140.857 165.446C137.543 165.446 134.857 168.133 134.857 171.446H136.857C136.857 169.237 138.648 167.446 140.857 167.446V165.446Z"
       fill="#0015CE"
       id="path98" />
    <path
       d="M172.357 173.946C172.357 173.67 172.581 173.446 172.857 173.446H180.357C184.775 173.446 188.357 177.028 188.357 181.446C188.357 185.865 184.775 189.446 180.357 189.446H172.857C172.581 189.446 172.357 189.222 172.357 188.946V173.946Z"
       fill="#0015CE"
       fill-opacity="0.15"
       stroke="#0015CE"
       id="path100" />
    <path
       d="M129.357 229.946C129.357 230.222 129.133 230.446 128.857 230.446L121.357 230.446C116.939 230.446 113.357 226.865 113.357 222.446C113.357 218.028 116.939 214.446 121.357 214.446L128.857 214.446C129.133 214.446 129.357 214.67 129.357 214.946L129.357 229.946Z"
       fill="#0015CE"
       fill-opacity="0.15"
       stroke="#0015CE"
       id="path102" />
    <path
       d="M135.857 212.446C135.857 209.685 138.096 207.446 140.857 207.446H160.857C163.618 207.446 165.857 209.685 165.857 212.446V232.446C165.857 235.208 163.618 237.446 160.857 237.446H140.857C138.096 237.446 135.857 235.208 135.857 232.446V212.446Z"
       fill="#0015CE"
       fill-opacity="0.1"
       id="path104" />
    <path
       d="M150.864 220.436C151.882 220.436 152.712 220.749 153.356 221.374C154 221.99 154.322 222.793 154.322 223.782C154.322 224.772 154 225.579 153.356 226.204C152.712 226.82 151.882 227.128 150.864 227.128C149.838 227.128 149.002 226.82 148.358 226.204C147.714 225.579 147.392 224.772 147.392 223.782C147.392 223.036 147.588 222.378 147.98 221.808L151.088 217.146H152.922L150.682 220.436H150.864ZM150.864 225.602C151.406 225.602 151.849 225.439 152.194 225.112C152.54 224.776 152.712 224.333 152.712 223.782C152.712 223.232 152.54 222.793 152.194 222.466C151.849 222.13 151.406 221.962 150.864 221.962C150.314 221.962 149.866 222.13 149.52 222.466C149.175 222.793 149.002 223.232 149.002 223.782C149.002 224.333 149.175 224.776 149.52 225.112C149.866 225.439 150.314 225.602 150.864 225.602Z"
       fill="#0015CE"
       id="path106" />
    <path
       d="M140.857 208.446H160.857V206.446H140.857V208.446ZM164.857 212.446V232.446H166.857V212.446H164.857ZM160.857 236.446H140.857V238.446H160.857V236.446ZM136.857 232.446V212.446H134.857V232.446H136.857ZM140.857 236.446C138.648 236.446 136.857 234.655 136.857 232.446H134.857C134.857 235.76 137.543 238.446 140.857 238.446V236.446ZM164.857 232.446C164.857 234.655 163.066 236.446 160.857 236.446V238.446C164.171 238.446 166.857 235.76 166.857 232.446H164.857ZM160.857 208.446C163.066 208.446 164.857 210.237 164.857 212.446H166.857C166.857 209.133 164.171 206.446 160.857 206.446V208.446ZM140.857 206.446C137.543 206.446 134.857 209.133 134.857 212.446H136.857C136.857 210.237 138.648 208.446 140.857 208.446V206.446Z"
       fill="#0015CE"
       id="path108" />
    <path
       d="M172.357 214.946C172.357 214.67 172.581 214.446 172.857 214.446H180.357C184.775 214.446 188.357 218.028 188.357 222.446C188.357 226.865 184.775 230.446 180.357 230.446H172.857C172.581 230.446 172.357 230.222 172.357 229.946V214.946Z"
       fill="#0015CE"
       fill-opacity="0.15"
       stroke="#0015CE"
       id="path110" />
    <path
       d="M101.357 290.946H227.357C238.403 290.946 247.357 299.901 247.357 310.946V396.946H101.357V290.946Z"
       fill="#F0F1F8"
       id="path112" />
    <path
       d="M123.857 322.446C123.581 322.446 123.357 322.222 123.357 321.946L123.357 314.446C123.357 310.028 126.939 306.446 131.357 306.446C135.775 306.446 139.357 310.028 139.357 314.446L139.357 321.946C139.357 322.222 139.133 322.446 138.857 322.446L123.857 322.446Z"
       fill="#0015CE"
       fill-opacity="0.15"
       stroke="#0015CE"
       id="path114" />
    <path
       d="M116.357 333.946C116.357 331.185 118.596 328.946 121.357 328.946H141.357C144.118 328.946 146.357 331.185 146.357 333.946V353.946C146.357 356.708 144.118 358.946 141.357 358.946H121.357C118.596 358.946 116.357 356.708 116.357 353.946V333.946Z"
       fill="#0015CE"
       fill-opacity="0.1"
       id="path116" />
    <path
       d="M128.135 338.646H134.365V340.046L130.921 348.446H129.227L132.615 340.186H128.135V338.646Z"
       fill="#0015CE"
       id="path118" />
    <path
       d="M121.357 329.946H141.357V327.946H121.357V329.946ZM145.357 333.946V353.946H147.357V333.946H145.357ZM141.357 357.946H121.357V359.946H141.357V357.946ZM117.357 353.946V333.946H115.357V353.946H117.357ZM121.357 357.946C119.148 357.946 117.357 356.155 117.357 353.946H115.357C115.357 357.26 118.043 359.946 121.357 359.946V357.946ZM145.357 353.946C145.357 356.155 143.566 357.946 141.357 357.946V359.946C144.671 359.946 147.357 357.26 147.357 353.946H145.357ZM141.357 329.946C143.566 329.946 145.357 331.737 145.357 333.946H147.357C147.357 330.633 144.671 327.946 141.357 327.946V329.946ZM121.357 327.946C118.043 327.946 115.357 330.633 115.357 333.946H117.357C117.357 331.737 119.148 329.946 121.357 329.946V327.946Z"
       fill="#0015CE"
       id="path120" />
    <path
       d="M138.857 365.446C139.133 365.446 139.357 365.67 139.357 365.946L139.357 373.446C139.357 377.865 135.775 381.446 131.357 381.446C126.939 381.446 123.357 377.865 123.357 373.446L123.357 365.946C123.357 365.67 123.581 365.446 123.857 365.446L138.857 365.446Z"
       fill="#0015CE"
       fill-opacity="0.15"
       stroke="#0015CE"
       id="path122" />
    <path
       d="M166.857 322.446C166.581 322.446 166.357 322.222 166.357 321.946L166.357 314.446C166.357 310.028 169.939 306.446 174.357 306.446C178.775 306.446 182.357 310.028 182.357 314.446L182.357 321.946C182.357 322.222 182.133 322.446 181.857 322.446L166.857 322.446Z"
       fill="#0015CE"
       fill-opacity="0.15"
       stroke="#0015CE"
       id="path124" />
    <path
       d="M159.357 333.946C159.357 331.185 161.596 328.946 164.357 328.946H184.357C187.118 328.946 189.357 331.185 189.357 333.946V353.946C189.357 356.708 187.118 358.946 184.357 358.946H164.357C161.596 358.946 159.357 356.708 159.357 353.946V333.946Z"
       fill="#0015CE"
       fill-opacity="0.1"
       id="path126" />
    <path
       d="M176.355 343.35C177.316 343.882 177.797 344.676 177.797 345.73C177.797 346.626 177.484 347.336 176.859 347.858C176.234 348.372 175.403 348.628 174.367 348.628C173.331 348.628 172.496 348.372 171.861 347.858C171.236 347.336 170.923 346.626 170.923 345.73C170.923 345.226 171.049 344.769 171.301 344.358C171.553 343.938 171.908 343.602 172.365 343.35C171.628 342.865 171.259 342.174 171.259 341.278C171.259 340.382 171.558 339.692 172.155 339.206C172.752 338.712 173.49 338.464 174.367 338.464C175.235 338.464 175.968 338.712 176.565 339.206C177.172 339.692 177.475 340.382 177.475 341.278C177.475 342.174 177.102 342.865 176.355 343.35ZM174.367 339.99C173.928 339.99 173.569 340.107 173.289 340.34C173.009 340.574 172.869 340.91 172.869 341.348C172.869 341.768 173.009 342.1 173.289 342.342C173.578 342.585 173.938 342.706 174.367 342.706C174.787 342.706 175.142 342.585 175.431 342.342C175.72 342.1 175.865 341.768 175.865 341.348C175.865 340.91 175.72 340.574 175.431 340.34C175.151 340.107 174.796 339.99 174.367 339.99ZM174.367 347.102C174.908 347.102 175.347 346.972 175.683 346.71C176.019 346.44 176.187 346.062 176.187 345.576C176.187 345.091 176.019 344.718 175.683 344.456C175.347 344.186 174.908 344.05 174.367 344.05C173.816 344.05 173.373 344.186 173.037 344.456C172.701 344.718 172.533 345.091 172.533 345.576C172.533 346.062 172.701 346.44 173.037 346.71C173.373 346.972 173.816 347.102 174.367 347.102Z"
       fill="#0015CE"
       id="path128" />
    <path
       d="M164.357 329.946H184.357V327.946H164.357V329.946ZM188.357 333.946V353.946H190.357V333.946H188.357ZM184.357 357.946H164.357V359.946H184.357V357.946ZM160.357 353.946V333.946H158.357V353.946H160.357ZM164.357 357.946C162.148 357.946 160.357 356.155 160.357 353.946H158.357C158.357 357.26 161.043 359.946 164.357 359.946V357.946ZM188.357 353.946C188.357 356.155 186.566 357.946 184.357 357.946V359.946C187.671 359.946 190.357 357.26 190.357 353.946H188.357ZM184.357 329.946C186.566 329.946 188.357 331.737 188.357 333.946H190.357C190.357 330.633 187.671 327.946 184.357 327.946V329.946ZM164.357 327.946C161.043 327.946 158.357 330.633 158.357 333.946H160.357C160.357 331.737 162.148 329.946 164.357 329.946V327.946Z"
       fill="#0015CE"
       id="path130" />
    <path
       d="M181.857 365.446C182.133 365.446 182.357 365.67 182.357 365.946L182.357 373.446C182.357 377.865 178.775 381.446 174.357 381.446C169.939 381.446 166.357 377.865 166.357 373.446L166.357 365.946C166.357 365.67 166.581 365.446 166.857 365.446L181.857 365.446Z"
       fill="#0015CE"
       fill-opacity="0.15"
       stroke="#0015CE"
       id="path132" />
    <path
       d="M209.857 322.446C209.581 322.446 209.357 322.222 209.357 321.946L209.357 314.446C209.357 310.028 212.939 306.446 217.357 306.446C221.775 306.446 225.357 310.028 225.357 314.446L225.357 321.946C225.357 322.222 225.133 322.446 224.857 322.446L209.857 322.446Z"
       fill="#0015CE"
       fill-opacity="0.15"
       stroke="#0015CE"
       id="path134" />
    <path
       d="M202.357 333.946C202.357 331.185 204.596 328.946 207.357 328.946H227.357C230.118 328.946 232.357 331.185 232.357 333.946V353.946C232.357 356.708 230.118 358.946 227.357 358.946H207.357C204.596 358.946 202.357 356.708 202.357 353.946V333.946Z"
       fill="#0015CE"
       fill-opacity="0.1"
       id="path136" />
    <path
       d="M220.822 341.81C220.822 342.557 220.626 343.215 220.234 343.784L217.14 348.446H215.292L217.532 345.156H217.364C216.347 345.156 215.512 344.848 214.858 344.232C214.214 343.607 213.892 342.8 213.892 341.81C213.892 340.821 214.214 340.018 214.858 339.402C215.512 338.777 216.347 338.464 217.364 338.464C218.382 338.464 219.212 338.777 219.856 339.402C220.5 340.018 220.822 340.821 220.822 341.81ZM215.502 341.81C215.502 342.352 215.675 342.79 216.02 343.126C216.375 343.462 216.823 343.63 217.364 343.63C217.906 343.63 218.349 343.467 218.694 343.14C219.04 342.804 219.212 342.361 219.212 341.81C219.212 341.26 219.04 340.821 218.694 340.494C218.349 340.158 217.906 339.99 217.364 339.99C216.823 339.99 216.375 340.158 216.02 340.494C215.675 340.821 215.502 341.26 215.502 341.81Z"
       fill="#0015CE"
       id="path138" />
    <path
       d="M207.357 329.946H227.357V327.946H207.357V329.946ZM231.357 333.946V353.946H233.357V333.946H231.357ZM227.357 357.946H207.357V359.946H227.357V357.946ZM203.357 353.946V333.946H201.357V353.946H203.357ZM207.357 357.946C205.148 357.946 203.357 356.155 203.357 353.946H201.357C201.357 357.26 204.043 359.946 207.357 359.946V357.946ZM231.357 353.946C231.357 356.155 229.566 357.946 227.357 357.946V359.946C230.671 359.946 233.357 357.26 233.357 353.946H231.357ZM227.357 329.946C229.566 329.946 231.357 331.737 231.357 333.946H233.357C233.357 330.633 230.671 327.946 227.357 327.946V329.946ZM207.357 327.946C204.043 327.946 201.357 330.633 201.357 333.946H203.357C203.357 331.737 205.148 329.946 207.357 329.946V327.946Z"
       fill="#0015CE"
       id="path140" />
    <path
       d="M224.857 365.446C225.133 365.446 225.357 365.67 225.357 365.946L225.357 373.446C225.357 377.865 221.775 381.446 217.357 381.446C212.939 381.446 209.357 377.865 209.357 373.446L209.357 365.946C209.357 365.67 209.581 365.446 209.857 365.446L224.857 365.446Z"
       fill="#0015CE"
       fill-opacity="0.15"
       stroke="#0015CE"
       id="path142" />
    <path
       d="M385.857 310.946C385.857 299.901 394.811 290.946 405.857 290.946H531.857V396.946H385.857V310.946Z"
       fill="#F0F1F8"
       id="path144" />
    <path
       d="M408.357 322.446C408.081 322.446 407.857 322.222 407.857 321.946L407.857 314.446C407.857 310.028 411.439 306.446 415.857 306.446C420.275 306.446 423.857 310.028 423.857 314.446L423.857 321.946C423.857 322.222 423.633 322.446 423.357 322.446L408.357 322.446Z"
       fill="#0015CE"
       fill-opacity="0.15"
       stroke="#0015CE"
       id="path146" />
    <path
       d="M400.857 333.946C400.857 331.185 403.096 328.946 405.857 328.946H425.857C428.618 328.946 430.857 331.185 430.857 333.946V353.946C430.857 356.708 428.618 358.946 425.857 358.946H405.857C403.096 358.946 400.857 356.708 400.857 353.946V333.946Z"
       fill="#0015CE"
       fill-opacity="0.1"
       id="path148" />
    <path
       d="M413.406 338.646H414.806V348.446H413.196V340.368L411.222 340.928L410.83 339.556L413.406 338.646ZM418.615 338.646H420.015V348.446H418.405V340.368L416.431 340.928L416.039 339.556L418.615 338.646Z"
       fill="#0015CE"
       id="path150" />
    <path
       d="M405.857 329.946H425.857V327.946H405.857V329.946ZM429.857 333.946V353.946H431.857V333.946H429.857ZM425.857 357.946H405.857V359.946H425.857V357.946ZM401.857 353.946V333.946H399.857V353.946H401.857ZM405.857 357.946C403.648 357.946 401.857 356.155 401.857 353.946H399.857C399.857 357.26 402.543 359.946 405.857 359.946V357.946ZM429.857 353.946C429.857 356.155 428.066 357.946 425.857 357.946V359.946C429.171 359.946 431.857 357.26 431.857 353.946H429.857ZM425.857 329.946C428.066 329.946 429.857 331.737 429.857 333.946H431.857C431.857 330.633 429.171 327.946 425.857 327.946V329.946ZM405.857 327.946C402.543 327.946 399.857 330.633 399.857 333.946H401.857C401.857 331.737 403.648 329.946 405.857 329.946V327.946Z"
       fill="#0015CE"
       id="path152" />
    <path
       d="M423.357 365.446C423.633 365.446 423.857 365.67 423.857 365.946L423.857 373.446C423.857 377.865 420.275 381.446 415.857 381.446C411.439 381.446 407.857 377.865 407.857 373.446L407.857 365.946C407.857 365.67 408.081 365.446 408.357 365.446L423.357 365.446Z"
       fill="#0015CE"
       fill-opacity="0.15"
       stroke="#0015CE"
       id="path154" />
    <path
       d="M451.357 322.446C451.081 322.446 450.857 322.222 450.857 321.946L450.857 314.446C450.857 310.028 454.439 306.446 458.857 306.446C463.275 306.446 466.857 310.028 466.857 314.446L466.857 321.946C466.857 322.222 466.633 322.446 466.357 322.446L451.357 322.446Z"
       fill="#0015CE"
       fill-opacity="0.15"
       stroke="#0015CE"
       id="path156" />
    <path
       d="M443.857 333.946C443.857 331.185 446.096 328.946 448.857 328.946H468.857C471.618 328.946 473.857 331.185 473.857 333.946V353.946C473.857 356.708 471.618 358.946 468.857 358.946H448.857C446.096 358.946 443.857 356.708 443.857 353.946V333.946Z"
       fill="#0015CE"
       fill-opacity="0.1"
       id="path158" />
    <path
       d="M455.305 338.646H456.705V348.446H455.095V340.368L453.121 340.928L452.729 339.556L455.305 338.646ZM458.19 348.446V347.186L461.606 343.7C462.437 342.87 462.852 342.151 462.852 341.544C462.852 341.068 462.708 340.7 462.418 340.438C462.138 340.168 461.779 340.032 461.34 340.032C460.519 340.032 459.912 340.438 459.52 341.25L458.162 340.452C458.47 339.799 458.904 339.304 459.464 338.968C460.024 338.632 460.645 338.464 461.326 338.464C462.185 338.464 462.922 338.735 463.538 339.276C464.154 339.818 464.462 340.555 464.462 341.488C464.462 342.487 463.907 343.551 462.796 344.68L460.584 346.892H464.644V348.446H458.19Z"
       fill="#0015CE"
       id="path160" />
    <path
       d="M448.857 329.946H468.857V327.946H448.857V329.946ZM472.857 333.946V353.946H474.857V333.946H472.857ZM468.857 357.946H448.857V359.946H468.857V357.946ZM444.857 353.946V333.946H442.857V353.946H444.857ZM448.857 357.946C446.648 357.946 444.857 356.155 444.857 353.946H442.857C442.857 357.26 445.543 359.946 448.857 359.946V357.946ZM472.857 353.946C472.857 356.155 471.066 357.946 468.857 357.946V359.946C472.171 359.946 474.857 357.26 474.857 353.946H472.857ZM468.857 329.946C471.066 329.946 472.857 331.737 472.857 333.946H474.857C474.857 330.633 472.171 327.946 468.857 327.946V329.946ZM448.857 327.946C445.543 327.946 442.857 330.633 442.857 333.946H444.857C444.857 331.737 446.648 329.946 448.857 329.946V327.946Z"
       fill="#0015CE"
       id="path162" />
    <path
       d="M466.357 365.446C466.633 365.446 466.857 365.67 466.857 365.946L466.857 373.446C466.857 377.865 463.275 381.446 458.857 381.446C454.439 381.446 450.857 377.865 450.857 373.446L450.857 365.946C450.857 365.67 451.081 365.446 451.357 365.446L466.357 365.446Z"
       fill="#0015CE"
       fill-opacity="0.15"
       stroke="#0015CE"
       id="path164" />
    <path
       d="M494.357 322.446C494.081 322.446 493.857 322.222 493.857 321.946L493.857 314.446C493.857 310.028 497.439 306.446 501.857 306.446C506.275 306.446 509.857 310.028 509.857 314.446L509.857 321.946C509.857 322.222 509.633 322.446 509.357 322.446L494.357 322.446Z"
       fill="#0015CE"
       fill-opacity="0.15"
       stroke="#0015CE"
       id="path166" />
    <path
       d="M486.857 333.946C486.857 331.185 489.096 328.946 491.857 328.946H511.857C514.618 328.946 516.857 331.185 516.857 333.946V353.946C516.857 356.708 514.618 358.946 511.857 358.946H491.857C489.096 358.946 486.857 356.708 486.857 353.946V333.946Z"
       fill="#0015CE"
       fill-opacity="0.1"
       id="path168" />
    <path
       d="M498.23 338.646H499.63V348.446H498.02V340.368L496.046 340.928L495.654 339.556L498.23 338.646ZM505.357 342.65C506.066 342.818 506.64 343.15 507.079 343.644C507.527 344.13 507.751 344.741 507.751 345.478C507.751 346.458 507.42 347.228 506.757 347.788C506.094 348.348 505.282 348.628 504.321 348.628C503.574 348.628 502.902 348.456 502.305 348.11C501.717 347.765 501.292 347.261 501.031 346.598L502.403 345.8C502.692 346.64 503.332 347.06 504.321 347.06C504.881 347.06 505.324 346.92 505.651 346.64C505.978 346.351 506.141 345.964 506.141 345.478C506.141 344.993 505.978 344.61 505.651 344.33C505.324 344.05 504.881 343.91 504.321 343.91H503.957L503.313 342.944L505.427 340.158H501.325V338.646H507.345V340.018L505.357 342.65Z"
       fill="#0015CE"
       id="path170" />
    <path
       d="M491.857 329.946H511.857V327.946H491.857V329.946ZM515.857 333.946V353.946H517.857V333.946H515.857ZM511.857 357.946H491.857V359.946H511.857V357.946ZM487.857 353.946V333.946H485.857V353.946H487.857ZM491.857 357.946C489.648 357.946 487.857 356.155 487.857 353.946H485.857C485.857 357.26 488.543 359.946 491.857 359.946V357.946ZM515.857 353.946C515.857 356.155 514.066 357.946 511.857 357.946V359.946C515.171 359.946 517.857 357.26 517.857 353.946H515.857ZM511.857 329.946C514.066 329.946 515.857 331.737 515.857 333.946H517.857C517.857 330.633 515.171 327.946 511.857 327.946V329.946ZM491.857 327.946C488.543 327.946 485.857 330.633 485.857 333.946H487.857C487.857 331.737 489.648 329.946 491.857 329.946V327.946Z"
       fill="#0015CE"
       id="path172" />
    <path
       d="M509.357 365.446C509.633 365.446 509.857 365.67 509.857 365.946L509.857 373.446C509.857 377.865 506.275 381.446 501.857 381.446C497.439 381.446 493.857 377.865 493.857 373.446L493.857 365.946C493.857 365.67 494.081 365.446 494.357 365.446L509.357 365.446Z"
       fill="#0015CE"
       fill-opacity="0.15"
       stroke="#0015CE"
       id="path174" />
    <path
       d="M435.857 46.8486H531.857V142.849H455.857C444.811 142.849 435.857 133.894 435.857 122.849V46.8486Z"
       fill="#F0F1F8"
       id="path176" />
    <path
       d="M476.357 73.3486C476.081 73.3486 475.857 73.1248 475.857 72.8486L475.857 65.3486C475.857 60.9304 479.439 57.3486 483.857 57.3486C488.275 57.3486 491.857 60.9304 491.857 65.3486L491.857 72.8486C491.857 73.1248 491.633 73.3486 491.357 73.3486L476.357 73.3486Z"
       fill="#0015CE"
       fill-opacity="0.15"
       stroke="#0015CE"
       id="path178" />
    <path
       d="M462.357 102.349C462.357 102.625 462.133 102.849 461.857 102.849L454.357 102.849C449.939 102.849 446.357 99.2669 446.357 94.8486C446.357 90.4304 449.939 86.8486 454.357 86.8486L461.857 86.8486C462.133 86.8486 462.357 87.0725 462.357 87.3486L462.357 102.349Z"
       fill="#0015CE"
       fill-opacity="0.15"
       stroke="#0015CE"
       id="path180" />
    <path
       d="M468.857 84.8486C468.857 82.0872 471.096 79.8486 473.857 79.8486H493.857C496.618 79.8486 498.857 82.0872 498.857 84.8486V104.849C498.857 107.61 496.618 109.849 493.857 109.849H473.857C471.096 109.849 468.857 107.61 468.857 104.849V84.8486Z"
       fill="#0015CE"
       fill-opacity="0.1"
       id="path182" />
    <path
       d="M484.01 89.5486H485.41V99.3486H483.8V91.2706L481.826 91.8306L481.434 90.4586L484.01 89.5486Z"
       fill="#0015CE"
       id="path184" />
    <path
       d="M473.857 80.8486H493.857V78.8486H473.857V80.8486ZM497.857 84.8486V104.849H499.857V84.8486H497.857ZM493.857 108.849H473.857V110.849H493.857V108.849ZM469.857 104.849V84.8486H467.857V104.849H469.857ZM473.857 108.849C471.648 108.849 469.857 107.058 469.857 104.849H467.857C467.857 108.162 470.543 110.849 473.857 110.849V108.849ZM497.857 104.849C497.857 107.058 496.066 108.849 493.857 108.849V110.849C497.171 110.849 499.857 108.162 499.857 104.849H497.857ZM493.857 80.8486C496.066 80.8486 497.857 82.6395 497.857 84.8486H499.857C499.857 81.5349 497.171 78.8486 493.857 78.8486V80.8486ZM473.857 78.8486C470.543 78.8486 467.857 81.5349 467.857 84.8486H469.857C469.857 82.6395 471.648 80.8486 473.857 80.8486V78.8486Z"
       fill="#0015CE"
       id="path186" />
    <path
       d="M505.357 87.3486C505.357 87.0725 505.581 86.8486 505.857 86.8486L513.357 86.8486C517.775 86.8486 521.357 90.4304 521.357 94.8486C521.357 99.2669 517.775 102.849 513.357 102.849L505.857 102.849C505.581 102.849 505.357 102.625 505.357 102.349L505.357 87.3486Z"
       fill="#0015CE"
       fill-opacity="0.15"
       stroke="#0015CE"
       id="path188" />
    <path
       d="M491.357 116.349C491.633 116.349 491.857 116.572 491.857 116.849L491.857 124.349C491.857 128.767 488.275 132.349 483.857 132.349C479.439 132.349 475.857 128.767 475.857 124.349L475.857 116.849C475.857 116.572 476.081 116.349 476.357 116.349L491.357 116.349Z"
       fill="#0015CE"
       fill-opacity="0.15"
       stroke="#0015CE"
       id="path190" />
    <rect
       x="225.357"
       y="160.446"
       width="142"
       height="71"
       rx="10"
       fill="#F0F1F8"
       id="rect192" />
    <path
       d="M288.702 185.29H284.131L286.593 191.947C287.319 193.909 287.277 196.127 286.475 198.193C285.902 199.67 285.753 201.295 286.045 202.891C286.679 206.357 289.59 209.302 293.281 209.812V214.985H287.128V217.446H301.894V214.985H295.742V209.806C297.318 209.579 298.811 208.924 300.051 207.882C302.004 206.24 303.125 203.836 303.125 201.286C303.125 200.097 302.884 198.944 302.41 197.86C302.004 196.931 301.823 195.884 301.865 194.782C302.698 195.018 303.538 195.136 304.367 195.136C305.985 195.136 307.561 194.688 308.964 193.798C311.471 192.207 312.968 189.487 312.968 186.521C312.968 181.771 309.104 177.907 304.355 177.907C300.023 177.907 296.429 181.121 295.83 185.29H291.297L288.015 175.446H279.746V177.907H286.241L288.702 185.29ZM289.523 187.751L290.343 190.212H288.575L287.665 187.751H289.523ZM293.392 207.34C290.94 206.912 288.914 204.901 288.466 202.449C288.256 201.3 288.361 200.136 288.769 199.083C289.581 196.992 289.775 194.767 289.35 192.673H299.665C299.186 194.858 299.349 197.002 300.155 198.846C300.493 199.617 300.664 200.438 300.664 201.286C300.664 205.005 297.338 208.029 293.392 207.34ZM304.355 180.368C307.747 180.368 310.507 183.128 310.507 186.521C310.507 188.639 309.437 190.583 307.646 191.72C306.066 192.722 304.161 192.934 302.299 192.341C302.465 191.812 302.356 192.162 304.892 185.29H298.326C298.898 182.485 301.384 180.368 304.355 180.368ZM301.357 187.751L300.447 190.212H292.937L292.117 187.751H301.357Z"
       fill="#C4C6E4"
       id="path194" />
  </g>
  <rect
     x="99.5"
     y="42.8486"
     width="436"
     height="355"
     rx="24"
     stroke="#4354C6"
     stroke-width="8"
     id="rect198" />
  <path
     d="M288.475 453.208C291.215 454.514 292.585 456.678 292.585 459.7C292.585 462.055 291.688 463.976 289.896 465.461C288.129 466.921 285.811 467.651 282.943 467.651C278.027 467.651 274.774 465.576 273.187 461.428L276.989 459.239C277.783 462.081 279.768 463.502 282.943 463.502C284.633 463.502 285.927 463.144 286.823 462.427C287.719 461.684 288.167 460.698 288.167 459.469C288.167 458.265 287.732 457.305 286.861 456.588C286.016 455.846 284.813 455.474 283.251 455.474H279.986V451.479H282.367C283.878 451.479 285.056 451.134 285.901 450.442C286.746 449.751 287.169 448.829 287.169 447.677C287.169 446.524 286.784 445.615 286.016 444.949C285.248 444.258 284.147 443.912 282.713 443.912C280.05 443.912 278.257 445.129 277.335 447.561L273.571 445.372C275.312 441.633 278.359 439.764 282.713 439.764C285.35 439.764 287.489 440.481 289.128 441.915C290.766 443.323 291.586 445.167 291.586 447.446C291.586 449.981 290.549 451.902 288.475 453.208ZM311.386 447.946H315.535V467.151H311.386V464.386C309.824 466.562 307.583 467.651 304.664 467.651C302.027 467.651 299.773 466.678 297.904 464.731C296.034 462.76 295.1 460.365 295.1 457.548C295.1 454.706 296.034 452.312 297.904 450.365C299.773 448.419 302.027 447.446 304.664 447.446C307.583 447.446 309.824 448.522 311.386 450.673V447.946ZM300.977 461.966C302.129 463.118 303.576 463.694 305.317 463.694C307.059 463.694 308.505 463.118 309.658 461.966C310.81 460.788 311.386 459.315 311.386 457.548C311.386 455.782 310.81 454.322 309.658 453.17C308.505 451.992 307.059 451.403 305.317 451.403C303.576 451.403 302.129 451.992 300.977 453.17C299.824 454.322 299.248 455.782 299.248 457.548C299.248 459.315 299.824 460.788 300.977 461.966ZM336.58 447.946V467.151H332.431V451.94H326.017V459.085C326.017 462.132 325.351 464.296 324.019 465.576C322.688 466.857 320.793 467.382 318.334 467.151V463.272C319.512 463.477 320.396 463.233 320.985 462.542C321.574 461.851 321.868 460.634 321.868 458.893V447.946H336.58ZM356.164 440.263H360.005V467.151H355.588V444.988L350.172 446.524L349.096 442.76L356.164 440.263Z"
     fill="#4354C6"
     id="path200" />
  <defs
     id="defs203">
    <clipPath
       id="clip0" />
  </defs>
</svg>
